<svg enable-background="new 0 0 120 35" viewBox="0 0 120 35" xmlns="http://www.w3.org/2000/svg"><g transform="matrix(.13333333 0 0 -.13333333 0 203.6)"><g fill="#1a385a"><path d="m377.2 1411.1c-4.9 5.2-9.1 8.9-16.9 8.9-12.6 0-21.5-10.1-21.5-24.1 0-14.5 8.9-23.7 21.5-23.7 7.8 0 13.6 4.3 17.7 10.1l20.4-15.5c-9.7-13.2-21.3-20.2-38-20.2-28.5 0-48.7 21.7-48.7 49.3 0 27.5 20.2 49.3 48.5 49.3 14.9 0 26.8-6.4 35.9-16.7z"/><path d="m506.1 1348.5h-27.1v6.4c0 1.6.2 3.9.6 6.6-6.2-8.9-15.9-15.3-28.7-15.3-19.6 0-34.3 15.3-34.3 40.7v56.2h27.3v-54.7c0-13.2 8.3-20 17.5-20 8.1 0 17.1 6.4 17.7 19.2v55.5h27.1z"/><path d="m599.8 1395.8c0 14-7 25.2-21.1 25.2-12.6 0-20.9-10.5-20.9-25 0-13 8.5-25.4 20.9-25.4 13.9 0 21.1 11.4 21.1 25.2zm-68.8-47.3v145.5h27.1v-60.3c7.4 7.7 17.1 11.6 27.5 11.6 26.2 0 41.1-23.9 41.1-49.1 0-25.6-14.4-49.7-40.9-49.7-11.1 0-21.3 5.4-28.7 14.4v-12.4z"/><path d="m646.7 1348.5v94.6h27.7v-94.6zm14.2 141.8c9.7 0 17.8-8.1 17.8-17.8s-8.1-17.9-17.8-17.9-17.8 8.2-17.8 17.9c-.1 9.6 8.1 17.8 17.8 17.8"/><path d="m742 1388.4c10.7 0 17.6 6 17.6 17.1 0 11.3-7 17.7-17.6 17.7-10.9 0-17.8-6.6-17.8-17.7-.1-11.2 7.5-17.1 17.8-17.1zm-24.5-58.7c-5.2-9.9 1.2-19.6 24.4-19.6 34.1 0 33.2 23.7 15.3 23.7-10.5 0-21-4.5-34.7-4.5-1.7 0-3.4.2-5 .4zm42.5 111.9 12 13.8 15.9-14.9-11.2-11.2c5.4-6.6 8.5-14.7 8.5-23.7 0-23.6-19.4-39.4-43.2-39.4-5.6 0-10.5.6-15.1 1.7-8.3-7-9.1-15.5 3.7-15.5 8.9 0 14.7 3.7 27.7 3.7 49.5 0 49.1-69-16.3-69-49.1 0-59.2 31.8-42.5 53.7-7 10.9-4.1 27.5 8.9 37.6-6.4 6.8-9.9 16.1-9.9 27.1 0 23.7 19.6 39.6 43.4 39.6 6.4 0 12.7-1.2 18.1-3.5"/><path d="m873.4 1396c0 14.3-9.1 25-22.9 25-14 0-23.1-10.7-23.1-25 0-14.5 9.5-25.2 23.1-25.2 13.8 0 22.9 10.7 22.9 25.2zm-72.3 0c0 28.1 21.7 49.3 49.4 49.3s49.5-21.1 49.5-49.3c0-28.1-21.7-49.3-49.5-49.3-27.7.1-49.4 21.2-49.4 49.3"/></g><path d="m194 1268.3h-129.3c-35.7 0-64.7 29-64.7 64.7v129.4c0 35.7 29 64.7 64.7 64.7h129.3c35.7 0 64.7-29 64.7-64.7v-129.4c0-35.7-29-64.7-64.7-64.7" fill="#3780c1"/><path d="m186 1383.2 1.6-12.6c1.4-11.2-6.5-21.4-17.7-22.8l-67.5-8.4c-11.2-1.4-21.4 6.6-22.8 17.7l-8.4 67.5c-1.4 11.2 6.6 21.4 17.7 22.8l67.5 8.4c11.2 1.4 21.4-6.5 22.8-17.7l1.6-12.6 33.6 4.2-2.8 22.7c-3 24.1-25.1 41.3-49.2 38.3l-87.6-10.9c-24.2-3-41.3-25.1-38.3-49.2l10.9-87.6c3-24.1 25.1-41.3 49.2-38.3l87.6 10.9c24.1 3 41.4 25.1 38.3 49.2l-2.8 22.7z" fill="#fff"/></g></svg>