
<svg width="243px" height="52px" viewBox="0 0 243 52" version="1.1" xmlns="http://www.w3.org/2000/svg" xmlns:xlink="http://www.w3.org/1999/xlink">
    <defs>
        <polygon id="path-1" points="0 51.6094566 242.663813 51.6094566 242.663813 0.497607597 0 0.497607597"></polygon>
    </defs>
    <g id="Page-1" stroke="none" stroke-width="1" fill="none" fill-rule="evenodd">
        <g id="Homepage" transform="translate(-429.000000, -28.000000)">
            <g id="Logo" transform="translate(429.000000, 28.000000)">
                <polygon id="Fill-1" fill="#54656F" points="65.0688948 47.1227461 45.5435738 47.1227461 67.3397109 25.2811619 86.8665724 25.2811619"></polygon>
                <polygon id="Fill-2" fill="#54656F" points="45.5438049 0.770752571 67.3399419 22.6123368 86.8660332 22.6123368 65.0691259 0.770752571"></polygon>
                <polygon id="Fill-3" fill="#A5CE41" points="21.7982169 1.03003232 -0.000231087119 22.8716165 19.5266305 22.8716165 41.3227676 1.03003232"></polygon>
                <polygon id="Fill-4" fill="#87AB35" points="63.3244181 22.8721557 43.3084221 2.81379379 33.5349776 12.5864681 43.7990971 22.8721557"></polygon>
                <polygon id="Fill-5" fill="#87AB35" points="63.3244181 25.5350496 43.7990971 25.5350496 33.5372885 35.8184264 43.310733 45.5911007"></polygon>
                <polygon id="Fill-6" fill="#A5CE41" points="0 25.5347415 21.7984479 47.377096 41.3222284 47.377096 19.5260913 25.5347415"></polygon>
                <g id="Group-35" transform="translate(0.000000, 0.272683)">
                    <path d="M102.561855,19.7101137 L104.077017,19.7101137 C107.440875,19.7101137 109.595377,17.6973448 109.595377,13.9082864 C109.595377,10.1654453 107.392347,8.15267653 104.077017,8.15267653 L102.040369,8.15267653 L102.040369,19.1893973 C102.040369,19.5206222 102.22986,19.7101137 102.561855,19.7101137 L102.561855,19.7101137 Z M98.9376392,8.15267653 L97.398599,8.15267653 L97.398599,5.52367541 L104.243399,5.52367541 C109.429765,5.52367541 112.816732,8.60252613 112.816732,13.9082864 C112.816732,19.2125061 109.429765,22.3391148 104.243399,22.3391148 L100.549087,22.3391148 C99.4113678,22.3391148 98.9376392,21.8653862 98.9376392,20.7284376 L98.9376392,8.15267653 Z" id="Fill-7" fill="#54656F"></path>
                    <path d="M119.28409,20.2788191 C120.893997,20.2788191 122.030945,18.5733961 122.030945,17.1052226 L122.030945,16.8209855 L121.510999,16.8209855 C119.94731,16.8209855 117.460812,17.0343559 117.460812,18.7158998 C117.460812,19.5208533 118.051625,20.2788191 119.28409,20.2788191 M121.605745,14.7604586 L121.983958,14.7604586 L121.983958,14.6657129 C121.983958,12.9371813 121.296859,12.2978402 119.757818,12.2978402 C119.213223,12.2978402 118.146371,12.4395737 118.146371,13.1027937 L118.146371,13.7421347 L115.352528,13.7421347 L115.352528,12.4634527 C115.352528,10.2134344 118.526124,9.97618499 119.781697,9.97618499 C123.808005,9.97618499 124.991942,12.0836995 124.991942,14.7835674 L124.991942,19.2843741 C124.991942,19.615599 125.181433,19.8050905 125.512658,19.8050905 L126.460115,19.8050905 L126.460115,22.3393459 L123.760247,22.3393459 C122.646407,22.3393459 122.221207,21.7231135 122.221207,21.0129058 C122.221207,20.7055599 122.245086,20.4914192 122.245086,20.4914192 L122.196558,20.4914192 C122.196558,20.4914192 121.27298,22.623583 118.550003,22.623583 C116.39396,22.623583 114.428949,21.273264 114.428949,18.8576333 C114.428949,15.0678045 119.639194,14.7604586 121.605745,14.7604586" id="Fill-9" fill="#54656F"></path>
                    <path d="M128.876593,13.3394269 C128.876593,12.984323 128.687872,12.8179403 128.355877,12.8179403 L127.40842,12.8179403 L127.40842,10.2605762 L130.179154,10.2605762 C131.245236,10.2605762 131.766723,10.7574135 131.766723,11.6108953 L131.766723,11.9659991 C131.766723,12.2263573 131.718965,12.4867155 131.718965,12.4867155 L131.766723,12.4867155 C132.287439,11.4683915 133.59,9.97633905 136.02951,9.97633905 C138.705499,9.97633905 140.245309,11.3736458 140.245309,14.5711213 L140.245309,19.2845282 C140.245309,19.6149828 140.4348,19.8052445 140.766796,19.8052445 L141.713483,19.8052445 L141.713483,22.3394999 L138.848002,22.3394999 C137.711054,22.3394999 137.237325,21.865001 137.237325,20.7288227 L137.237325,15.1865833 C137.237325,13.7184098 136.858342,12.7231946 135.343181,12.7231946 C133.732504,12.7231946 132.524688,13.7415185 132.097948,15.1865833 C131.932335,15.6841909 131.861468,16.2287862 131.861468,16.7972605 L131.861468,22.3394999 L128.876593,22.3394999 L128.876593,13.3394269 Z" id="Fill-11" fill="#54656F"></path>
                    <path d="M151.306833,14.7370418 C151.259845,13.291977 150.26463,12.2975321 149.033706,12.2975321 C147.494666,12.2975321 146.404705,13.2211103 146.07271,14.7370418 L151.306833,14.7370418 Z M149.033706,9.97587687 C152.49077,9.97587687 154.386454,12.5101323 154.386454,15.7076077 C154.386454,16.0634819 154.314817,16.8206773 154.314817,16.8206773 L145.977964,16.8206773 C146.215984,18.9528412 147.778903,20.0659108 149.602181,20.0659108 C151.544853,20.0659108 152.989147,18.7155917 152.989147,18.7155917 L154.24395,20.7999975 C154.24395,20.7999975 152.396024,22.6232749 149.38881,22.6232749 C145.386381,22.6232749 142.899884,19.7339156 142.899884,16.2991907 C142.899884,12.580999 145.41026,9.97587687 149.033706,9.97587687 L149.033706,9.97587687 Z" id="Fill-13" fill="#54656F"></path>
                    <path d="M164.50029,14.7370418 C164.452532,13.291977 163.458087,12.2975321 162.226393,12.2975321 C160.687353,12.2975321 159.598162,13.2211103 159.266167,14.7370418 L164.50029,14.7370418 Z M162.226393,9.97587687 C165.684226,9.97587687 167.579141,12.5101323 167.579141,15.7076077 C167.579141,16.0634819 167.508274,16.8206773 167.508274,16.8206773 L159.171421,16.8206773 C159.408671,18.9528412 160.97159,20.0659108 162.794867,20.0659108 C164.73754,20.0659108 166.181834,18.7155917 166.181834,18.7155917 L167.437407,20.7999975 C167.437407,20.7999975 165.589481,22.6232749 162.581497,22.6232749 C158.579068,22.6232749 156.09257,19.7339156 156.09257,16.2991907 C156.09257,12.580999 158.603717,9.97587687 162.226393,9.97587687 L162.226393,9.97587687 Z" id="Fill-15" fill="#54656F"></path>
                    <path d="M170.422668,8.60260315 C170.422668,8.24749928 170.233176,8.08111656 169.901181,8.08111656 L168.954494,8.08111656 L168.954494,5.52375244 L171.819975,5.52375244 C172.933044,5.52375244 173.429882,6.02058974 173.429882,7.13442966 L173.429882,19.2842201 C173.429882,19.615445 173.619373,19.8049364 173.951368,19.8049364 L174.874946,19.8049364 L174.874946,22.3391918 L172.032575,22.3391918 C170.896396,22.3391918 170.422668,21.8654632 170.422668,20.7285146 L170.422668,8.60260315 Z" id="Fill-17" fill="#54656F"></path>
                    <path d="M177.433466,18.5027605 C177.433466,18.5027605 178.972506,20.2790501 181.033803,20.2790501 C181.956611,20.2790501 182.667589,19.899297 182.667589,19.0951138 C182.667589,17.3896909 176.295747,17.4127996 176.295747,13.5051164 C176.295747,11.0894857 178.475669,9.97641608 180.985275,9.97641608 C182.619061,9.97641608 185.224953,10.5210114 185.224953,12.4860222 L185.224953,13.7415955 L182.572843,13.7415955 L182.572843,13.1500125 C182.572843,12.5815382 181.719362,12.297301 181.056912,12.297301 C179.99083,12.297301 179.256743,12.6762839 179.256743,13.3864917 C179.256743,15.281406 185.674803,14.9024232 185.674803,18.9287311 C185.674803,21.2026283 183.662034,22.6238141 181.033803,22.6238141 C177.717703,22.6238141 176.01151,20.4685416 176.01151,20.4685416 L177.433466,18.5027605 Z" id="Fill-19" fill="#54656F"></path>
                    <path d="M97.019385,44.2435547 L97.7534718,44.2435547 C98.0854669,44.2435547 98.2518496,44.0540632 98.2749584,43.7228384 L99.364149,30.0571164 L102.585503,30.0571164 L106.043337,38.0627445 C106.445429,39.0333104 106.872169,40.3119925 106.872169,40.3119925 L106.919157,40.3119925 C106.919157,40.3119925 107.345898,39.0333104 107.74799,38.0627445 L111.206594,30.0571164 L114.427178,30.0571164 L115.517139,43.7228384 C115.540247,44.0540632 115.70663,44.2435547 116.037085,44.2435547 L116.771942,44.2435547 L116.771942,46.8725558 L114.095183,46.8725558 C112.982113,46.8725558 112.60313,46.3988272 112.508384,45.2618786 L111.94068,37.7777371 C111.845935,36.6646675 111.916801,35.1733853 111.916801,35.1733853 L111.869043,35.1733853 C111.869043,35.1733853 111.372206,36.8310502 110.945465,37.7777371 L108.150852,43.9831965 L105.639705,43.9831965 L102.845862,37.7777371 C102.419121,36.8310502 101.922283,35.148736 101.922283,35.148736 L101.874525,35.148736 C101.874525,35.148736 101.946162,36.6646675 101.850646,37.7777371 L101.306051,45.2618786 C101.211305,46.3988272 100.809214,46.8725558 99.6961441,46.8725558 L97.019385,46.8725558 L97.019385,44.2435547 Z" id="Fill-21" fill="#54656F"></path>
                    <path d="M126.365677,39.2704828 C126.31869,37.8254181 125.323475,36.8309732 124.092551,36.8309732 C122.55351,36.8309732 121.463549,37.7545513 121.131554,39.2704828 L126.365677,39.2704828 Z M124.092551,34.5093179 C127.549614,34.5093179 129.445298,37.0435733 129.445298,40.2410487 C129.445298,40.5969229 129.373661,41.3541184 129.373661,41.3541184 L121.036808,41.3541184 C121.274828,43.4862822 122.837747,44.5993518 124.661025,44.5993518 C126.603697,44.5993518 128.047992,43.2490327 128.047992,43.2490327 L129.302795,45.3334386 C129.302795,45.3334386 127.454868,47.1567159 124.447654,47.1567159 C120.445225,47.1567159 117.958728,44.2673567 117.958728,40.8326318 C117.958728,37.11444 120.469104,34.5093179 124.092551,34.5093179 L124.092551,34.5093179 Z" id="Fill-23" fill="#54656F"></path>
                    <path d="M140.221815,40.8096001 C140.221815,38.9385647 139.251249,37.0914083 137.23848,37.0914083 C135.580816,37.0914083 134.206617,38.4417274 134.206617,40.8327088 C134.206617,43.1304851 135.414433,44.6225376 137.189952,44.6225376 C138.753642,44.6225376 140.221815,43.4863592 140.221815,40.8096001 M136.645357,34.5093949 C139.275128,34.5093949 140.127069,35.9783387 140.127069,35.9783387 L140.174827,35.9783387 C140.174827,35.9783387 140.150948,35.6702226 140.150948,35.268131 L140.150948,33.1359672 C140.150948,32.7808633 139.961457,32.6144806 139.630232,32.6144806 L138.682775,32.6144806 L138.682775,30.0571164 L141.549026,30.0571164 C142.662095,30.0571164 143.158932,30.554724 143.158932,31.6677937 L143.158932,43.8175841 C143.158932,44.148809 143.348424,44.3383004 143.679649,44.3383004 L144.603227,44.3383004 L144.603227,46.8725558 L141.833263,46.8725558 C140.743302,46.8725558 140.34044,46.3510692 140.34044,45.6408615 L140.34044,45.1910119 L140.293452,45.1910119 C140.293452,45.1910119 139.298237,47.156793 136.527502,47.156793 C133.25916,47.156793 131.151646,44.5755498 131.151646,40.8327088 C131.151646,36.9966626 133.448652,34.5093949 136.645357,34.5093949" id="Fill-25" fill="#54656F"></path>
                    <mask id="mask-2" fill="white">
                        <use xlink:href="#path-1"></use>
                    </mask>
                    <g id="Clip-28"></g>
                    <path d="M147.328823,32.8290064 L149.934715,32.8290064 L149.934715,30.0575016 L147.328823,30.0575016 L147.328823,32.8290064 Z M147.187089,37.872868 C147.187089,37.5177641 146.998368,37.3513814 146.665602,37.3513814 L145.718145,37.3513814 L145.718145,34.7940172 L148.583626,34.7940172 C149.696695,34.7940172 150.171194,35.2908545 150.171194,36.4046945 L150.171194,43.8179692 C150.171194,44.1484238 150.360686,44.3386855 150.69191,44.3386855 L151.639368,44.3386855 L151.639368,46.872941 L148.773117,46.872941 C147.660818,46.872941 147.187089,46.3984421 147.187089,45.2622637 L147.187089,37.872868 Z" id="Fill-27" fill="#54656F" mask="url(#mask-2)"></path>
                    <path d="M157.845212,44.8122601 C159.455119,44.8122601 160.592068,43.1068371 160.592068,41.6386636 L160.592068,41.3544265 L160.072122,41.3544265 C158.508432,41.3544265 156.021935,41.5677969 156.021935,43.2493409 C156.021935,44.0542943 156.612748,44.8122601 157.845212,44.8122601 M160.166867,39.2938997 L160.54508,39.2938997 L160.54508,39.199154 C160.54508,37.4706223 159.857981,36.8312813 158.318941,36.8312813 C157.774345,36.8312813 156.707493,36.9730147 156.707493,37.6362347 L156.707493,38.2755758 L153.91365,38.2755758 L153.91365,36.9968937 C153.91365,34.7468755 157.087246,34.509626 158.34282,34.509626 C162.369128,34.509626 163.553064,36.6171405 163.553064,39.3170084 L163.553064,43.8178152 C163.553064,44.14904 163.742555,44.3385315 164.07378,44.3385315 L165.021237,44.3385315 L165.021237,46.8727869 L162.32137,46.8727869 C161.20753,46.8727869 160.782329,46.2565546 160.782329,45.5463468 C160.782329,45.239001 160.806208,45.0248602 160.806208,45.0248602 L160.75768,45.0248602 C160.75768,45.0248602 159.834102,47.157024 157.111125,47.157024 C154.955083,47.157024 152.990072,45.806705 152.990072,43.3910743 C152.990072,39.6012455 158.200316,39.2938997 160.166867,39.2938997" id="Fill-29" fill="#54656F" mask="url(#mask-2)"></path>
                    <path d="M181.033726,29.7728023 C185.15478,29.7728023 187.167549,31.9049661 187.167549,31.9049661 L185.414368,34.130335 C185.414368,34.130335 183.661957,32.6390528 181.104593,32.6390528 C178.192125,32.6390528 175.704857,34.9360588 175.704857,38.3469047 C175.704857,42.0173384 178.215234,44.2673567 181.223218,44.2673567 C183.899977,44.2673567 185.486005,42.514946 185.486005,42.514946 L185.486005,41.2593727 C185.486005,40.9042688 185.296513,40.7386563 184.965288,40.7386563 L183.946194,40.7386563 L183.946194,38.1096552 L186.669941,38.1096552 C187.80689,38.1096552 188.280618,38.5833838 188.280618,39.6964534 L188.280618,46.8724788 L185.628508,46.8724788 L185.628508,46.0675253 C185.628508,45.7116511 185.652387,45.3565473 185.652387,45.3565473 L185.604629,45.3565473 C185.604629,45.3565473 183.805231,47.1567159 180.654743,47.1567159 C176.249452,47.1567159 172.483503,43.7936281 172.483503,38.3700134 C172.483503,33.538752 176.154707,29.7728023 181.033726,29.7728023" id="Fill-30" fill="#54656F" mask="url(#mask-2)"></path>
                    <path d="M191.503359,37.872868 C191.503359,37.5177641 191.313868,37.3513814 190.982643,37.3513814 L190.035186,37.3513814 L190.035186,34.7940172 L192.782041,34.7940172 C193.848123,34.7940172 194.393489,35.2438668 194.393489,36.2621907 L194.393489,36.9731688 C194.393489,37.4230184 194.34496,37.7303642 194.34496,37.7303642 L194.393489,37.7303642 C194.938084,36.0018326 196.382379,34.6284048 198.229535,34.6284048 C198.489893,34.6284048 198.77413,34.6761628 198.77413,34.6761628 L198.77413,37.6356185 C198.77413,37.6356185 198.466014,37.5886308 198.040043,37.5886308 C196.761361,37.5886308 195.293188,38.3227175 194.748593,40.1228862 C194.58221,40.7144692 194.487464,41.3784595 194.487464,42.0886673 L194.487464,46.872941 L191.503359,46.872941 L191.503359,37.872868 Z" id="Fill-31" fill="#54656F" mask="url(#mask-2)"></path>
                    <path d="M206.211823,44.5993518 C208.177604,44.5993518 209.812161,43.08265 209.812161,40.8326318 C209.812161,38.6072628 208.177604,37.0674523 206.211823,37.0674523 C204.269921,37.0674523 202.635365,38.6072628 202.635365,40.8326318 C202.635365,43.08265 204.269921,44.5993518 206.211823,44.5993518 M206.211823,34.5093179 C209.906136,34.5093179 212.843253,37.138319 212.843253,40.8326318 C212.843253,44.5515938 209.906136,47.1567159 206.211823,47.1567159 C202.540619,47.1567159 199.604272,44.5515938 199.604272,40.8326318 C199.604272,37.138319 202.540619,34.5093179 206.211823,34.5093179" id="Fill-32" fill="#54656F" mask="url(#mask-2)"></path>
                    <path d="M215.520783,37.872868 C215.520783,37.5177641 215.331291,37.3513814 215.000066,37.3513814 L214.052609,37.3513814 L214.052609,34.7940172 L216.918089,34.7940172 C218.031929,34.7940172 218.505658,35.2908545 218.505658,36.3808155 L218.505658,41.9461636 C218.505658,43.4143371 218.883871,44.4095523 220.375923,44.4095523 C222.555075,44.4095523 223.76289,42.4907589 223.76289,40.3354864 L223.76289,34.7940172 L226.770874,34.7940172 L226.770874,43.8179692 C226.770874,44.1484238 226.960365,44.3386855 227.29159,44.3386855 L228.239818,44.3386855 L228.239818,46.872941 L225.468313,46.872941 C224.42611,46.872941 223.881515,46.3753334 223.881515,45.5226219 L223.881515,45.191397 C223.881515,44.9071599 223.905394,44.6460314 223.905394,44.6460314 L223.856865,44.6460314 C223.289161,45.9016048 221.77323,47.1571781 219.689594,47.1571781 C217.108351,47.1571781 215.520783,45.8538468 215.520783,42.5623959 L215.520783,37.872868 Z" id="Fill-33" fill="#54656F" mask="url(#mask-2)"></path>
                    <path d="M236.577364,44.6226916 C238.234259,44.6226916 239.632336,43.2723725 239.632336,40.8806209 C239.632336,38.5828446 238.400641,37.0915624 236.624352,37.0915624 C235.060662,37.0915624 233.592489,38.2277407 233.592489,40.9044999 C233.592489,42.7755352 234.586934,44.6226916 236.577364,44.6226916 L236.577364,44.6226916 Z M230.680021,37.8726369 C230.680021,37.517533 230.490529,37.3519206 230.158534,37.3519206 L229.211077,37.3519206 L229.211077,34.7937861 L231.887836,34.7937861 C233.000135,34.7937861 233.402997,35.2913937 233.402997,35.9546138 L233.402997,36.4275721 L233.450755,36.4275721 C233.450755,36.4275721 234.469079,34.509549 237.287572,34.509549 C240.555144,34.509549 242.663428,37.0915624 242.663428,40.8328629 C242.663428,44.6704496 240.294785,47.156947 237.121959,47.156947 C234.730208,47.156947 233.663355,45.5693785 233.663355,45.5693785 L233.616368,45.5693785 C233.616368,45.5693785 233.663355,45.9961194 233.663355,46.6123517 L233.663355,51.6092255 L230.680021,51.6092255 L230.680021,37.8726369 Z" id="Fill-34" fill="#54656F" mask="url(#mask-2)"></path>
                </g>
            </g>
        </g>
    </g>
</svg>
