<svg height="52" viewBox="0 0 243 52" width="243" xmlns="http://www.w3.org/2000/svg" xmlns:xlink="http://www.w3.org/1999/xlink"><mask id="a" fill="#fff"><path d="m0 51.6094566h242.663813v-51.111849h-242.663813z" fill="#fff" fill-rule="evenodd"/></mask><g fill="none" fill-rule="evenodd"><path d="m65.0688948 47.1227461h-19.525321l21.7961371-21.8415842h19.5268615z" fill="#54656f"/><path d="m45.5438049.77075257 21.796137 21.84158423h19.5260913l-21.7969073-21.84158423z" fill="#54656f"/><path d="m21.7982169 1.03003232-21.79844799 21.84158418h19.52686159l21.7961371-21.84158418z" fill="#a5ce41"/><path d="m63.3244181 22.8721557-20.015996-20.05836191-9.7734445 9.77267431 10.2641195 10.2856876z" fill="#87ab35"/><path d="m63.3244181 25.5350496h-19.525321l-10.2618086 10.2833768 9.7734445 9.7726743z" fill="#87ab35"/><path d="m0 25.5347415 21.7984479 21.8423545h19.5237805l-21.7961371-21.8423545z" fill="#a5ce41"/><g fill="#54656f" transform="translate(0 .272683)"><path d="m102.561855 19.7101137h1.515162c3.363858 0 5.51836-2.0127689 5.51836-5.8018273 0-3.7428411-2.20303-5.75560987-5.51836-5.75560987h-2.036648v11.03672077c0 .3312249.189491.5207164.521486.5207164zm-3.6242158-11.55743717h-1.5390402v-2.62900112h6.8448c5.186366 0 8.573333 3.07885072 8.573333 8.38461099 0 5.3042197-3.386967 8.4308284-8.573333 8.4308284h-3.694312c-1.1377192 0-1.6114478-.4737286-1.6114478-1.6106772z"/><path d="m119.28409 20.2788191c1.609907 0 2.746855-1.705423 2.746855-3.1735965v-.2842371h-.519946c-1.563689 0-4.050187.2133704-4.050187 1.8949143 0 .8049535.590813 1.5629193 1.823278 1.5629193m2.321655-5.5183605h.378213v-.0947457c0-1.7285316-.687099-2.3678727-2.22614-2.3678727-.544595 0-1.611447.1417335-1.611447.8049535v.639341h-2.793843v-1.278682c0-2.2500183 3.173596-2.48726771 4.429169-2.48726771 4.026308 0 5.210245 2.10751451 5.210245 4.80738241v4.5008067c0 .3312249.189491.5207164.520716.5207164h.947457v2.5342554h-2.699868c-1.11384 0-1.53904-.6162324-1.53904-1.3264401 0-.3073459.023879-.5214866.023879-.5214866h-.048528s-.923578 2.1321638-3.646555 2.1321638c-2.156043 0-4.121054-1.350319-4.121054-3.7659497 0-3.7898288 5.210245-4.0971747 7.176796-4.0971747"/><path d="m128.876593 13.3394269c0-.3551039-.188721-.5214866-.520716-.5214866h-.947457v-2.5573641h2.770734c1.066082 0 1.587569.4968373 1.587569 1.3503191v.3551038c0 .2603582-.047758.5207164-.047758.5207164h.047758c.520716-1.018324 1.823277-2.51037645 4.262787-2.51037645 2.675989 0 4.215799 1.39730675 4.215799 4.59478225v4.7134069c0 .3304546.189491.5207163.521487.5207163h.946687v2.5342554h-2.865481c-1.136948 0-1.610677-.4744989-1.610677-1.6106772v-5.5422394c0-1.4681735-.378983-2.4633887-1.894144-2.4633887-1.610677 0-2.818493 1.0183239-3.245233 2.4633887-.165613.4976076-.23648 1.0422029-.23648 1.6106772v5.5422394h-2.984875z"/><path d="m151.306833 14.7370418c-.046988-1.4450648-1.042203-2.4395097-2.273127-2.4395097-1.53904 0-2.629001.9235782-2.960996 2.4395097zm-2.273127-4.76116493c3.457064 0 5.352748 2.53425543 5.352748 5.73173083 0 .3558742-.071637 1.1130696-.071637 1.1130696h-8.336853c.23802 2.1321639 1.800939 3.2452335 3.624217 3.2452335 1.942672 0 3.386966-1.3503191 3.386966-1.3503191l1.254803 2.0844058s-1.847926 1.8232774-4.85514 1.8232774c-4.002429 0-6.488926-2.8893593-6.488926-6.3240842 0-3.7181917 2.510376-6.32331383 6.133822-6.32331383z"/><path d="m164.50029 14.7370418c-.047758-1.4450648-1.042203-2.4395097-2.273897-2.4395097-1.53904 0-2.628231.9235782-2.960226 2.4395097zm-2.273897-4.76116493c3.457833 0 5.352748 2.53425543 5.352748 5.73173083 0 .3558742-.070867 1.1130696-.070867 1.1130696h-8.336853c.23725 2.1321639 1.800169 3.2452335 3.623446 3.2452335 1.942673 0 3.386967-1.3503191 3.386967-1.3503191l1.255573 2.0844058s-1.847926 1.8232774-4.85591 1.8232774c-4.002429 0-6.488927-2.8893593-6.488927-6.3240842 0-3.7181917 2.511147-6.32331383 6.133823-6.32331383z"/><path d="m170.422668 8.60260315c0-.35510387-.189492-.52148659-.521487-.52148659h-.946687v-2.55736412h2.865481c1.113069 0 1.609907.4968373 1.609907 1.61067722v12.14979044c0 .3312249.189491.5207163.521486.5207163h.923578v2.5342554h-2.842371c-1.136179 0-1.609907-.4737286-1.609907-1.6106772z"/><path d="m177.433466 18.5027605s1.53904 1.7762896 3.600337 1.7762896c.922808 0 1.633786-.3797531 1.633786-1.1839363 0-1.7054229-6.371842-1.6823142-6.371842-5.5899974 0-2.4156307 2.179922-3.52870032 4.689528-3.52870032 1.633786 0 4.239678.54459532 4.239678 2.50960612v1.2555733h-2.65211v-.591583c0-.5684743-.853481-.8527115-1.515931-.8527115-1.066082 0-1.800169.3789829-1.800169 1.0891907 0 1.8949143 6.41806 1.5159315 6.41806 5.5422394 0 2.2738972-2.012769 3.695083-4.641 3.695083-3.3161 0-5.022293-2.1552725-5.022293-2.1552725z"/><path d="m97.019385 44.2435547h.7340868c.3319951 0 .4983778-.1894915.5214866-.5207163l1.0891906-13.665722h3.221354l3.457834 8.0056281c.402092.9705659.828832 2.249248.828832 2.249248h.046988s.426741-1.2786821.828833-2.249248l3.458604-8.0056281h3.220584l1.089961 13.665722c.023108.3312248.189491.5207163.519946.5207163h.734857v2.6290011h-2.676759c-1.11307 0-1.492053-.4737286-1.586799-1.6106772l-.567704-7.4841415c-.094745-1.1130696-.023879-2.6043518-.023879-2.6043518h-.047758s-.496837 1.6576649-.923578 2.6043518l-2.794613 6.2054594h-2.511147l-2.793843-6.2054594c-.426741-.9466869-.923579-2.6290011-.923579-2.6290011h-.047758s.071637 1.5159315-.023879 2.6290011l-.544595 7.4841415c-.094746 1.1369486-.496837 1.6106772-1.6099069 1.6106772h-2.6767591z"/><path d="m126.365677 39.2704828c-.046987-1.4450647-1.042202-2.4395096-2.273126-2.4395096-1.539041 0-2.629002.9235781-2.960997 2.4395096zm-2.273126-4.7611649c3.457063 0 5.352747 2.5342554 5.352747 5.7317308 0 .3558742-.071637 1.1130697-.071637 1.1130697h-8.336853c.23802 2.1321638 1.800939 3.2452334 3.624217 3.2452334 1.942672 0 3.386967-1.3503191 3.386967-1.3503191l1.254803 2.0844059s-1.847927 1.8232773-4.855141 1.8232773c-4.002429 0-6.488926-2.8893592-6.488926-6.3240841 0-3.7181918 2.510376-6.3233139 6.133823-6.3233139z"/><path d="m140.221815 40.8096001c0-1.8710354-.970566-3.7181918-2.983335-3.7181918-1.657664 0-3.031863 1.3503191-3.031863 3.7413005 0 2.2977763 1.207816 3.7898288 2.983335 3.7898288 1.56369 0 3.031863-1.1361784 3.031863-3.8129375m-3.576458-6.3002052c2.629771 0 3.481712 1.4689438 3.481712 1.4689438h.047758s-.023879-.3081161-.023879-.7102077v-2.1321638c0-.3551039-.189491-.5214866-.520716-.5214866h-.947457v-2.5573642h2.866251c1.113069 0 1.609906.4976076 1.609906 1.6106773v12.1497904c0 .3312249.189492.5207163.520717.5207163h.923578v2.5342554h-2.769964c-1.089961 0-1.492823-.5214866-1.492823-1.2316943v-.4498496h-.046988s-.995215 1.9657811-3.76595 1.9657811c-3.268342 0-5.375856-2.5812432-5.375856-6.3240842 0-3.8360462 2.297006-6.3233139 5.493711-6.3233139"/><path d="m147.328823 32.8290064h2.605892v-2.7715048h-2.605892zm-.141734 5.0438616c0-.3551039-.188721-.5214866-.521487-.5214866h-.947457v-2.5573642h2.865481c1.113069 0 1.587568.4968373 1.587568 1.6106773v7.4132747c0 .3304546.189492.5207163.520716.5207163h.947458v2.5342555h-2.866251c-1.112299 0-1.586028-.4744989-1.586028-1.6106773z" mask="url(#a)"/><path d="m157.845212 44.8122601c1.609907 0 2.746856-1.705423 2.746856-3.1735965v-.2842371h-.519946c-1.56369 0-4.050187.2133704-4.050187 1.8949144 0 .8049534.590813 1.5629192 1.823277 1.5629192m2.321655-5.5183604h.378213v-.0947457c0-1.7285317-.687099-2.3678727-2.226139-2.3678727-.544596 0-1.611448.1417334-1.611448.8049534v.6393411h-2.793843v-1.2786821c0-2.2500182 3.173596-2.4872677 4.42917-2.4872677 4.026308 0 5.210244 2.1075145 5.210244 4.8073824v4.5008068c0 .3312248.189491.5207163.520716.5207163h.947457v2.5342554h-2.699867c-1.11384 0-1.539041-.6162323-1.539041-1.3264401 0-.3073458.023879-.5214866.023879-.5214866h-.048528s-.923578 2.1321638-3.646555 2.1321638c-2.156042 0-4.121053-1.350319-4.121053-3.7659497 0-3.7898288 5.210244-4.0971746 7.176795-4.0971746" mask="url(#a)"/><path d="m181.033726 29.7728023c4.121054 0 6.133823 2.1321638 6.133823 2.1321638l-1.753181 2.2253689s-1.752411-1.4912822-4.309775-1.4912822c-2.912468 0-5.399736 2.297006-5.399736 5.7078519 0 3.6704337 2.510377 5.920452 5.518361 5.920452 2.676759 0 4.262787-1.7524107 4.262787-1.7524107v-1.2555733c0-.3551039-.189492-.5207164-.520717-.5207164h-1.019094v-2.6290011h2.723747c1.136949 0 1.610677.4737286 1.610677 1.5867982v7.1760254h-2.65211v-.8049535c0-.3558742.023879-.710978.023879-.710978h-.047758s-1.799398 1.8001686-4.949886 1.8001686c-4.405291 0-8.17124-3.3630878-8.17124-8.7867025 0-4.8312614 3.671204-8.5972111 8.550223-8.5972111" mask="url(#a)"/><path d="m191.503359 37.872868c0-.3551039-.189491-.5214866-.520716-.5214866h-.947457v-2.5573642h2.746855c1.066082 0 1.611448.4498496 1.611448 1.4681735v.7109781c0 .4498496-.048529.7571954-.048529.7571954h.048529c.544595-1.7285316 1.98889-3.1019594 3.836046-3.1019594.260358 0 .544595.047758.544595.047758v2.9594557s-.308116-.0469877-.734087-.0469877c-1.278682 0-2.746855.7340867-3.29145 2.5342554-.166383.591583-.261129 1.2555733-.261129 1.9657811v4.7842737h-2.984105z" mask="url(#a)"/><path d="m206.211823 44.5993518c1.965781 0 3.600338-1.5167018 3.600338-3.76672 0-2.225369-1.634557-3.7651795-3.600338-3.7651795-1.941902 0-3.576458 1.5398105-3.576458 3.7651795 0 2.2500182 1.634556 3.76672 3.576458 3.76672m0-10.0900339c3.694313 0 6.63143 2.6290011 6.63143 6.3233139 0 3.718962-2.937117 6.3240841-6.63143 6.3240841-3.671204 0-6.607551-2.6051221-6.607551-6.3240841 0-3.6943128 2.936347-6.3233139 6.607551-6.3233139" mask="url(#a)"/><path d="m215.520783 37.872868c0-.3551039-.189492-.5214866-.520717-.5214866h-.947457v-2.5573642h2.86548c1.11384 0 1.587569.4968373 1.587569 1.5867983v5.5653481c0 1.4681735.378213 2.4633887 1.870265 2.4633887 2.179152 0 3.386967-1.9187934 3.386967-4.0740659v-5.5414692h3.007984v9.023952c0 .3304546.189491.5207163.520716.5207163h.948228v2.5342555h-2.771505c-1.042203 0-1.586798-.4976076-1.586798-1.3503191v-.3312249c0-.2842371.023879-.5453656.023879-.5453656h-.048529c-.567704 1.2555734-2.083635 2.5111467-4.167271 2.5111467-2.581243 0-4.168811-1.3033313-4.168811-4.5947822z" mask="url(#a)"/><path d="m236.577364 44.6226916c1.656895 0 3.054972-1.3503191 3.054972-3.7420707 0-2.2977763-1.231695-3.7890585-3.007984-3.7890585-1.56369 0-3.031863 1.1361783-3.031863 3.8129375 0 1.8710353.994445 3.7181917 2.984875 3.7181917zm-5.897343-6.7500547c0-.3551039-.189492-.5207163-.521487-.5207163h-.947457v-2.5581345h2.676759c1.112299 0 1.515161.4976076 1.515161 1.1608277v.4729583h.047758s1.018324-1.9180231 3.836817-1.9180231c3.267572 0 5.375856 2.5820134 5.375856 6.3233139 0 3.8375867-2.368643 6.3240841-5.541469 6.3240841-2.391751 0-3.458604-1.5875685-3.458604-1.5875685h-.046987s.046987.4267409.046987 1.0429732v4.9968738h-2.983334z" mask="url(#a)"/></g></g></svg>