<svg enable-background="new 0 0 120 52" viewBox="0 0 120 52" xmlns="http://www.w3.org/2000/svg" xmlns:xlink="http://www.w3.org/1999/xlink"><linearGradient id="a" gradientUnits="userSpaceOnUse" x1="83.4413" x2="120" y1="25.4083" y2="25.4083"><stop offset=".2" stop-color="#00a0df"/><stop offset=".5817" stop-color="#0063a5"/><stop offset=".9" stop-color="#003479"/></linearGradient><path d="m13.5 31.7v2.7h-.7v-1.2h-1v1.2h-.7v-2.7h.7v1h1v-1zm2.1 0 1 2.7h-.7l-.1-.4h-1l-.1.4h-.7l1-2.7zm-.4.7-.3 1.1h.7zm1.8-.7h1.2c.3 0 .6 0 .9.3.1.1.2.4.2.6 0 .5-.4.7-.6.7l.6 1.1h-.7l-.5-1h-.4v1h-.7zm.7.5v.8h.6c.1 0 .4 0 .4-.4 0-.3-.2-.4-.4-.4zm5.4-.5v2.7h-.6v-1.9-.3.1c0 .2 0 .2-.1.3l-.5 1.8h-.6l-.5-1.7-.1-.5v.5 1.7h-.7v-2.7h1l.4 1.5.1.4c0-.2 0-.2.1-.3l.4-1.6zm2.1 0 1 2.7h-.7l-.2-.4h-1l-.1.4h-.7l1-2.7zm-.4.7-.3 1.1h.7zm4.1 1.4c-.1.2-.2.3-.4.5-.1.1-.4.2-.8.2-.7 0-1.3-.5-1.3-1.4 0-.8.5-1.4 1.3-1.4.3 0 .6.1.8.3.2.1.3.3.4.4l-.5.3c0-.1-.1-.2-.2-.3s-.3-.1-.4-.1c-.4 0-.7.4-.7.9 0 .6.3.9.7.9s.5-.2.6-.4zm.4-2.1h2v.5h-1.3v.5h1.2v.5h-1.2v.6h1.4v.5h-2.1zm5.1 0v1.5c0 .3 0 .5-.2.8-.3.5-.9.5-1 .5-.2 0-.4-.1-.6-.1-.5-.3-.5-.7-.5-1.1v-1.5h.7v1.7c0 .1 0 .3.1.3.1.1.3.2.4.2.5 0 .5-.3.5-.5v-1.7h.6zm.4 0h2.1v.5h-.7v2.2h-.7v-2.2h-.7zm3.2 0v2.7h-.7v-2.7zm3.2 2.1c-.1.2-.2.3-.4.5-.1.1-.4.2-.8.2-.7 0-1.3-.5-1.3-1.4 0-.8.5-1.4 1.3-1.4.3 0 .6.1.8.3.2.1.3.3.4.4l-.5.3c0-.1-.1-.2-.2-.3s-.3-.1-.4-.1c-.4 0-.7.4-.7.9 0 .6.3.9.7.9s.5-.2.6-.4zm1.7-2.1 1 2.7h-.7l-.2-.4h-1l-.1.4h-.7l1-2.7zm-.4.7s-.3.9-.3 1.1h.7zm1.8-.7h.7v2.1h1v.6h-1.7zm5.7 2.1c-.1.2-.2.3-.4.5-.1.1-.4.2-.8.2-.7 0-1.3-.5-1.3-1.4 0-.8.5-1.4 1.3-1.4.3 0 .6.1.8.3.2.1.3.3.4.4l-.5.3c0-.1-.1-.2-.2-.3s-.3-.1-.4-.1c-.4 0-.7.4-.7.9 0 .6.3.9.7.9s.5-.2.6-.4zm1.7.7c-.9 0-1.3-.7-1.3-1.4s.5-1.4 1.3-1.4c.2 0 .3 0 .5.1.8.3.9 1.2.9 1.4 0 .5-.2.9-.5 1.1-.3.1-.6.2-.9.2zm.5-2.1c-.1-.1-.3-.2-.5-.2-.4 0-.7.4-.7.9 0 .6.4.9.7.9s.7-.2.7-.8c0-.3-.1-.6-.2-.8zm4.5-.7v2.7h-.6v-1.9-.3.1c0 .2 0 .2-.1.3l-.5 1.8h-.6l-.5-1.7-.1-.5v.5 1.7h-.7v-2.7h1l.4 1.5.1.4c0-.2 0-.2.1-.3l.4-1.6zm.9 0h1.1c.4 0 .8 0 1.1.3.1.2.2.4.2.6 0 .1 0 .3-.1.4-.2.5-.7.5-1.1.5h-.4v.9h-.7v-2.7zm.7.5v.8h.4c.3 0 .6 0 .6-.4s-.3-.4-.5-.4zm3.2-.5 1 2.7h-.7l-.1-.4h-1l-.1.4h-.7l1-2.7zm-.3.7c0 .1-.1.3-.1.4-.1.2-.2.5-.2.7h.7zm1.6-.7h.7l.6 1c.2.4.3.5.4.7v-1.7h.6v2.7h-.7l-.5-.9c-.2-.4-.3-.5-.5-.8v1.7h-.6zm3.9 0v2.7h-.7v-2.7zm.9 0h2v.5h-1.3v.5h1.2v.5h-1.2v.6h1.4v.5h-2.1zm3.1 1.9c.1.1.1.1.3.2s.4.1.5.1c.3 0 .5-.1.5-.3s-.3-.2-.5-.3c-.1 0-.3 0-.4-.1-.2 0-.7-.2-.7-.7 0-.7.6-.9 1.1-.9.6 0 1 .3 1.2.5l-.5.4c-.1-.1-.2-.2-.3-.2-.1-.1-.3-.1-.4-.1-.3 0-.4.2-.4.3 0 .2.2.2.3.3.3 0 .7.1.8.2.3.1.5.4.5.7 0 .2-.1.4-.2.6-.2.3-.6.4-1 .4-.8 0-1.1-.4-1.2-.5zm-62.4-1.9h1.1c.4 0 .8 0 1.1.3.1.2.2.4.2.6 0 .1 0 .3-.1.4-.2.5-.7.5-1.1.5h-.5v.9h-.7zm.7.5v.8h.4c.3 0 .6 0 .6-.4s-.3-.4-.5-.4zm66.7 2.3c-.9 0-1.3-.7-1.3-1.4s.5-1.4 1.3-1.4c.2 0 .3 0 .5.1.8.3.9 1.2.9 1.4 0 .5-.2.9-.5 1.1-.3.1-.6.2-.9.2zm.5-2.1c-.1-.1-.3-.2-.5-.2-.4 0-.7.4-.7.9 0 .6.4.9.7.9s.7-.2.7-.8c0-.3-.1-.6-.2-.8zm3.5-.7v.5h-1.4v.6h1.3v.5h-1.3v1.1h-.7v-2.7z" fill="#828282"/><path d="m11.1 37.7c0 .1-.2.4-.4 1.1s-.5 1.6-.5 2.8c0 .7.2 1.6.3 2.5l-.4.6c-.6-.8-1.1-1.7-1.1-3.3 0-2.2 1.4-3.8 2.1-3.7 0-.1 0-.1 0 0zm18.7 6.2c.1.2.1.4.1.6s-.1.4-.2.4-.2-.1-.2-.3c-.1-.2.1-.5.3-.7zm-19.1.9c.1.7.2 1.4.2 1.9 0 1.3-.4 2.7-1.1 2.7-.3 0-.5-.3-.5-.8-.1-1.5.6-2.8 1.4-3.8zm21.5-2.9c-.2.3-.4.8-.4 1.3 0 1.1.6 2.1 1.8 2.1s2-.9 2-2.2c0-.4 0-.4 0-.6.3-.1.5-.3.7-.4s.3-.2.4-.2.2.1.2.3v2.6c0 .4.1.6.5.6.3 0 .5-.2.6-.5.4-.9 1.1-2.1 1.3-2.6.1-.1.1-.2.2-.2s.1 0 .1.2v2c0 .6.3 1 .8 1 .6 0 .9-.6 1.4-1.5 0-.1 0-.1 0-.1 0-.1-.1-.2-.2-.2s-.2.1-.6.5c-.1.1-.2.2-.3.2s-.1-.1-.1-.1v-2.1c0-.6-.3-.9-.6-.9s-.5.1-.8.5c-.4.7-.9 1.6-1.2 2.1 0 .1-.1.1-.1.1s0 0 0-.1v-1.7c0-.5-.1-.9-.6-.9s-.8.4-1.2.6c-.2.2-.5.3-.6.4-.3-.7-.7-1-1.2-1-.4 0-.7.3-.7.7s.3.7.6.9c.2.1.4.1.6.1h.2v.5c0 .6-.4 1.3-1.1 1.3s-1.2-.7-1.2-1.5c0-.6.2-1.1.5-1.5.1-.1.2-.2.2-.3s-.1-.1-.2-.1c-.5 0-1 .2-1.4.4-.5.3-1.1.7-1.6 1.1-.2-.5-.5-1-.7-1.3-.1-.1-.1-.3-.2-.3s-.1.1-.2.3c-.2.7-1.5 2.7-1.8 3 0 0-.1.1-.1.1s0 0 0-.1v-2.4c0-.6-.2-.9-.6-.9-.3 0-.5.1-.8.5-.4.7-1 1.6-1.2 2.1 0 .1-.1.1-.1.1v-.1-1.7c0-.6-.2-.9-.6-.9-.3 0-.6.1-.8.5-.5.9-1.5 2.4-1.6 2.6 0 0-.1.1-.1.1s0 0 0-.1v-2.2c0-.6-.2-.9-.6-.9-.5 0-.7.4-.9.7-.2.4-.5.9-.8 1.4-.2.3-.3.6-.4.6 0 0 0-.1 0-.3v-1.7c.8-.9 1.3-2 1.3-3.3 0-.7-.3-1.1-.8-1.1-.9 0-1.6 1.4-1.6 3.1v1.4c-.4.3-.8.4-1.3.5-.2-.7-.8-1.1-1.2-1.1s-.7.3-.7.7c0 .7.7 1 1.3 1h.2v.4c0 .6-.4 1.3-1.1 1.3s-1.2-.7-1.2-1.5c0-.6.2-1.1.5-1.5.1-.1.2-.2.2-.3s-.1-.1-.2-.1c-.5 0-1.6.7-2.9 2 .2-1.3.1-2.3.1-3.3 0-1.1.2-2.1.3-2.3 0-.2 0-.3 0-.3 0-.1-.1-.2-.2-.2-1.1 0-3.4 1.7-3.4 4.2 0 1.8.7 2.7 1.8 3.8-.7 1.1-1.2 2.4-1.2 3.6 0 .9.2 1.5.8 1.5 1.3 0 2.3-2.7 2.3-4.7 0-.6 0-1.2-.1-1.8.5-.5 1.2-1.2 1.4-1.3-.1.3-.1.6-.1.8 0 1.1.6 2.1 1.8 2.1 1.1 0 2-.9 2-2.2 0-.2 0-.3 0-.5.4-.1.8-.2 1.2-.4v2.7c0 .3.2.5.5.5s.5-.2.7-.7c.2-.4.7-1.3 1-1.8.2-.4.4-.7.5-.7 0 0 .1.1.1.2v2.2c0 .6.3.8.6.8s.4-.1.6-.4c.7-1 1.4-2.1 1.7-2.6.1-.1.1-.2.2-.2s.1 0 .1.2v2.3c0 .4.1.6.5.6.3 0 .5-.2.6-.5.4-.9 1.1-2.1 1.3-2.6.1-.1.1-.2.2-.2s.1.1.1.2v2.2c0 .6.3.8.6.8.4 0 .6-.3.8-.6.4-.6 1.1-1.6 1.4-2.2.1.2.3.5.4.7-.3.4-.6.8-.6 1.3s.3.8.7.8c.6 0 1.1-.6 1.1-1.4 0-.3-.1-.6-.2-1 .3-.3.9-.8 1.4-1zm-13.3-1.9c0-2 .4-2.2.5-2.2.2 0 .2.1.2.9s-.3 1.8-.7 2.3zm-3.6 1.9c0-.1.1-.2.2-.2.2 0 .4.2.6.5-.6.1-.8 0-.8-.3zm18.9 0c0-.1.1-.2.2-.2.2 0 .4.2.6.5-.1 0-.1 0-.2 0-.3.1-.6-.1-.6-.3zm10.5 2.2c-.2 0-.4 0-.6 0-.5 0-.9-.2-.9-.5 0-.2.1-.3.4-.3.4 0 .8.3 1.1.8zm2.6.1c.2.3.5.6.9.9-.7 1.1-1.2 2.4-1.2 3.6 0 .9.2 1.5.8 1.5 1.3 0 2.3-2.7 2.3-4.7 0-.6 0-1.2-.1-1.8.5-.5 1.2-1.2 1.4-1.3-.1.3-.1.6-.1.8 0 1.1.6 2.1 1.8 2.1 1.1 0 2-.9 2-2.2 0-.2 0-.3 0-.5.4-.1.8-.2 1.2-.4v2.8c0 .3.2.5.5.5s.5-.2.7-.7c.2-.4.7-1.3 1-1.8.2-.4.4-.7.5-.7 0 0 .1.1.1.2v2.2c0 .6.3.8.6.8s.4-.1.6-.4c.7-1 1.4-2.1 1.7-2.6.1-.1.1-.2.2-.2s.1 0 .1.2v2.3c0 .4.1.6.5.6.3 0 .5-.2.6-.5.4-.9 1.1-2.1 1.3-2.6.1-.1.1-.2.2-.2 0 0 .1.1.1.2v2.2c0 .6.3.8.6.8.4 0 .6-.3.8-.6.4-.6 1.1-1.6 1.4-2.2.1.2.3.5.4.7-.3.4-.6.8-.6 1.3s.3.8.7.8c.6 0 1.1-.6 1.1-1.4 0-.3-.1-.6-.2-1 .5-.5 1.2-1 1.6-1.2-.2.3-.4.8-.4 1.3 0 1.1.6 2.1 1.8 2.1s2-.9 2-2.2c0-.4 0-.4 0-.6.3-.1.5-.3.7-.4-.1.1 0 .1.1.1s.2.1.2.3v2.6c0 .4.1.6.5.6.3 0 .5-.2.6-.5.4-.9 1.1-2.1 1.3-2.6.1-.1.1-.2.2-.2s.1 0 .1.2v2c0 .6.3 1 .8 1 .6 0 .9-.6 1.4-1.5 0-.1 0-.1 0-.1 0-.1-.1-.2-.2-.2s-.2.1-.6.5c-.1.1-.2.2-.3.2s-.1-.1-.1-.1v-2.2c0-.6-.3-.9-.6-.9s-.5.1-.8.5c-.4.7-.9 1.6-1.2 2.1 0 .1-.1.1-.1.1s0 0 0-.1v-1.7c0-.5-.1-.9-.6-.9s-.8.4-1.2.6c-.2.2-.5.3-.6.4-.3-.7-.7-1-1.1-1s-.7.3-.7.7.3.7.6.9c.2.1.4.1.6.1h.2v.5c0 .6-.4 1.3-1.1 1.3s-1.2-.7-1.2-1.5c0-.6.2-1.1.5-1.5.1-.1.2-.2.2-.3s-.1-.1-.2-.1c-.5 0-1 .2-1.4.4-.5.3-1.1.7-1.6 1.1-.2-.5-.5-1-.7-1.3.1-.2.1-.4-.1-.4-.1 0-.1.1-.2.3-.2.7-1.5 2.7-1.8 3 0 0-.1.1-.1.1s0 0 0-.1v-2.3c0-.6-.3-.9-.6-.9s-.5.1-.8.5c-.4.7-1 1.6-1.2 2.1 0 .1-.1.1-.1.1v-.1-1.7c0-.6-.2-.9-.6-.9-.3 0-.6.1-.8.5-.6.9-1.5 2.4-1.6 2.6 0 0 0 .1-.1.1 0 0 0 0 0-.1v-2.2c0-.6-.3-.9-.6-.9-.5 0-.7.4-.9.7-.2.4-.5.9-.8 1.4-.2.3-.3.6-.4.6 0 0 0-.1 0-.3v-1.7c.8-.9 1.3-2 1.3-3.3 0-.7-.3-1.1-.8-1.1-.9 0-1.6 1.4-1.6 3.1v1.4c-.4.3-.8.4-1.3.5-.2-.7-.8-1.1-1.2-1.1s-.7.3-.7.7c0 .7.7 1 1.3 1h.2v.4c0 .6-.4 1.3-1.1 1.3s-1.2-.7-1.2-1.5c0-.6.2-1.1.5-1.5.1-.1.2-.2.2-.3s-.1-.1-.2-.1c-.5 0-1.6.7-2.9 2 .1-1.3-.1-2.3-.1-3.3 0-1.1.2-2.1.3-2.3 0-.2 0-.3 0-.3 0-.1-.1-.2-.2-.2-1.1 0-3.4 1.7-3.4 4.2 0 1 .2 1.8.6 2.4-.1 0-.3 0-.4 0-.4 0-.8.1-1.1.2v-.3c0-.6-.1-1.3-.4-1.6h-.1c-.1 0-.2.1-.4.1-.2.1-.3.2-.3.2v.1c.1.1.3.4.4 1-.4-.4-1-.6-1.6-.6-.8 0-1 .4-1 .7 0 .7.9 1 2 1 .2 0 .4 0 .7-.1v.6c0 .2 0 .4.2.4s.4-.4.4-1.1c.4-.1.8-.2 1.2-.2.4-.1.6 0 .8 0zm2.2-6.5c0 .1-.2.4-.4 1.1s-.5 1.6-.5 2.8c0 .7.2 1.6.3 2.5l-.4.6c-.7-.8-1.1-1.7-1.1-3.3 0-2.2 1.3-3.8 2.1-3.7 0-.1 0-.1 0 0zm18.6 6.2c.1.2.1.4.1.6s-.1.4-.2.4-.2-.1-.2-.3.2-.5.3-.7zm-19.1.9c.1.7.2 1.4.2 1.9 0 1.3-.4 2.7-1.1 2.7-.3 0-.5-.3-.5-.8-.1-1.5.7-2.8 1.4-3.8zm8.3-4.8c0-2 .4-2.2.5-2.2.2 0 .2.1.2.9s-.3 1.8-.7 2.3zm-3.7 1.9c0-.1.1-.2.2-.2.2 0 .4.2.6.5-.5.1-.8 0-.8-.3zm18.9 0c0-.1.1-.2.2-.2.2 0 .4.2.6.5-.1 0-.1 0-.2 0-.3.1-.6-.1-.6-.3z" fill="#f30617"/><path d="m0 30.5v-1.5c1.5-.5 2.6-1.9 2.6-4.9v-13.4h2.3v13.2c0 4-2.4 6.3-4.9 6.6zm13.4-5.5c-3.7 0-5.4-1.6-5.4-4.2 0-3.7 3.5-4.8 7.8-5.3v-.9c0-2.2-1.3-2.8-3.1-2.8-1.4 0-2.6.5-3.4.9l-.5-1.4c.8-.4 2.4-1 4.3-1 2.6 0 4.9 1.1 4.9 4.6v9c-1.1.7-2.7 1.1-4.6 1.1zm2.5-8.3c-3.5.4-5.6 1.2-5.6 4 0 2 1.2 2.9 3.3 2.9.9 0 1.7-.2 2.3-.5zm13.7 8v-10.1c0-1.3-.5-2.7-2.9-2.7-1.3 0-1.9.2-2.7.5v12.3h-2.3v-13.3c1.2-.6 2.9-1 5.1-1 3.9 0 5.1 2.2 5.1 4.2v10.1zm8.7.2c-1.5 0-2.8-.4-3.6-1l.6-1.5c.5.4 1.5.8 2.7.8 1.6 0 2.6-1.1 2.6-2.4 0-1.5-.8-2.1-2.3-2.7-2.7-1-3.3-2.5-3.3-3.9 0-2.1 1.6-3.9 4.2-3.9 1.4 0 2.6.5 3.3 1l-.5 1.4c-.4-.3-1.3-.8-2.3-.8-1.5 0-2.3 1-2.3 2.2 0 1.4 1 2 2.3 2.5 2.7 1 3.4 2.5 3.4 4.1-.1 2.2-1.9 4.2-4.8 4.2zm10.3 0c-1.5 0-2.8-.4-3.6-1l.6-1.5c.5.4 1.5.8 2.7.8 1.6 0 2.6-1.1 2.6-2.4 0-1.5-.8-2.1-2.3-2.7-2.7-1-3.3-2.5-3.3-3.9 0-2.1 1.6-3.9 4.2-3.9 1.4 0 2.6.5 3.3 1l-.6 1.4c-.4-.3-1.2-.7-2.3-.7-1.5 0-2.3 1-2.3 2.2 0 1.4 1 2 2.3 2.5 2.7 1 3.4 2.5 3.4 4.1 0 2.1-1.9 4.1-4.7 4.1zm9.4-6.3c.3 3.2 1.7 4.7 4.3 4.7 1.6 0 2.7-.4 3.5-.8l.6 1.5c-.9.5-2.3 1-4.2 1-3.7 0-6.2-2.3-6.2-7.3 0-4.8 2.3-7.2 5.7-7.2s5.4 2.2 5.3 6.9zm3.4-6.7c-2 0-3.5 1.6-3.5 5.4l6.7-1c0-3.1-1.2-4.4-3.2-4.4zm16.5 12.8v-10.1c0-1.3-.5-2.7-2.9-2.7-1.3 0-1.9.2-2.7.5v12.3h-2.3v-13.3c1.3-.6 2.9-1 5.1-1 3.9 0 5.1 2.2 5.1 4.2v10.1z" fill="#003479"/><path d="m110.6 10.3s-4.9.9-12.8-.3c-7.1-1-13.7-5.7-14.4-10 0 0 2.9 3.9 13.9 5.6 0 0 3.6.5 8.8.5 3.4 0 4.5 4.2 4.5 4.2zm9.4 3.4c-4.7-.1-21.6-.6-21.6-.6 1.6 2.5 3.2 6.8 3.2 11.6 0 11.7-5.1 20.4-11.7 26.2 11.2-2.3 19.7-14.7 19.7-28 0-1.1 0-2.2-.1-3.1l8.6-2.9c1.1-.4 1.8-1 1.8-2 .1-.9.1-1.2.1-1.2z" fill="url(#a)"/></svg>