<svg height="65" viewBox="0 0 247 65" width="247" xmlns="http://www.w3.org/2000/svg" xmlns:xlink="http://www.w3.org/1999/xlink"><linearGradient id="a" x1="49.713235%" x2="49.713235%" y1="100.000155%" y2="-.004043%"><stop offset="0" stop-color="#efff62"/><stop offset=".5" stop-color="#86e7ca" stop-opacity=".99"/><stop offset="1" stop-color="#2362e0"/></linearGradient><g fill="none" fill-rule="evenodd"><g fill="#000"><g transform="translate(192 8)"><path d="m.35506329 7.93375v-7.651875c.10443038-.020625.24367089-.034375.4107595-.034375.1670886 0 .32025316.01375.44556962.034375v7.651875c-.13227849.020625-.27848102.034375-.44556962.034375-.16708861 0-.30632912-.006875-.4107595-.034375z"/><path d="m7.62341772 4.351875c0-.446875-.06265823-.77-.17405063-.9625-.11835443-.1925-.30632912-.28875-.57088608-.28875-.25759493 0-.5221519.075625-.80063291.23375s-.51518987.37125-.71012658.639375v3.966875c-.11139241.020625-.25063291.034375-.41772152.034375s-.30632911-.01375-.41772152-.034375v-5.45875l.06962025-.075625h.32025317c.18101266 0 .29936709.048125.36202532.1375.06265822.09625.09050632.240625.09050632.44v.171875c.48037975-.53625 1.03037975-.804375 1.65696203-.804375s1.05822785.281875 1.28101266.83875c.61962025-.56375 1.23227848-.83875 1.83797467-.83875.4734177 0 .835443.158125 1.0651899.474375.2367088.31625.3550633.735625.3550633 1.25125v2.805c0 .42625.0417721.7425.1392405.955625-.1253165.116875-.3063291.17875-.536076.17875-.285443 0-.4316455-.185625-.4316455-.55v-3.114375c0-.446875-.0556962-.77-.1740507-.955625-.1183544-.1925-.3063291-.28875-.57088605-.28875-.25759493 0-.52215189.075625-.79367088.226875s-.51518988.3575-.72405063.625625v3.9875c-.11139241.020625-.25063292.034375-.41772152.034375-.16708861 0-.30632912-.01375-.41772152-.034375v-3.595625z"/><path d="m15.4835443 7.569375v2.220625c0 .199375-.0278481.34375-.0905063.433125-.0626583.0825-.1810127.130625-.3620253.130625h-.3063292l-.0696202-.06875v-7.81l.0696202-.06875h.2924051c.1810127 0 .3063291.048125.3689873.1375.0626583.089375.0974684.2475.0974684.45375v.055c.4525316-.501875.9955696-.749375 1.6221519-.749375.6405063 0 1.1278481.254375 1.4550633.77s.4873418 1.216875.4873418 2.124375c0 .44-.0556962.83875-.1740507 1.189375-.1183544.350625-.271519.64625-.4664557.89375-.1949367.240625-.4177215.42625-.6683544.556875s-.5082278.199375-.7727848.199375c-.5151899-.01375-1.0094937-.165-1.4829114-.4675zm0-3.64375v2.8875c.4594937.336875.8911392.50875 1.3018987.50875s.7449367-.17875 1.0094937-.543125c.264557-.3575.3968355-.900625.3968355-1.629375 0-.3575-.0348102-.67375-.0974684-.935s-.1462025-.488125-.2575949-.66c-.1044304-.17875-.2297469-.309375-.3689874-.391875s-.285443-.130625-.4455696-.130625c-.2993671 0-.5917722.075625-.8563291.23375-.271519.158125-.5012658.378125-.6822785.66z" fill-rule="nonzero"/><path d="m21.2481013 2.825625c.0556962-.1925.1740506-.350625.3620253-.4675.4246835.158125.6962025.488125.8145569.996875.3132912-.66.814557-.983125 1.5177216-.983125.1601265 0 .3341772.01375.5221519.048125 0 .323125-.0626583.584375-.1949367.78375-.0905064-.006875-.2227849-.01375-.3968355-.01375-.6126582 0-1.0721519.336875-1.385443 1.0175v3.733125c-.1113924.020625-.257595.034375-.4177215.034375-.1670887 0-.3063292-.01375-.4177216-.034375v-3.966875c.0069621-.515625-.1253164-.89375-.4037974-1.148125z"/><path d="m29.8740506 7.48c-.4037974.39875-.9259493.59125-1.5664557.59125-.3759493 0-.7101265-.06875-1.0025316-.213125s-.536076-.336875-.7379747-.59125c-.2018987-.2475-.3550633-.55-.4525316-.9075-.1044304-.3575-.1531646-.7425-.1531646-1.16875s.0487342-.818125.1531646-1.16875c.1044303-.3575.2506329-.66.4525316-.914375s.4455696-.45375.7379747-.59125c.2924051-.144375.6265823-.213125 1.0025316-.213125.3759494 0 .7170886.06875 1.0025317.213125.285443.144375.5360759.34375.7379747.59125.2018987.254375.3550633.556875.4594936.914375.1044304.3575.1601266.7425.1601266 1.16875 0 1.00375-.2575949 1.766875-.7936709 2.289375zm-1.5594936-.061875c.4873417 0 .8563291-.20625 1.113924-.611875s.3829114-.94875.3829114-1.6225c0-.295625-.0278481-.584375-.0835443-.859375s-.1462025-.50875-.264557-.715c-.1183544-.20625-.278481-.37125-.4664557-.488125-.1879746-.116875-.4177215-.17875-.6822784-.17875-.257595 0-.4803798.055-.6683545.171875s-.3411392.275-.4594936.474375c-.1183545.199375-.2088608.44-.264557.715s-.0835443.56375-.0835443.88.0278481.605.0835443.873125.1462025.501875.264557.708125c.1183544.199375.2715189.3575.4594936.474375.1740507.12375.4037975.17875.6683545.17875z" fill-rule="nonzero"/><path d="m34.5316456 7.21875 1.5177215-4.785c.1183544-.0275.2297468-.048125.3341772-.048125s.2436709.020625.4246835.06875l.0208861.034375c-.6962025 2.138125-1.3158228 3.953125-1.8588607 5.445-.1531646.034375-.3341773.055-.543038.055-.2088608 0-.3550633-.034375-.4386076-.09625-.0765823-.061875-.1601266-.213125-.2436709-.44l-1.6917721-4.956875c.1949367-.09625.3689873-.144375.5082278-.144375.2158228 0 .3620253.11.4177215.323125l.9050633 2.6675c.2297469.70125.4037975 1.299375.536076 1.780625.020886.06875.0556962.09625.1113924.09625z"/><path d="m39.9724684 3.20375v4.73c-.1185877.020625-.2742339.034375-.4447036.034375-.1778814 0-.3261159-.01375-.4447035-.034375v-4.324375c0-.20625-.0370586-.350625-.1111759-.42625-.0741172-.075625-.2001166-.11-.3854097-.11h-.1111759c-.0296469-.0825-.0518821-.185625-.0518821-.3025s.0148235-.226875.0518821-.31625c.1556462-.01375.2816456-.0275.3705863-.04125.0963524-.01375.1704697-.01375.2297635-.01375h.0963524c.2519987 0 .4447035.075625.5855263.22s.2149401.34375.2149401.584375zm-1.1858761-2.688125c.1259993-.075625.3112924-.11.5558794-.11.2297635 0 .3928214.034375.4817621.103125.0889408.06875.1334111.20625.1334111.42625s-.0444703.3575-.1482345.433125-.2519987.103125-.4669387.103125c-.1927049 0-.3483511-.0275-.4669387-.0825s-.1778814-.20625-.1778814-.45375c0-.17875.0296469-.31625.0889407-.419375z" fill-rule="nonzero"/><path d="m47.2094937 4.090625v2.7775c0 .42625.0417721.7425.1253164.955625-.1183544.116875-.2993671.17875-.5360759.17875-.2854431 0-.4316456-.185625-.4316456-.55v-3.1075c0-.45375-.0556962-.776875-.1670886-.969375s-.3272152-.28875-.6474684-.28875c-.299367 0-.6126582.0825-.9398734.240625s-.5987341.37125-.8145569.625625v3.980625c-.1113924.020625-.2506329.034375-.4177216.034375-.1670886 0-.3063291-.01375-.4177215-.034375v-5.4725l.0696203-.06875h.3202531c.1810127 0 .2993671.048125.3620254.1375.0626582.09625.0905063.240625.0905063.44v.158125c.2575949-.240625.556962-.433125.9050633-.5775.3481012-.144375.6962025-.22 1.0443038-.22.5082278 0 .8772152.158125 1.113924.48125.2227848.336875.3411393.75625.3411393 1.27875z"/><path d="m53.5867089 2.90125c.1044303-.26125.3063291-.446875.6056962-.55.1810126.103125.3063291.2475.3759493.44-.2088607.199375-.3202531.605-.3202531 1.203125v3.52c0 .5225-.0487342.969375-.1462026 1.33375-.0905063.364375-.2297468.666875-.4107595.89375-.1810126.23375-.4107595.39875-.6753164.501875-.271519.103125-.5778481.158125-.9398734.158125-.7101266 0-1.364557-.130625-1.9493671-.378125.006962-.26125.0835443-.48125.2367088-.653125.5082279.240625 1.0234178.3575 1.5525317.3575.3063291 0 .55-.04125.7518987-.12375.1949367-.0825.3550633-.199375.4734177-.3575.1183545-.158125.2018988-.34375.2436709-.56375.0487342-.22.0696203-.4675.0696203-.7425v-.653125c-.4943038.495-1.0443038.7425-1.656962.7425-.6126583 0-1.086076-.254375-1.4202532-.75625s-.5012658-1.21-.5012658-2.110625c0-.45375.0556962-.859375.1740506-1.216875s.271519-.653125.4734177-.89375c.1949367-.240625.4246836-.42625.6822785-.556875s.5291139-.1925.814557-.1925c.5778481-.006875 1.1.199375 1.5664557.598125zm-.1322785 3.581875v-2.915c-.2158228-.185625-.4386076-.33-.6683545-.42625-.2297468-.09625-.4386075-.144375-.6474683-.144375-.4246835 0-.7588608.185625-1.0164557.543125-.2575949.364375-.3829114.914375-.3829114 1.63625s.1113924 1.258125.3341772 1.60875.4943038.5225.807595.5225c.3132911 0 .6126582-.075625.8841772-.23375.271519-.1375.5012658-.34375.6892405-.59125z" fill-rule="nonzero"/></g><g transform="translate(192 25)"><path d="m.378 7.76666667-.07-.06666667v-7.29333333l.07-.06666667 2.226-.03333333c.826 0 1.435.17333333 1.82.51333333s.574.82.574 1.44c0 .35333333-.098.67333333-.294.94666667-.196.28-.469.47333333-.819.59333333.203.06.399.14666667.581.26s.343.26.483.43333333c.14.17333334.245.36666667.322.58666667s.112.46.112.72666667c0 .25333333-.049.5-.154.74s-.259.45333333-.476.64c-.217.18666666-.49.33333333-.819.44666666-.329.11333334-.735.16666667-1.197.16666667zm.805-6.78666667v2.53333333h1.4c.28 0 .518-.03333333.714-.1.196-.06666666.35-.16.469-.27333333s.203-.25333333.252-.40666667c.049-.15333333.077-.31333333.077-.49333333 0-.84-.49-1.25333333-1.47-1.25333333-.343 0-.63 0-.868 0-.245.00666666-.434 0-.574-.00666667zm0 6.14 1.617-.01333333c.322 0 .588-.04.798-.12666667s.385-.19333333.511-.32c.126-.13333333.217-.28666667.266-.46.056-.17333333.077-.36.077-.54666667 0-.16-.028-.32666666-.091-.5-.063-.17333333-.161-.32666666-.294-.47333333-.14-.14-.315-.26-.539-.35333333-.224-.09333334-.497-.14-.826-.14h-1.519z" fill-rule="nonzero"/><path d="m7.98 6.16666667v-2.70666667c0-.38666667-.049-.69333333-.14-.92666667.133-.11333333.308-.17333333.539-.17333333.287 0 .434.18.434.53333333v3.01333334c0 .45333333.063.77333333.182.95333333s.336.27333333.637.27333333.616-.08.945-.23333333.602-.36.819-.60666667v-3.86c.042-.01333333.105-.02666666.182-.03333333s.154-.01333333.238-.01333333.161.00666666.231.01333333.133.02.189.03333333v3.82666667c0 .58.105.96666667.322 1.16-.07.2-.196.34-.385.41333333-.371-.11333333-.616-.38666666-.721-.80666666-.259.24666666-.567.44666666-.931.6-.364.15333333-.728.22666666-1.092.22666666-.511 0-.882-.15333333-1.113-.46666666-.217-.30666667-.336-.71333334-.336-1.22z"/><path d="m14.658 7.35333333c.007-.22666666.119-.42.329-.58666666.343.18666666.651.32.924.39333333s.518.10666667.735.10666667c.189 0 .357-.02666667.497-.07333334.14-.04666666.259-.10666666.364-.18666666.098-.07333334.175-.16.231-.25333334.056-.09333333.084-.18666666.091-.28 0-.22-.07-.4-.21-.54666666-.14-.14666667-.35-.27333334-.623-.37333334l-.644-.24c-.49-.18-.854-.39333333-1.099-.63333333s-.364-.53333333-.364-.87333333c0-.22666667.049-.42666667.147-.61333334.098-.18666666.238-.34.413-.47333333s.378-.23333333.616-.30666667c.238-.07333333.497-.10666666.777-.10666666.56 0 1.127.12 1.687.36 0 .25333333-.084.46666666-.266.63333333-.287-.12-.553-.21333333-.791-.26-.238-.05333333-.455-.07333333-.658-.07333333-.35 0-.616.07333333-.791.22666666-.175.15333334-.266.32666667-.266.52 0 .21333334.07.37333334.203.49333334s.357.23333333.651.34l.672.25333333c.945.35333333 1.414.88 1.414 1.57333333 0 .48666667-.196.86-.581 1.13333334-.385.27333333-.91.4-1.575.4-.644-.01333334-1.274-.19333334-1.883-.55333334z"/><path d="m22.2285 3.18v4.58666667c-.1192344.02-.2757297.03333333-.4471292.03333333-.1788517 0-.3278947-.01333333-.4471292-.03333333v-4.19333334c0-.2-.0372607-.34-.1117823-.41333333-.0745215-.07333333-.2012081-.10666667-.3875119-.10666667h-.1117823c-.0298086-.08-.0521651-.18-.0521651-.29333333s.0149043-.22.0521651-.30666667c.1564952-.01333333.2831818-.02666666.3726076-.04.096878-.01333333.1713995-.01333333.2310168-.01333333h.096878c.2533732 0 .4471292.07333333.5887201.21333333.1415909.13333334.2161124.32666667.2161124.56666667zm-1.1923445-2.61333333c.1266866-.07333334.3129904-.10666667.5589115-.10666667.2310167 0 .3949641.03333333.4843899.1.0894259.06666667.1341388.2.1341388.41333333 0 .21333334-.0447129.34666667-.1490431.42-.1043301.07333334-.2533732.1-.4694856.1-.193756 0-.3502512-.02666666-.4694857-.08-.1192344-.05333333-.1788516-.2-.1788516-.44 0-.16666666.0298086-.30666666.0894258-.40666666z" fill-rule="nonzero"/><path d="m29.505 4.03333333v2.69333334c0 .41333333.042.72.126.92666666-.119.11333334-.301.17333334-.539.17333334-.287 0-.434-.18-.434-.53333334v-3.01333333c0-.44-.056-.75333333-.168-.94s-.329-.28-.651-.28c-.301 0-.616.08-.945.23333333-.329.15333334-.602.36-.819.60666667v3.86c-.112.02-.252.03333333-.42.03333333s-.308-.01333333-.42-.03333333v-5.30666667l.07-.06666666h.322c.182 0 .301.04666666.364.13333333.063.09333333.091.23333333.091.42666667v.15333333c.259-.23333333.56-.42.91-.56s.7-.21333333 1.05-.21333333c.511 0 .882.15333333 1.12.46666666.224.32666667.343.73333334.343 1.24z"/><path d="m36.589 5.34h-3.535c.035 1.23333333.532 1.84666667 1.47 1.84666667.518 0 1.071-.15333334 1.652-.45333334.168.14666667.266.33333334.308.55333334-.623.40666666-1.323.60666666-2.1.60666666-.399 0-.735-.07333333-1.015-.21333333s-.511-.34-.693-.58666667c-.182-.25333333-.308-.54666666-.392-.88666666s-.126-.71333334-.126-1.12c0-.41333334.049-.78666667.154-1.13333334.105-.34.252-.63333333.448-.88.196-.24666666.434-.44.714-.57333333s.595-.20666667.952-.20666667c.35 0 .665.06.945.18s.511.28.693.48666667c.189.20666667.329.45333333.427.74s.147.59333333.147.92c0 .13333333-.007.25333333-.014.37333333-.007.12666667-.021.24-.035.34666667zm-3.535-.62h2.73v-.14c0-.5-.112-.9-.329-1.20666667-.217-.30666666-.553-.45333333-.987-.45333333s-.77.16666667-1.008.48666667c-.245.32666666-.378.76-.406 1.31333333z" fill-rule="nonzero"/><path d="m38.451 7.35333333c.007-.22666666.119-.42.329-.58666666.343.18666666.651.32.924.39333333s.518.10666667.742.10666667c.189 0 .357-.02666667.497-.07333334.14-.04666666.259-.10666666.364-.18666666s.175-.16.231-.25333334c.056-.09333333.084-.18666666.091-.28 0-.22-.07-.4-.21-.54666666-.14-.14666667-.35-.27333334-.623-.37333334l-.644-.24c-.49-.18-.854-.39333333-1.099-.63333333s-.364-.53333333-.364-.87333333c0-.22666667.049-.42666667.147-.61333334.098-.18666666.238-.34.413-.47333333s.378-.23333333.616-.30666667c.238-.07333333.497-.10666666.777-.10666666.56 0 1.127.12 1.687.36 0 .25333333-.084.46666666-.266.63333333-.287-.12-.553-.21333333-.791-.26-.238-.05333333-.462-.07333333-.658-.07333333-.35 0-.616.07333333-.791.22666666-.182.15333334-.266.32666667-.266.52 0 .21333334.07.37333334.203.49333334s.35.23333333.651.34l.672.25333333c.945.35333333 1.414.88 1.414 1.57333333 0 .48666667-.196.86-.581 1.13333334-.385.27333333-.91.4-1.575.4-.651-.01333334-1.281-.19333334-1.89-.55333334z"/><path d="m44.443 7.35333333c.007-.22666666.119-.42.329-.58666666.343.18666666.651.32.924.39333333s.518.10666667.742.10666667c.189 0 .357-.02666667.497-.07333334.14-.04666666.259-.10666666.364-.18666666s.175-.16.231-.25333334c.056-.09333333.084-.18666666.091-.28 0-.22-.07-.4-.21-.54666666-.14-.14666667-.35-.27333334-.623-.37333334l-.644-.24c-.49-.18-.854-.39333333-1.099-.63333333s-.364-.53333333-.364-.87333333c0-.22666667.049-.42666667.147-.61333334.098-.18666666.238-.34.413-.47333333s.378-.23333333.616-.30666667c.238-.07333333.497-.10666666.777-.10666666.56 0 1.127.12 1.687.36 0 .25333333-.084.46666666-.266.63333333-.287-.12-.553-.21333333-.791-.26-.238-.05333333-.462-.07333333-.658-.07333333-.35 0-.616.07333333-.791.22666666-.182.15333334-.266.32666667-.266.52 0 .21333334.07.37333334.203.49333334s.35.23333333.651.34l.672.25333333c.945.35333333 1.414.88 1.414 1.57333333 0 .48666667-.196.86-.581 1.13333334-.385.27333333-.91.4-1.575.4-.658-.01333334-1.281-.19333334-1.89-.55333334z"/></g><g transform="translate(192 41)"><g fill-rule="nonzero"><path d="m4.52447761 8.45647059c-.10298507.0917647-.23343283.17647059-.37761194.24705882-.15104477.07058824-.30895522.13411765-.47373134.18352941-.16477612.04941177-.33641791.08470589-.50119403.11294118s-.3158209.04235294-.43940299.04235294c-.13731343 0-.39820895-.00705882-.78268656-.01411765-.39134329-.00705882-.91313433-.02117647-1.56537314-.03529411l-.06865671-.07058824v-7.72235294l.06865671-.07058824c.65223881-.02117647 1.40746269-.03529411 2.27253732-.03529411.58358208 0 1.0641791.10588235 1.45552238.31058823.38447762.20470588.70029851.48705883.93373135.84705883.23343283.36.39820895.77647058.49432835 1.26352941.09611941.48705882.14417911 1.00941176.14417911 1.56 0 .38117647-.02059702.74117647-.0480597 1.06588235-.02746269.32470588-.09611941.62823529-.18537314.90352941s-.20597015.52941177-.35701492.76235294c-.15791045.24705883-.34328358.45882353-.56985075.64941177zm-3.3641791-.1482353 1.4761194.01411765c.42567164 0 .7758209-.08470588 1.05044776-.26117647.27462687-.17647059.49432836-.40235294.65223881-.68470588s.27462686-.60705883.33641791-.96c.06179104-.35294118.0961194-.70588235.0961194-1.06588235 0-.51529412-.02746269-.9882353-.08238806-1.41882353-.05492537-.43058824-.15791045-.80470589-.32268657-1.11529412-.16477612-.31058824-.39134328-.55764706-.67970149-.72705883-.28835821-.17647058-.64537313-.26117647-1.05044776-.26117647l-1.4761194-.01411764z"/><path d="m9.45059701 4.14352941v4.85647059c-.11750861.02117647-.26439437.03529412-.44065729.03529412-.17626291 0-.32314868-.01411765-.44065729-.03529412v-4.44c0-.21176471-.03672144-.36-.11016432-.43764706s-.19829578-.11294118-.38190298-.11294118h-.11016433c-.02937715-.08470588-.04406573-.19058823-.04406573-.31058823s.01468858-.23294118.04406573-.32470588c.15423006-.01411765.27908295-.0282353.3745587-.04235294.09547575-.01411765.16891863-.01411765.22767293-.01411765h.09547575c.2497058 0 .44065729.07764706.58019877.22588235.13954147.1482353.20564006.34588235.20564006.6zm-1.1750861-2.76705882c.1248529-.07764706.3084601-.11294118.55082161-.11294118.23501722 0 .38924727.03529412.47737873.10588235.08813146.07058824.13219719.21176471.13219719.43764706 0 .22588236-.04406573.36705883-.14688576.44470589-.10282004.07764705-.2497058.10588235-.47003445.10588235-.19095149 0-.34518154-.0282353-.46269015-.08470588-.11750861-.05647059-.17626292-.21176471-.17626292-.46588236.01468858-.17647058.03672144-.31764706.09547575-.43058823z"/><path d="m15.6743284 3.83294118c.102985-.2682353.3020895-.45882353.5973134-.56470589.1785075.10588236.3020895.25411765.3707463.45176471-.2059702.20470588-.3158209.62117647-.3158209 1.23529412v3.61411764c0 .53647059-.0480597.99529412-.1441791 1.36941177-.0892538.37411767-.2265672.68470587-.4050747.91764707-.1785074.24-.4050746.4094118-.6659701.5152941-.2677612.1058824-.5698508.1623529-.9268657.1623529-.7002985 0-1.3456716-.1341176-1.922388-.3882352.0068656-.2682353.082388-.4941177.2334328-.6705883.501194.2470588 1.0092537.3670588 1.5310448.3670588.3020895 0 .542388-.0423529.7414925-.1270588.1922388-.0847059.3501493-.2047059.4668657-.3670588s.1991045-.35294118.2402985-.57882354c.0480597-.22588235.0686567-.48.0686567-.76235294v-.67058823c-.4874627.50823529-1.0298507.76235294-1.6340299.76235294-.6041791 0-1.0710447-.26117647-1.400597-.77647059-.3295522-.51529412-.4943283-1.24235294-.4943283-2.16705882 0-.46588236.0549253-.88235294.1716418-1.24941177.1167164-.36705882.2677612-.67058823.4668656-.91764706.1922388-.24705882.418806-.43764705.6728359-.5717647.2540298-.13411765.521791-.19764706.8032835-.19764706.5629851-.00705882 1.0779105.19764706 1.5447762.61411765zm-.1373135 3.67764706v-2.99294118c-.2128358-.19058824-.4325373-.33882353-.6591045-.43764706-.2265671-.09882353-.4325373-.14823529-.6385074-.14823529-.418806 0-.7483582.19058823-1.0023881.55764705-.2540298.37411765-.3776119.93882353-.3776119 1.68 0 .74117648.1098507 1.29176471.3295522 1.65176471s.4874627.53647059.7964179.53647059c.3089553 0 .6041791-.07764706.8719403-.24.2677612-.1482353.4943284-.35294118.6797015-.60705882z"/><path d="m20.3807463 4.14352941v4.85647059c-.1169464.02117647-.2704385.03529412-.4385489.03529412-.1754196 0-.3216025-.01411765-.4385489-.03529412v-4.44c0-.21176471-.0365457-.36-.1096372-.43764706s-.197347-.11294118-.3800757-.11294118h-.1096372c-.0292366-.08470588-.0511641-.19058823-.0511641-.31058823s.0146183-.23294118.0511641-.32470588c.1534921-.01411765.2777476-.0282353.3654574-.04235294.0950189-.01411765.1681104-.01411765.2265836-.01411765h.0950189c.248511 0 .4385489.07764706.5774227.22588235.1388738.14117647.2119653.34588235.2119653.6zm-1.1694637-2.76705882c.1242555-.07764706.3069842-.11294118.5481861-.11294118.2265836 0 .3873848.03529412.4750946.10588235.0877098.07058824.1315647.21176471.1315647.43764706 0 .22588236-.0438549.36705883-.146183.44470589-.1023281.07764705-.248511.10588235-.4604763.10588235-.1900379 0-.34353-.0282353-.4604763-.08470588-.1169464-.05647059-.1754196-.21176471-.1754196-.46588236 0-.17647058.0292366-.31764706.0877098-.43058823z"/></g><path d="m25.6776119 3.34588235c.0205971.11294118.0343284.22588236.0343284.32470589 0 .09882352-.0137313.2117647-.0343284.32470588l-1.421194-.01411765v3.86823529c0 .32470589.1441791.48.4325373.48h.8513433c.0549254.13411765.0823881.26117648.0823881.3882353s-.0068657.2117647-.020597.24c-.3432836.04235294-.7002986.07058823-1.0641792.07058823-.7208955 0-1.0847761-.31764705-1.0847761-.95294117v-4.09411765l-.7964179.01411765c-.020597-.11294118-.0343283-.22588236-.0343283-.32470588 0-.09882353.0137313-.21176471.0343283-.32470589l.7964179.01411765v-1.20705882c0-.20470589.0274627-.35294118.0892538-.44470589.061791-.08470588.1785074-.13411764.3501492-.13411764h.3020896l.0686567.07058823v1.72941177z"/><path d="m31.4310448 8.64c-.0823881.21176471-.2059702.36-.377612.43764706-.3638806-.14117647-.5973134-.40941177-.6934328-.80470588-.5767164.57882353-1.1397015.86117647-1.6889552.86117647-.2814926 0-.5286567-.04235294-.7414926-.14117647-.2059701-.09176471-.3844776-.21176471-.521791-.36705883-.1373134-.15529411-.2402985-.3317647-.3158209-.52941176s-.1098507-.40941177-.1098507-.63529412c0-.30352941.0480597-.57882353.1510447-.81176471.1029851-.23294117.2402985-.43058823.4119403-.57882352.1785075-.15529412.3844776-.2682353.6179105-.34588236.2334328-.07764706.4943283-.11294117.7689552-.11294117.5629851 0 1.0161194.03529411 1.3662687.10588235v-.57882353c0-.79058824-.336418-1.17882353-1.0092538-1.17882353-.5149253 0-1.1191045.16235294-1.8262686.48-.1922388-.17647059-.2883582-.40235294-.2883582-.67058824.8032835-.36 1.5379104-.54352941 2.1970149-.54352941 1.1534328 0 1.7370149.64235294 1.7370149 1.92v2.37176471c-.0068657.27529412.0137314.50117647.0755224.68470588.0686567.19058824.1441791.33176471.2471642.43764706zm-1.1191045-1.15058824v-1.15058823c-.1785075-.02823529-.3638806-.04941177-.5561194-.06352941-.1922388-.01411765-.398209-.01411765-.6110448-.01411765-.4256716 0-.7483582.09882353-.9680597.30352941s-.3364179.47294118-.3364179.79764706.0755224.57882353.2334328.76235294c.1579105.19058824.3707463.28235294.6385075.28235294.2746269 0 .5561194-.07764706.8376119-.23294117.2883583-.15529412.5423881-.3882353.7620896-.68470589z" fill-rule="nonzero"/><path d="m35.3170149 8.32941176h.4668657c.0274627.07058824.0480597.1482353.061791.23294118.0137314.08470588.0205971.16235294.0205971.23294118 0 .04941176 0 .08470588-.0068657.11294117-.0068657.0282353-.0068657.04941177-.0068657.06352942-.1167164.02117647-.2334328.04235294-.3432836.05647058-.1098507.01411765-.2265671.02117647-.3364179.02117647-.3089552 0-.5629851-.07058823-.7689552-.2117647-.2059702-.14117647-.3158209-.39529412-.3158209-.75529412v-7.48235294l.0686567-.07058823h.3020896c.1785074 0 .3020895.04235294.3570149.13411764.061791.08470588.0892537.23294118.0892537.44470588v6.72c0 .33882353.1373135.50117647.4119403.50117647z"/><path d="m39.5256716 8.32941176h.4737314c.0274627.07058824.0480597.1482353.061791.23294118.0137314.08470588.0137314.16235294.0137314.23294118 0 .04941176 0 .08470588-.0068657.11294117-.0068657.0282353-.0068657.04941177-.0068657.06352942-.1167164.02117647-.2334328.04235294-.3501492.05647058-.1098508.01411765-.2265672.02117647-.3364179.02117647-.3089553 0-.5629851-.07058823-.7689553-.2117647-.2059701-.14117647-.3158209-.39529412-.3158209-.75529412v-7.48235294l.0686568-.07058823h.3020895c.1785075 0 .2952239.04235294.3570149.13411764.0617911.08470588.0892538.23294118.0892538.44470588v6.72c.0068656.33882353.1441791.50117647.4188059.50117647z"/><path d="m45.54 3.40235294-1.5310448 5.4c-.2814925.9882353-.5835821 1.68705886-.9062686 2.09647056-.3226866.4094118-.8032836.6070589-1.4417911.6070589-.3295522 0-.6316418-.0494118-.9062686-.1482353-.020597-.2117647.0343283-.4235295.1785074-.6211765.2334329.0847059.480597.1270588.7346269.1270588.3982089 0 .7002985-.1411765.9062687-.4164706.2059701-.2752941.3982089-.70588233.5698507-1.29176468l.0343284-.11294118c-.1922389-.01411765-.3432836-.06352941-.439403-.14117647-.1029851-.07764706-.1853732-.21882353-.2540299-.42352941l-1.5653731-5.06117647c.2334328-.09882353.3982089-.1482353.4943283-.1482353.2128359 0 .3638806.13411765.4325374.40235295l.8856716 2.88705882c.0274627.0917647.1991045.6917647.5149254 1.79294118.0137313.05647058.0549253.07764705.1098507.07764705l1.3662687-5.08941176c.0961194-.02823529.2265671-.04941177.3844776-.04941177.1579104 0 .2952239.02117648.4119403.07058824z"/></g></g><path d="m178.5 50c-.279412 0-.5-.2052558-.5-.4652465v-43.06950704c0-.25999067.220588-.46524646.5-.46524646s.5.20525579.5.46524646v43.06950704c0 .2599907-.227941.4652465-.5.4652465z" fill="url(#a)"/><g fill="#000"><g transform="translate(0 3.457447)"><path d="m7.32795082 7.75159574c1.8077459-.13829787 2.93672128-.33882978 3.38692618-.60851063.450205-.26968085.7480328-1.35531915.8796312-3.25-.1385246-2.02606383-.4986885-3.1462766-1.0804918-3.34680851-.58872951-.20053192-1.64844263-.37340426-3.18606558-.50478724-1.98782787.08989362-3.22069672.35265958-3.69168033.78138298-.4709836.4287234-.71340164 1.45212766-.71340164 3.07712766 0 1.17553191.20086066 2.1643617.6095082 2.97340426.76881147.58085106 2.03631147.87819148 3.79557377.87819148z"/><path d="m6.64918033 12.9585106h-.87963115c-.85885246 0-1.69692623.0207447-2.50729508.069149-.81036885.0484042-1.62766394.1106383-2.43803279.2005319-.13852459.5393617-.22856557 1.0164894-.27012295 1.4175532-.04848361.4079787-.06926229.7882979-.06926229 1.1478723 0 .4079787.02077868.8021277.06926229 1.1824468.04155738.3803192.13852459.8228724.27012295 1.3207447h1.35754099c1.0804918 0 1.84237704.2696809 2.27180327.8090426s.64413935 1.4452127.64413935 2.7037234v26.9196808c0 1.1755319-.07618853 2.1781915-.23549181 3.0079787-.15930327.8367022-.41557377 1.5765958-.78266393 2.2335107-.36016393.65-.85885246 1.230851-1.48913934 1.7218085-.63028689.4978723-1.41987705.9680851-2.3687705 1.4175532.18008197 1.756383.85885246 3.180851 2.02938525 4.2595745 1.62766393-.4079788 3.04754098-.8712766 4.26655738-1.3829788 1.21901639-.518617 2.23717213-1.3414893 3.04754098-2.468617s1.41987705-2.6484042 1.82852455-4.5638298c.4086476-1.9154255.6095082-4.4531915.6095082-7.606383v-26.3803191c0-1.8946809-.4779098-3.3675532-1.419877-4.4324468-.94196722-1.0648936-2.26487706-1.5765958-3.93409837-1.5765958z"/></g><path d="m35.8501639 30.6882979-4.0656967-1.5558511c-1.4891393-.5877659-2.5627049-1.1755319-3.2206967-1.756383-.6579918-.5877659-.9835246-1.4175532-.9835246-2.5031915s.4432787-1.9845744 1.3229098-2.7037234c.8796312-.7191489 2.0640164-1.0856383 3.560082-1.0856383 2.7981967 0 5.8041803.7468085 9.0110246 2.2335107.6302869-.5393617 1.1428279-1.3069149 1.5237705-2.3026596.3809426-.9888298.574877-1.9361702.574877-2.8420213-3.6154918-1.625-7.2517623-2.4340425-10.9088114-2.4340425-3.6154918 0-6.5383607.8920212-8.7755328 2.6691489-2.2371722 1.7840426-3.3522951 4.225-3.3522951 7.3367021 0 4.2872341 2.8536065 7.5095745 8.5677459 9.6739362l3.7747951 1.4175532c2.8328278 1.0787234 4.2527049 2.6138298 4.2527049 4.5984043 0 1.2654255-.5540984 2.275-1.6553689 3.0425531-1.1012705.7675532-2.7981967 1.1478724-5.0977049 1.1478724-2.2510246 0-5.1738934-.9888298-8.7755328-2.9734043-.5887295.5393617-1.1012705 1.3-1.5514754 2.2680851s-.6995492 1.8393617-.7411065 2.6069149c3.7470901 2.2542553 7.6811885 3.381383 11.7884426 3.381383s7.362582-.8989362 9.7590574-2.7037234 3.5877869-4.2595745 3.5877869-7.3712766c.0069262-4.55-2.8605328-7.9382979-8.5954509-10.1441489z"/><path d="m60.3066803 16.7547872v-10.01276592l-.4709836-.47021277h-2.6458197c-1.3990983 0-2.3687704.33882979-2.9159426 1.01648936-.5402459.67765958-.8103688 1.82553192-.8103688 3.45053193v5.9537234l-5.0145902-.1382979c-.180082.8574468-.2701229 1.7494681-.2701229 2.669149 0 .9265957.0900409 1.7702127.2701229 2.5377659l5.0145902-.0691489v21.643617c0 4.6468085 2.3687705 6.9702128 7.1132377 6.9702128 2.4380328 0 4.9661065-.1590426 7.5911475-.4771277.090041-.3180851.1385246-.9957447.1385246-2.0191489 0-1.0234043-.180082-2.0398936-.5402459-3.0494681h-4.6752049c-1.8493033 0-2.777418-.9888298-2.777418-2.9664894v-20.1638298l8.3322541.1382979c.2285655-.7191489.3393852-1.5765957.3393852-2.5723404 0-.9888298-.1108197-1.8739362-.3393852-2.6414894z"/><path d="m129.887582 29.8101064c2.347992 0 3.525451-1.2861702 3.525451-3.8515958 0-1.2654255-.283976-2.5170212-.845-3.7547872-.567951-1.237766-1.37832-2.337234-2.438033-3.2776596-1.059713-.9473404-2.347992-1.7148936-3.864836-2.3026595-1.516844-.587766-3.241475-.8781915-5.18082-.8781915-1.897787 0-3.69168.3803191-5.388606 1.1478723-1.696927.7675532-3.186066 1.8739362-4.474345 3.312234-1.288278 1.4452128-2.31336 3.2361703-3.082172 5.3797873-.768811 2.143617-1.149754 4.5914893-1.149754 7.3367021 0 2.6622341.283976 5.0962766.845 7.3021277.561025 2.2127659 1.419877 4.1005319 2.576558 5.6840425 1.149754 1.5765958 2.597336 2.8074468 4.335819 3.6856383 1.738484.8781915 3.8025 1.3207447 6.198976 1.3207447 4.744467 0 8.782459-1.6664894 12.127828-5.006383-.180082-.7675532-.561025-1.555851-1.149755-2.3648936-.588729-.8090425-1.191311-1.3968085-1.821598-1.756383-2.922869 2.2542553-5.651803 3.381383-8.166025 3.381383-5.083852 0-7.625778-3.8792553-7.625778-11.6308511 0-4.1005319.581803-7.1914893 1.752336-9.2659574s2.832828-3.1117021 4.986885-3.1117021c3.954877 0 5.928853 2.5446808 5.928853 7.6409574v.7468085c.761885.1728724 1.731557.262766 2.909016.262766z"/><path d="m165.523033 43.0659574-2.306435-5.6148936c-1.357541-3.3398936-3.435409-5.3659574-6.233606-6.0851064.810369-.6776595 1.558401-1.555851 2.237172-2.6414893l7.383361-11.7-.408648-.5393617c-.858852-.0484043-2.16791-.069149-3.927172-.069149s-3.206844.9957447-4.33582 2.9734043l-5.963483 9.3351064c-.360164.6292553-.907336.9473404-1.627664.9473404l-2.306435.1382979v-25.02500002c0-1.625-.270123-2.77287234-.810369-3.45053191-.540245-.67765958-1.516844-1.01648936-2.915942-1.01648936h-2.708156l-.408647.40797872v49.31010637c.900409.1797872 2.05709.2696809 3.456188.2696809s2.528074-.0898937 3.386926-.2696809v-14.4106383c1.447582-.0898936 2.708156-.1382979 3.795574-.1382979s2.022459.3042554 2.812049.912766 1.544549 1.7909574 2.271804 3.5473404l2.708155 6.631383c.540246 1.3968085 1.128976 2.3994681 1.759263 3.0079787.630286.6085107 1.537622.912766 2.708155.912766 1.849304 0 3.407705-.719149 4.675205-2.1643617-1.115123-.7606383-2.202541-2.5170213-3.241475-5.269149z"/><path d="m100.167131 27.1547872c0-3.7962766-.9765982-6.6313829-2.9228687-8.5053191s-4.6890574-2.8143617-8.2145082-2.8143617c-4.7513934 0-9.4404508 1.037234-14.0533197 3.118617.0415574 2.2611702.7272541 3.9553192 2.0363115 5.0824468 4.5228279-1.7632979 8.0829098-2.6414893 10.6594672-2.6414893 3.712459 0 5.5686885 2.0260638 5.5686885 6.0851063v13.781383c-2.444959 2.7106383-5.1184836 4.0659575-8.0136475 4.0659575-1.4060246 0-2.5142213-.4632979-3.3245902-1.3898937-.817295-.9265957-1.2190164-2.205851-1.2190164-3.830851 0-1.6734043.5748771-3.0148936 1.7315574-4.031383.9973771-.8781915 2.3479918-1.3829787 4.0449181-1.5005319l.0069262.0069149c.2493442-1.0026596.3116803-1.9914894.2077869-2.9803192-.1038935-.9888298-.2147131-1.6319149-.3324591-1.9361702-3.7609426.0622341-6.7946311 1.0095745-9.0941393 2.8420213-2.3756967 1.8946808-3.5670082 4.7021277-3.5670082 8.4085106 0 1.3138298.2147131 2.5654256.6441394 3.7617022.4294262 1.1962766 1.087418 2.2611702 1.9670491 3.1877659.8796312.9265958 1.9670492 1.6595745 3.2622541 2.2058511 1.2882787.5393617 2.7912705.8159574 4.5159017.8159574 3.3938524 0 6.6976639-1.5351064 9.9114344-4.612234.9488934 2.3026596 2.7635656 3.706383 5.4301639 4.2042553 1.2190169-.7675532 2.1055739-1.9638298 2.6458199-3.5957447-1.2675-1.0856383-1.904713-3.0287234-1.904713-5.8292553v-13.8989362z"/></g></g></svg>