<svg height="26" viewBox="0 0 26 26" width="26" xmlns="http://www.w3.org/2000/svg"><path d="m24.1428571 0h-22.29151781c-1.02142858 0-1.85133929.84151786-1.85133929 1.87455357v22.25089283c0 1.0330357.82991071 1.8745536 1.85133929 1.8745536h22.29151781c1.0214286 0 1.8571429-.8415179 1.8571429-1.8745536v-22.25089283c0-1.03303571-.8357143-1.87455357-1.8571429-1.87455357zm-16.28482139 22.2857143h-3.85357142v-12.40803573h3.859375v12.40803573zm-1.92678571-14.10267859c-1.23616071 0-2.234375-1.00401785-2.234375-2.234375 0-1.23035714.99821429-2.234375 2.234375-2.234375 1.23035714 0 2.234375 1.00401786 2.234375 2.234375 0 1.23616072-.99821429 2.234375-2.234375 2.234375zm16.371875 14.10267859h-3.8535714v-6.0357143c0-1.4392857-.0290179-3.290625-2.0022322-3.290625-2.0080357 0-2.315625 1.5669643-2.315625 3.1861607v6.1401786h-3.8535714v-12.40803573h3.696875v1.69464283h.0522321c.5165179-.975 1.7758929-2.00223211 3.6504465-2.00223211 3.9 0 4.6254464 2.57098211 4.6254464 5.91383931z" fill="#0073b1"/></svg>