<svg enable-background="new 0 0 120 22" viewBox="0 0 120 22" xmlns="http://www.w3.org/2000/svg"><path d="m19.1 16.5-9.6-5.5-9.5 5.5v-11l9.5 5.5 9.6-5.5z" fill="#d8d9d8"/><path d="m9.5 11-9.5-5.5 9.5-5.5z" fill="#f39200"/><path d="m9.5 11v-11l9.6 5.5z" fill="#d53d18"/><path d="m9.5 22-9.5-5.5 9.5-5.5 9.6 5.5z" fill="#aaafb2"/><path d="m36.3 13.4 2.8-7.9h2.8v10.7h-2.1v-7.3h-.1l-2.7 7.3h-1.5l-2.7-7.4h-.1v7.3h-2.1v-10.6h2.8zm15.2-1.9h-4v3.1h4.7v1.6h-6.9v-10.7h6.9v1.7h-4.7v2.7h4zm3.8 4.7v-10.7h3.7c1.3 0 2.4.4 3.3 1.2.8.8 1.3 1.9 1.3 3.2v1.8c0 1.3-.4 2.4-1.3 3.2-.8.8-1.9 1.2-3.3 1.2h-3.7zm2.1-9v7.4h1.6c.7 0 1.3-.3 1.7-.8s.7-1.2.7-2v-1.8c0-.8-.2-1.5-.7-2-.4-.5-1-.8-1.7-.8zm11.4 9h-2.1v-10.7h2.1zm9.3-2.3h-3.5l-.7 2.3h-2.2l3.6-10.7h2.2l3.6 10.7h-2.2zm-2.9-1.7h2.4l-1.2-3.8h-.1zm16.4 4h-.9v-4.9h-6.1v4.9h-.9v-10.7h.9v5h6.1v-5h.9zm11.8-10.7v7.1c0 1.2-.4 2.1-1.1 2.8s-1.6 1-2.8 1c-1.1 0-2-.3-2.7-1s-1.1-1.6-1.1-2.8v-7.1h.9v7.1c0 .9.3 1.7.8 2.2s1.2.8 2.1.8 1.6-.3 2.1-.8.8-1.3.8-2.2v-7.1zm5.2 10.7h-.9v-10.7h.9zm10.5-2.6c0-.5-.2-1-.7-1.4-.4-.4-1.2-.7-2.2-1-1.1-.3-2-.7-2.6-1.2s-.9-1.1-.9-1.9.3-1.5 1-2 1.5-.8 2.5-.8c1.1 0 2 .3 2.6.9.7.6 1 1.4 1 2.3v.1h-.8c0-.7-.3-1.3-.8-1.8s-1.2-.7-2-.7-1.5.2-2 .6-.7.9-.7 1.4.2 1 .7 1.4c.4.3 1.2.7 2.3 1s2 .7 2.6 1.2.9 1.1.9 1.9-.3 1.5-1 2-1.6.8-2.6.8-2-.3-2.8-.8-1.2-1.3-1.1-2.3v-.1h.8c0 .8.3 1.4.9 1.9.6.4 1.3.6 2.1.6s1.5-.2 2-.6.8-.9.8-1.5z" fill="#d53d18"/></svg>