<svg enable-background="new 0 0 120 28" viewBox="0 0 120 28" xmlns="http://www.w3.org/2000/svg"><path d="m19.5 20.6c0 1.3-1.4 2.2-2.6 1.7-.8-.3-1.2-1.2-1.2-2 0-1.2 0-2.5 0-3.7s0-2.4 0-3.7c0-.9-.2-1.7-.7-2.4-.7-1-1.8-1.7-3-1.8s-2.5.2-3.4 1-1.3 1.9-1.3 3.1v3.1 4.1c0 .6 0 1.1-.4 1.6-.8 1.1-2.4 1-3.1-.1-.3-.5-.3-.9-.3-1.4 0-.6 0-1.2 0-1.9 0-1.5 0-2.9 0-4.4 0-.5 0-.9 0-1.4.1-1.4.6-2.8 1.4-3.9 1.7-2.3 4.5-3.5 7.4-3.2 2.8.3 5.3 2.1 6.4 4.7.5 1 .7 2.1.7 3.2v1.3c.1 2.1.1 4.1.1 6.1z"/><path d="m54.9 17.4c.1 1.3-.6 2.6-1.5 3.5-.9.8-2.1 1.3-3.3 1.6-2.6.5-5.5.1-7.8-1.1-.5-.2-.9-.6-1-1.1s.1-1.1.4-1.4c.4-.4 1-.4 1.4-.2.6.3 1.2.6 1.8.8 1.4.4 2.8.5 4.2.2 1.1-.2 2.6-.9 2.2-2.3-.2-.6-.7-.8-1.2-1.1-.6-.2-1.1-.4-1.7-.6-1.2-.4-2.5-.7-3.7-1.3-1-.4-1.9-1-2.5-1.9-.6-1-.8-2.3-.4-3.4.9-2.6 4.1-3.7 6.5-3.7 1.4 0 2.7.2 3.9.7.9.3 2.4.9 2.2 2.3-.1.5-.3.9-.8 1.1-.2.1-.5.1-.7.1-.3 0-.8-.2-1.1-.4-1.3-.5-2.8-.7-4.2-.6-.9.1-2.4.6-2.5 1.7-.1.6.2 1.1.7 1.4s1.1.5 1.7.6c2.8.7 7.2 1.5 7.4 5.1 0 .6-.1-.7 0 0z"/><path d="m72.1 18.7c0 .5-.2.9-.5 1.2-.3.4-.7.7-1.2 1s-1 .6-1.5.8c-.6.3-1.1.4-1.7.6-.6.1-1.2.2-1.8.2-1.2 0-2.3-.2-3.4-.7-1-.5-2-1.1-2.7-1.8s-1.4-1.7-1.8-2.7c-.5-1-.7-2.2-.7-3.4s.2-2.3.7-3.4c.5-1 1.1-2 1.8-2.7.8-.8 1.7-1.4 2.7-1.8 1-.5 2.2-.7 3.4-.7 1.1 0 2 .1 2.9.4s1.8.8 2.7 1.5c.4.3.6.8.6 1.3 0 .3-.1.7-.4 1-.3.4-.9.6-1.3.6s-.7-.1-1-.3c-.6-.4-1.1-.7-1.7-.9s-1.2-.3-1.8-.3c-.7 0-1.4.1-2 .4s-1.1.7-1.5 1.1c-.4.5-.8 1-1 1.7-.2.6-.3 1.3-.3 2s.1 1.4.3 2 .6 1.2 1 1.7.9.9 1.5 1.1c.6.3 1.3.4 2 .4.9 0 1.6-.2 2.3-.5.6-.3 1.2-.7 1.8-1.2.3-.2.6-.4 1-.4.5 0 1 .1 1.3.5.1.5.3.9.3 1.3z"/><path d="m90.7 14c0 1.2-.2 2.3-.7 3.4-.5 1-1.1 2-1.8 2.7-.8.8-1.7 1.4-2.7 1.8-1 .5-2.2.7-3.4.7s-2.3-.2-3.4-.7c-1-.5-2-1.1-2.7-1.8-.8-.8-1.4-1.7-1.8-2.7-.5-1-.7-2.2-.7-3.4s.2-2.3.7-3.4c.5-1 1.1-2 1.8-2.7.8-.8 1.7-1.4 2.7-1.8 1-.5 2.2-.7 3.4-.7s2.3.2 3.4.7c1 .5 2 1.1 2.7 1.8.8.8 1.4 1.7 1.8 2.7.5 1 .7 2.2.7 3.4zm-3.8 0c0-.7-.1-1.4-.4-2-.2-.6-.6-1.2-1-1.7s-.9-.9-1.5-1.1c-.6-.3-1.3-.4-2-.4s-1.4.1-2 .4-1.1.6-1.5 1.1-.7 1-1 1.7c-.2.6-.4 1.3-.4 2s.1 1.4.4 2c.2.6.6 1.2 1 1.7s.9.9 1.5 1.1c.6.3 1.3.4 2 .4s1.4-.1 2-.4 1.1-.6 1.5-1.1.7-1 1-1.7c.3-.6.4-1.3.4-2z"/><path d="m39.1 19.4c-.5-2.9.3-6-.7-8.8-.9-2.2-2.7-4-4.9-4.8-2.5-.9-5.3-.6-7.6.7-2.2 1.3-3.7 3.5-4.1 6s.3 5.1 1.9 7.1c1.4 1.7 3.4 2.8 5.6 3 2.3.2 4.6-.4 6.4-2 .1.5.3 1 .6 1.3.4.4.9.5 1.4.4.6-.1 1.1-.4 1.4-.9.2-.3.3-.6.2-1 0-.2-.2-.6-.2-1zm-4.3-3.4c-.4 1.1-1.2 2.2-2.3 2.7-1.2.6-2.7.7-3.9.2-2.1-.8-3.2-2.9-3.1-5 0-1.2.4-2.4 1.1-3.3.8-1.1 2-1.7 3.3-1.8 1.2-.1 2.4.2 3.3.9.8.6 1.4 1.6 1.7 2.6.2.8.3 1.7.2 2.5-.1.4-.2.8-.3 1.2z"/><path d="m112.8 6c-2.5-1.3-5.8-.8-7.8 1.2-.1.1-.2.2-.3.3-1.8-2-4.6-2.7-7.1-1.9-2.7.9-4.5 3.5-4.5 6.3v8.6c0 .5.2.9.6 1.3s.8.5 1.3.5.9-.2 1.3-.5c.4-.4.6-.9.6-1.4v-7.8c0-.3 0-.6 0-.9.1-1.4 1-2.5 2.3-2.9s2.4.1 3.2 1.2c.4.6.6 1.3.6 2.1v8.4c0 .5.2.9.6 1.3s.8.5 1.3.5.9-.2 1.3-.5c.4-.4.6-.9.6-1.4v-7.7c0-.3 0-.7 0-1 .1-1.4.8-2.5 2-2.9 1.3-.4 2.5.1 3.3 1.2.4.6.6 1.3.6 2.1v8.4c0 .5.2.9.6 1.3s.8.6 1.3.6.9-.2 1.3-.6.6-.9.6-1.4c0 0 0-8.1 0-8.4-.1-2.6-1.4-4.9-3.7-6z"/></svg>