<svg enable-background="new 0 0 80 80" viewBox="0 0 80 80" xmlns="http://www.w3.org/2000/svg"><path d="m77.9 14.5c-.8-6.5-5.8-11.6-12.3-12.4 0 0-10.4-1.6-25.6-1.6s-25.6 1.6-25.6 1.6c-6.5.8-11.5 5.9-12.3 12.4 0 0-1.6 11.7-1.6 25.5s1.6 25.5 1.6 25.5c.8 6.5 5.8 11.6 12.3 12.4 0 0 10.4 1.6 25.6 1.6s25.6-1.6 25.6-1.6c6.5-.8 11.6-5.9 12.3-12.4 0 0 1.6-11.7 1.6-25.5s-1.6-25.5-1.6-25.5m-10.4 44c-.6 4.7-4.2 8.4-8.9 9 0 0-7.5 1.2-18.6 1.2s-18.6-1.2-18.6-1.2c-4.7-.6-8.4-4.2-8.9-9 0 0-1.2-8.4-1.2-18.5 0-10 1.2-18.5 1.2-18.5.6-4.7 4.2-8.4 8.9-9 0 0 7.5-1.2 18.6-1.2s18.6 1.2 18.6 1.2c4.7.6 8.4 4.2 8.9 9 0 0 1.2 8.4 1.2 18.5-.1 10-1.2 18.5-1.2 18.5" fill="#ffc421"/><g fill="#ffc410"><path d="m56 32.4v-4.1c0-.4-.5-.5-.5-.5-2-.5-4-.8-5.9-.9-1.9 0-3.7.2-5.5.6 0 0-.5.1-.5.6v4c0 .8.5.6.5.6 1.7-.2 3.5-.4 5.4-.3 2 0 4 .2 5.8.6.1-.1.7 0 .7-.6"/><path d="m36 29.9c0-5.1-6.1-5.1-6.1-5.1s-6.1 0-6.1 5.1 6.1 5.1 6.1 5.1 6.1.1 6.1-5.1"/><path d="m40 55.7c-7.9 0-14.5-4.6-16.6-6.3 0 0-.7-.7-.7-1.3v-2.1c0-1.1.8-.5.8-.5 2.2 1.4 8.4 4.7 16.5 4.7s14.3-3.5 16.5-4.7c0 0 .8-.6.8.5v2.1c0 .6-.7 1.3-.7 1.3-2.1 1.7-8.7 6.3-16.6 6.3"/></g></svg>