<svg xmlns="http://www.w3.org/2000/svg" viewBox="0 0 1160 420"><defs><style>.cls-1{fill:#db4437;}.cls-2{fill:#d3d4d6;}.cls-3,.cls-6,.cls-8{fill:#252733;}.cls-4{fill:none;stroke:#d3d4d6;stroke-miterlimit:10;stroke-width:2px;}.cls-5,.cls-6,.cls-7,.cls-8,.cls-9{font-size:18px;}.cls-5,.cls-9{fill:#fff;}.cls-5,.cls-8{font-family:OpenSans-Bold, Open Sans;font-weight:700;}.cls-6,.cls-7{font-family:OpenSans-Regular, Open Sans;}.cls-7{fill:#7c7d85;}.cls-9{font-family:OpenSans-ExtraBold, Open Sans;font-weight:800;}</style></defs><g id="Layer_2" data-name="Layer 2"><g id="data"><rect class="cls-1" x="1020" y="300" width="140" height="60"/><rect class="cls-1" x="1020" y="180" width="140" height="60"/><rect class="cls-1" x="1020" y="60" width="140" height="60"/><path class="cls-2" d="M1158,2V418H2V2H1158m2-2H0V420H1160V0Z"/><rect class="cls-3" width="1160" height="60"/><line class="cls-4" x1="660" y1="60" x2="660" y2="420"/><line class="cls-4" x1="820" y1="60" x2="820" y2="420"/><line class="cls-4" x1="1020" y1="60" x2="1020" y2="420"/><line class="cls-4" y1="120" x2="1160" y2="120"/><line class="cls-4" y1="180" x2="1160" y2="180"/><line class="cls-4" y1="240" x2="1160" y2="240"/><line class="cls-4" y1="300" x2="1160" y2="300"/><line class="cls-4" y1="360" x2="1160" y2="360"/><text class="cls-5" transform="translate(28 39.92)">NAME</text><text class="cls-5" transform="translate(842 39.92)">WATERFALL</text><text class="cls-5" transform="translate(680 39.92)">PRIORITY</text><text class="cls-5" transform="translate(1085.33 40)">TIME</text><text class="cls-6" transform="translate(28 96.08)">karbon-medium-webfont.woff</text><text class="cls-7" transform="translate(27.76 156.1)">/sites/all/themes/custom/medical-cloud/fonts/karbon</text><text class="cls-6" transform="translate(28 216.08)">karbon-bold-webfont.woff</text><text class="cls-8" transform="translate(842 96.08)">Waiting (TTFB)</text><text class="cls-6" transform="translate(842 156.1)">Content Download</text><text class="cls-6" transform="translate(680 96.08)">Highest</text><text class="cls-6" transform="translate(680 216.08)">Highest</text><text class="cls-8" transform="translate(842 216.08)">Waiting (TTFB)</text><text class="cls-6" transform="translate(1052.8 156.1)">17.25 ms</text><text class="cls-7" transform="translate(27.76 276.1)">/sites/all/themes/custom/medical-cloud/fonts/karbon</text><text class="cls-6" transform="translate(842 276.1)">Content Download</text><text class="cls-6" transform="translate(1052.8 276.1)">14.48 ms</text><text class="cls-9" transform="translate(1049.1 216.08)">67.38 ms</text><text class="cls-6" transform="translate(28 336.08)">karbon-regular-webfont.woff</text><text class="cls-6" transform="translate(680 336.08)">Highest</text><text class="cls-8" transform="translate(842 336.08)">Waiting (TTFB)</text><text class="cls-7" transform="translate(27.76 396.1)">cdn.miaaguard.com/mc_5iQyMXjgZn/fonts</text><text class="cls-6" transform="translate(842 396.1)">Content Download</text><text class="cls-6" transform="translate(1052.8 396.1)">60.59 ms</text><text class="cls-9" transform="translate(1038.55 336.08)">152.88 ms</text><text class="cls-9" transform="translate(1049.1 96.08)">57.83 ms</text></g></g></svg>