<svg xmlns="http://www.w3.org/2000/svg" xmlns:xlink="http://www.w3.org/1999/xlink" viewBox="0 0 430 226"><defs><style>.cls-1,.cls-6{fill:none;}.cls-2{clip-path:url(#clip-path);}.cls-3{clip-path:url(#clip-path-2);}.cls-4{fill:#1abc9c;}.cls-10,.cls-5{font-size:21px;}.cls-5,.cls-7{fill:#fff;}.cls-5{font-family:OpenSans-Regular, Open Sans;}.cls-6{stroke:#16a085;stroke-linecap:square;stroke-miterlimit:10;stroke-width:2px;}.cls-7{font-size:48px;}.cls-10,.cls-7{font-family:OpenSans-Bold, Open Sans;font-weight:700;}.cls-8{clip-path:url(#clip-path-3);}.cls-9{fill:#16a085;}.cls-10,.cls-12{fill:#f1c40f;}.cls-11{clip-path:url(#clip-path-5);}</style><clipPath id="clip-path" transform="translate(5 5)"><rect class="cls-1" width="420" height="216" rx="12"/></clipPath><clipPath id="clip-path-2" transform="translate(5 5)"><rect class="cls-1" x="-50" y="-136" width="1440" height="420"/></clipPath><clipPath id="clip-path-3" transform="translate(5 5)"><path class="cls-1" d="M45,88.79a5.69,5.69,0,1,0,5.67,5.68A5.67,5.67,0,0,0,45,88.79ZM45,104a9.48,9.48,0,1,1,9.44-9.48A9.45,9.45,0,0,1,45,104ZM31.78,121H28v-1.89a13.26,13.26,0,0,1,13.22-13.27h7.56A13.26,13.26,0,0,1,62,119.11V121H58.22v-1.89a9.47,9.47,0,0,0-9.44-9.48H41.22a9.47,9.47,0,0,0-9.44,9.48Z"/></clipPath><clipPath id="clip-path-5" transform="translate(5 5)"><polygon class="cls-1" points="236 110 226 120 246 120 236 110"/></clipPath></defs><g id="Layer_2" data-name="Layer 2"><g id="Layer_3" data-name="Layer 3"><g class="cls-2"><g class="cls-3"><rect class="cls-4" width="430" height="226"/></g></g><text class="cls-5" transform="translate(33 57)">Unieke gebruikers</text><text class="cls-5" transform="translate(33 188)">In vergelijking tot 387 k vorig jaar.</text><line class="cls-6" x1="33" y1="152.5" x2="397" y2="152.5"/><text class="cls-7" transform="translate(87 126)">604 k</text><g class="cls-8"><g class="cls-3"><rect class="cls-9" x="28" y="85" width="44" height="46"/></g></g><text class="cls-10" transform="translate(258 126)">+56%</text><g class="cls-11"><g class="cls-3"><rect class="cls-12" x="226" y="110" width="30" height="20"/></g></g></g></g></svg>