<svg xmlns="http://www.w3.org/2000/svg" viewBox="0 0 1136 281.9"><defs><style>.cls-1,.cls-11{fill:#dc4437;}.cls-11,.cls-2,.cls-7{font-size:21px;}.cls-2,.cls-3,.cls-4,.cls-5{fill:#fff;}.cls-11,.cls-2,.cls-3,.cls-7,.cls-8,.cls-9{font-family:OpenSans-Regular, Open Sans;}.cls-3,.cls-8{font-size:18px;}.cls-4,.cls-9{font-size:72px;}.cls-4{font-family:OpenSans-SemiBold, Open Sans;font-weight:600;}.cls-6{fill:#d3d4d6;}.cls-10,.cls-7,.cls-8{fill:#7c7d85;}.cls-9{fill:#5b5d66;}</style></defs><g id="Layer_2" data-name="Layer 2"><g id="Layer_1-2" data-name="Layer 1"><rect class="cls-1" width="284" height="216"/><text class="cls-2" transform="translate(30 50.01)">Fout</text><text class="cls-3" transform="translate(29.92 177.38)">1 probleem</text><text class="cls-4" transform="translate(29.96 138.61)">1</text><path class="cls-5" d="M244,182.33a10,10,0,0,1-10-10v-.2a10,10,0,1,1,10,10.2Zm0-2h0a8,8,0,1,0-8-8A8,8,0,0,0,244,180.33Zm1-2h-2v-2h2Zm0-3h-2a3.6,3.6,0,0,1,1.77-3.18c.66-.5,1.23-.94,1.23-1.82a2,2,0,0,0-4,0h-2v-.09a4,4,0,1,1,8,.09,3.42,3.42,0,0,1-1.56,2.65A3.07,3.07,0,0,0,245,175.33Z"/><path class="cls-6" d="M567,2V214H286V2H567m2-2H284V216H569V0Z"/><text class="cls-7" transform="translate(314 50.01)">Geldig met waarschu...</text><text class="cls-8" transform="translate(313.92 177.38)">1 probleem</text><text class="cls-9" transform="translate(313.96 138.61)">1</text><path class="cls-10" d="M528,182.33a10,10,0,0,1-10-10v-.2a10,10,0,1,1,10,10.2Zm0-2h0a8,8,0,1,0-8-8A8,8,0,0,0,528,180.33Zm1-2h-2v-2h2Zm0-3h-2a3.6,3.6,0,0,1,1.77-3.18c.66-.5,1.23-.94,1.23-1.82a2,2,0,0,0-4,0h-2v-.09a4,4,0,1,1,8,.09,3.42,3.42,0,0,1-1.56,2.65A3.1,3.1,0,0,0,529,175.33Z"/><path class="cls-6" d="M851,2V214H569V2H851m2-2H567V216H853V0Z"/><text class="cls-7" transform="translate(598 50.01)">Geldig</text><text class="cls-9" transform="translate(597.96 138.61)">517</text><path class="cls-10" d="M812,182.33a10,10,0,0,1-10-10v-.2a10,10,0,1,1,10,10.2Zm0-2h0a8,8,0,1,0-8-8A8,8,0,0,0,812,180.33Zm1-2h-2v-2h2Zm0-3h-2a3.6,3.6,0,0,1,1.77-3.18c.66-.5,1.23-.94,1.23-1.82a2,2,0,0,0-4,0h-2v-.09a4,4,0,1,1,8,.09,3.42,3.42,0,0,1-1.56,2.65A3.1,3.1,0,0,0,813,175.33Z"/><path class="cls-6" d="M1134,2V214H853V2h281m2-2H851V216h285V0Z"/><text class="cls-7" transform="translate(882 50.01)">Uitgesloten</text><text class="cls-9" transform="translate(881.96 138.61)">3.88k</text><path class="cls-10" d="M1096,182.33a10,10,0,0,1-10-10v-.2a10,10,0,1,1,10,10.2Zm0-2h0a8,8,0,1,0-8-8A8,8,0,0,0,1096,180.33Zm1-2h-2v-2h2Zm0-3h-2a3.6,3.6,0,0,1,1.77-3.18c.66-.5,1.23-.94,1.23-1.82a2,2,0,1,0-4,0h-2v-.09a4,4,0,1,1,8,.09,3.42,3.42,0,0,1-1.56,2.65A3.1,3.1,0,0,0,1097,175.33Z"/><text class="cls-11" transform="translate(36.5 276.21)">Fout</text><text class="cls-7" transform="translate(204.5 276.21)">Ingediende URL niet gevonden (404)</text><text class="cls-7" transform="translate(929.49 275.97)">Gestart</text><text class="cls-7" transform="translate(1087.49 276.2)">1</text><path class="cls-10" d="M911.49,279.89a10,10,0,1,1,10-10A10,10,0,0,1,911.49,279.89Zm0-18a8,8,0,1,0,8,8A8,8,0,0,0,911.49,261.89Zm5,9h-6v-6h2v4h4Z"/><path class="cls-1" d="M1075.49,279.13h-17a1,1,0,0,1-1-1v-17h2v16h16Zm-1.37-5-4.17-4.08-2.23,2.18a1,1,0,0,1-1.37,0l-4.86-4.76,1.38-1.34,4.17,4.08,2.22-2.18a1,1,0,0,1,1.38,0l4.85,4.76Z"/></g></g></svg>