<svg xmlns="http://www.w3.org/2000/svg" viewBox="0 0 217 250"><defs><style>.cls-1{fill:#e73a5d;}.cls-2{fill:#e8223d;}.cls-10,.cls-3,.cls-6,.cls-7,.cls-8,.cls-9{fill:#fff;}.cls-4{opacity:0.4;}.cls-5{fill:none;stroke:#fff;stroke-linecap:round;stroke-miterlimit:10;stroke-width:2px;}.cls-10,.cls-5,.cls-6{opacity:0.8;}.cls-6{font-size:9px;}.cls-10,.cls-6,.cls-9{font-family:OpenSans-SemiBold, Open Sans;font-weight:600;}.cls-7,.cls-9{font-size:13px;}.cls-7,.cls-8{font-family:OpenSans-Regular, Open Sans;}.cls-8{font-size:40px;}.cls-10{font-size:10px;}</style></defs><g id="Layer_2" data-name="Layer 2"><g id="BOX"><rect class="cls-1" x="1" width="216" height="250" rx="6.25"/><path class="cls-2" d="M210.75,250H173V0h37.75A6.27,6.27,0,0,1,217,6.25v237.5A6.27,6.27,0,0,1,210.75,250Z"/><circle class="cls-3" cx="173" cy="180" r="3"/><g class="cls-4"><path class="cls-3" d="M173,177a3,3,0,1,1-3,3,3,3,0,0,1,3-3m0-3a6,6,0,1,0,6,6,6,6,0,0,0-6-6Z"/></g><path class="cls-5" d="M1,188c10,0,6-24,15-24s14,53,31,50,34-37,54-34,20,24,36,22,11-29,36-23"/><text class="cls-6" transform="translate(165.03 228.68)">DEC</text><text class="cls-6" transform="translate(21.98 228.73)">AUG</text><text class="cls-7" transform="translate(22 32.16)">Unieke HCP’s</text><text class="cls-8" transform="translate(21.99 85.25)">30k</text><text class="cls-9" transform="translate(189.64 32.16)">...</text><text class="cls-6" transform="translate(59.26 228.67)">SEP</text><text class="cls-6" transform="translate(93.59 228.67)">OKT</text><text class="cls-6" transform="translate(128.22 228.67)">NOV</text><text class="cls-10" transform="translate(21.98 108.71)">Vorig jaar 12k</text></g></g></svg>