<svg enable-background="new 0 0 120 26" viewBox="0 0 120 26" xmlns="http://www.w3.org/2000/svg" xmlns:xlink="http://www.w3.org/1999/xlink"><mask id="a" height="8.3" maskUnits="userSpaceOnUse" width="2.9" x="72.1" y="14.7"><path clip-rule="evenodd" d="m0 25.2h120v-25.2h-120z" fill="#fff" fill-rule="evenodd"/></mask><mask id="b" height="6.3" maskUnits="userSpaceOnUse" width="5.9" x="75.7" y="16.9"><path clip-rule="evenodd" d="m0 25.2h120v-25.2h-120z" fill="#fff" fill-rule="evenodd"/></mask><mask id="c" height="8.6" maskUnits="userSpaceOnUse" width="7.8" x="85.3" y="14.6"><path clip-rule="evenodd" d="m0 25.2h120v-25.2h-120z" fill="#fff" fill-rule="evenodd"/></mask><mask id="d" height="6.1" maskUnits="userSpaceOnUse" width="4.3" x="94" y="17"><path clip-rule="evenodd" d="m0 25.2h120v-25.2h-120z" fill="#fff" fill-rule="evenodd"/></mask><mask id="e" height="6.3" maskUnits="userSpaceOnUse" width="6.5" x="98.7" y="16.9"><path clip-rule="evenodd" d="m0 25.2h120v-25.2h-120z" fill="#fff" fill-rule="evenodd"/></mask><mask id="f" height="6.1" maskUnits="userSpaceOnUse" width="7" x="105.9" y="17"><path clip-rule="evenodd" d="m0 25.2h120v-25.2h-120z" fill="#fff" fill-rule="evenodd"/></mask><mask id="g" height="8.5" maskUnits="userSpaceOnUse" width="6.7" x="113.3" y="16.9"><path clip-rule="evenodd" d="m0 25.2h120v-25.2h-120z" fill="#fff" fill-rule="evenodd"/></mask><g clip-rule="evenodd" fill-rule="evenodd"><path d="m32.2 23.3h-9.7l10.8-10.8h9.7z" fill="#54656f"/><path d="m22.5.4 10.8 10.8h9.7l-10.8-10.8z" fill="#54656f"/><path d="m10.8.5-10.8 10.8h9.7l10.7-10.8z" fill="#a5ce41"/><path d="m31.3 11.3-9.9-9.9-4.8 4.8 5.1 5.1z" fill="#87ab35"/><path d="m31.3 12.6h-9.7l-5.1 5.1 4.8 4.8z" fill="#87ab35"/><path d="m0 12.6 10.8 10.8h9.7l-10.8-10.8z" fill="#a5ce41"/><g fill="#54656f" transform="translate(0 .272683)"><path d="m50.7 9.6h.7c1.7 0 2.7-1 2.7-2.9s-1.1-2.8-2.7-2.8h-1v5.5c.1.1.2.2.3.2zm-1.8-5.7h-.8v-1.3h3.4c2.6 0 4.2 1.5 4.2 4.1s-1.7 4.2-4.2 4.2h-1.8c-.6 0-.8-.2-.8-.8z"/><path d="m59 9.9c.8 0 1.4-.8 1.4-1.6v-.1h-.3c-.8 0-2 .1-2 .9 0 .4.3.8.9.8m1.1-2.8h.2c0-.9-.3-1.2-1.1-1.2-.3 0-.8.1-.8.4v.3h-1.4v-.6c0-1.1 1.6-1.2 2.2-1.2 2 0 2.6 1 2.6 2.4v2.2c0 .2.1.3.3.3h.5v1.3h-1.3c-.6 0-.8-.3-.8-.7 0-.2 0-.3 0-.3s-.5 1.1-1.8 1.1c-1.1 0-2-.7-2-1.9-.1-1.9 2.5-2.1 3.4-2.1"/><path d="m63.7 6.4c0-.2-.1-.3-.3-.3h-.4v-1.2h1.4c.5 0 .8.2.8.7v.2.3c.3-.5.9-1.2 2.1-1.2 1.3 0 2.1.7 2.1 2.3v2.3c0 .2.1.3.3.3h.5v1.3h-1.4c-.6 0-.8-.2-.8-.8v-2.9c0-.7-.2-1.2-.9-1.2-.8 0-1.4.5-1.6 1.2-.1.2-.1.5-.1.8v2.7h-1.5z"/><path d="m74.8 7.1c0-.7-.5-1.2-1.1-1.2-.8 0-1.3.5-1.5 1.2zm-1.1-2.3c1.7 0 2.6 1.3 2.6 2.8v.6h-4.1c.1 1.1.9 1.6 1.8 1.6 1 0 1.7-.7 1.7-.7l.6 1s-.9.9-2.4.9c-2 0-3.2-1.4-3.2-3.1 0-1.8 1.2-3.1 3-3.1z"/><path d="m81.3 7.1c0-.7-.5-1.2-1.1-1.2-.8 0-1.3.5-1.5 1.2zm-1.1-2.3c1.7 0 2.6 1.3 2.6 2.8v.6h-4.1c.1 1.1.9 1.6 1.8 1.6 1 0 1.7-.7 1.7-.7l.6 1s-.9.9-2.4.9c-2 0-3.2-1.4-3.2-3.1 0-1.8 1.2-3.1 3-3.1z"/><path d="m84.3 4.1c0-.2-.1-.3-.3-.3h-.5v-1.2h1.5c.6 0 .8.2.8.8v6c0 .2.1.3.3.3h.5v1.3h-1.4c-.6 0-.8-.2-.8-.8v-6.1z"/><path d="m87.7 9s.8.9 1.8.9c.5 0 .8-.2.8-.6 0-.8-3.2-.8-3.2-2.8 0-1.2 1.1-1.7 2.3-1.7.8 0 2.1.3 2.1 1.2v.6h-1.3v-.3c0-.3-.4-.4-.7-.4-.5 0-.9.2-.9.5 0 .9 3.2.7 3.2 2.7 0 1.1-1 1.8-2.3 1.8-1.6.1-2.5-.9-2.5-.9z"/><path d="m48 21.7h.4c.2 0 .2-.1.3-.3l.5-6.8h1.6l1.7 4c.2.5.4 1.1.4 1.1s.2-.6.4-1.1l1.7-4h1.6l.5 6.8c0 .2.1.3.3.3h.4v1.3h-1.3c-.6 0-.7-.2-.8-.8l-.3-3.7c0-.6 0-1.3 0-1.3s-.2.8-.5 1.3l-1.4 3.1h-1.2l-1.4-3.1c-.2-.5-.5-1.3-.5-1.3v1.3l-.3 3.7c0 .6-.2.8-.8.8h-1.3z"/><path d="m62.5 19.3c0-.7-.5-1.2-1.1-1.2-.8 0-1.3.5-1.5 1.2zm-1.1-2.4c1.7 0 2.6 1.3 2.6 2.8v.6h-4.1c.1 1.1.9 1.6 1.8 1.6 1 0 1.7-.7 1.7-.7l.6 1s-.9.9-2.4.9c-2 0-3.2-1.4-3.2-3.1-.1-1.8 1.2-3.1 3-3.1z"/><path d="m69.3 20c0-.9-.5-1.8-1.5-1.8-.8 0-1.5.7-1.5 1.9 0 1.1.6 1.9 1.5 1.9.8-.1 1.5-.7 1.5-2m-1.7-3.1c1.3 0 1.7.7 1.7.7s0-.2 0-.4v-1.1c0-.2-.1-.3-.3-.3h-.5v-1.3h1.5c.6 0 .8.2.8.8v6c0 .2.1.3.3.3h.5v1.4h-1.4c-.5 0-.7-.3-.7-.6v-.2s-.5 1-1.9 1c-1.6 0-2.7-1.3-2.7-3.1 0-2 1.1-3.2 2.7-3.2"/><path d="m72.9 16.1h1.3v-1.4h-1.3zm-.1 2.5c0-.2-.1-.3-.3-.3h-.5v-1.3h1.4c.6 0 .8.2.8.8v3.7c0 .2.1.3.3.3h.5v1.2h-1.4c-.6 0-.8-.2-.8-.8z" mask="url(#a)"/><path d="m78.1 22c.8 0 1.4-.8 1.4-1.6v-.1h-.3c-.8 0-2 .1-2 .9 0 .4.2.8.9.8m1.1-2.7h.2c0-.9-.3-1.2-1.1-1.2-.3 0-.8.1-.8.4v.3h-1.4v-.6c0-1.1 1.6-1.2 2.2-1.2 2 0 2.6 1 2.6 2.4v2.2c0 .2.1.3.3.3h.5v1.1h-1.3c-.6 0-.8-.3-.8-.7 0-.2 0-.3 0-.3s-.5 1.1-1.8 1.1c-1.1 0-2-.7-2-1.9-.1-1.8 2.4-1.9 3.4-1.9" mask="url(#b)"/><path d="m89.5 14.6c2 0 3 1.1 3 1.1l-.9 1.1s-.9-.7-2.1-.7c-1.4 0-2.7 1.1-2.7 2.8 0 1.8 1.2 2.9 2.7 2.9 1.3 0 2.1-.9 2.1-.9v-.6c0-.2-.1-.3-.3-.3h-.3v-1.3h1.3c.6 0 .8.2.8.8v3.5h-1.3v-.4c0-.2 0-.4 0-.4s-.9.9-2.4.9c-2.2 0-4-1.7-4-4.3-.1-2.4 1.7-4.2 4.1-4.2" mask="url(#c)"/><path d="m94.7 18.6c0-.2-.1-.3-.3-.3h-.4v-1.3h1.4c.5 0 .8.2.8.7v.4.4c.3-.9 1-1.5 1.9-1.5h.3v1.5s-.2 0-.4 0c-.6 0-1.4.4-1.6 1.3-.1.3-.1.6-.1 1v2.2h-1.5z" mask="url(#d)"/><path d="m102 21.9c1 0 1.8-.8 1.8-1.9s-.8-1.9-1.8-1.9-1.8.8-1.8 1.9.8 1.9 1.8 1.9m0-5c1.8 0 3.3 1.3 3.3 3.1s-1.5 3.1-3.3 3.1-3.3-1.3-3.3-3.1 1.5-3.1 3.3-3.1" mask="url(#e)"/><path d="m106.6 18.6c0-.2-.1-.3-.3-.3h-.5v-1.3h1.4c.6 0 .8.2.8.8v2.8c0 .7.2 1.2.9 1.2 1.1 0 1.7-.9 1.7-2v-2.8h1.5v4.5c0 .2.1.3.3.3h.5v1.2h-1.4c-.5 0-.8-.2-.8-.7v-.2c0-.1 0-.3 0-.3-.3.6-1 1.2-2.1 1.2-1.3 0-2.1-.6-2.1-2.3z" mask="url(#f)"/><path d="m117 21.9c.8 0 1.5-.7 1.5-1.9 0-1.1-.6-1.9-1.5-1.9-.8 0-1.5.6-1.5 1.9 0 1 .5 1.9 1.5 1.9zm-2.9-3.3c0-.2-.1-.3-.3-.3h-.5v-1.3h1.3c.6 0 .7.2.7.6v.2s.5-.9 1.9-.9c1.6 0 2.7 1.3 2.7 3.1 0 1.9-1.2 3.1-2.7 3.1-1.2 0-1.7-.8-1.7-.8v.5 2.5h-1.5v-6.7z" mask="url(#g)"/></g></g></svg>