<svg height="27" viewBox="0 0 119.25 27" width="119.25" xmlns="http://www.w3.org/2000/svg"><path d="m1.966 0a1.878 1.878 0 0 0 -1.966 1.932 1.953 1.953 0 0 0 1.966 2 1.991 1.991 0 0 0 1.932-2 1.931 1.931 0 0 0 -1.932-1.932z" fill="#931a4a"/><path d="m4.19 22.729a1.707 1.707 0 0 0 -1.695-1.729 1.686 1.686 0 0 0 -1.695 1.729v16.135a1.752 1.752 0 0 0 1.695 1.729 1.686 1.686 0 0 0 1.695-1.729z" fill="#931a4a" transform="translate(-.529 -13.882)"/><path d="m24.135 38.432a10.25 10.25 0 0 0 6.746 2.068c4.271-.034 7.254-2.305 7.288-5.9-.034-2.847-1.661-4.508-5.085-5.39l-2.949-.678c-1.966-.475-2.847-1.22-2.813-2.407a2.279 2.279 0 0 1 .949-1.966 4.84 4.84 0 0 1 2.746-.644 6.67 6.67 0 0 1 3.593.983 2.318 2.318 0 0 0 1.119.305 1.483 1.483 0 0 0 1.119-.475 1.694 1.694 0 0 0 .339-1.051 1.284 1.284 0 0 0 -.508-1.085 9.281 9.281 0 0 0 -5.493-1.692c-4.136.034-7.118 2.2-7.118 5.763 0 2.881 1.966 4.542 5.254 5.356 1.424.373 1.424.339 2.712.644 1.966.441 2.847 1.254 2.847 2.508a2.521 2.521 0 0 1 -.981 2.029 4.446 4.446 0 0 1 -2.78.78 7.751 7.751 0 0 1 -5.02-1.521 2 2 0 0 0 -1.051-.339 1.384 1.384 0 0 0 -1.186.644 1.483 1.483 0 0 0 -.271.847 1.559 1.559 0 0 0 .543 1.221z" fill="#931a4a" transform="translate(-15.593 -13.551)"/><path d="m145.746 7.376a12.556 12.556 0 0 0 -4.813 1.085l-.407.169v-6.1a1.788 1.788 0 0 0 -1.763-1.73 1.744 1.744 0 0 0 -1.763 1.729v21.389a1.287 1.287 0 0 0 .678 1.254 14.111 14.111 0 0 0 7.491 2.271c4.983-.034 7.932-2.983 8.3-7.491.068-.746.1-1.9.1-2.983a22.121 22.121 0 0 0 -.1-2.305l.305-.034-.305.034c-.334-4.542-2.978-7.254-7.723-7.288zm4.407 12.169-.271-.034.271.034c-.237 2.983-1.966 4.678-4.915 4.678h-.1a9.438 9.438 0 0 1 -4.474-1.356l-.136-.1v-10.849l.169-.1a11.089 11.089 0 0 1 4.813-1.22c2.949-.034 4.508 1.627 4.678 4.474.034.576.034 1.525.034 2.475-.002.744-.036 1.453-.07 1.998z" fill="#941b49" transform="translate(-90.56 -.529)"/><g fill="#931a4a"><path d="m263.39 2.629a1.729 1.729 0 0 0 -1.695-1.729 1.686 1.686 0 0 0 -1.695 1.729v22.948a1.752 1.752 0 0 0 1.695 1.729 1.647 1.647 0 0 0 1.695-1.729z" transform="translate(-171.866 -.595)"/><path d="m214.035 28.03c-.034-4.915-2.881-7.8-7.8-7.83a7.867 7.867 0 0 0 -8.271 7.627c-.034.576-.068 1.39-.068 2.237s.034 1.695.068 2.407c.305 4.61 3.424 7.8 8.474 7.83a13.2 13.2 0 0 0 5.966-1.288 1.522 1.522 0 0 0 .881-1.424 1.417 1.417 0 0 0 -1.458-1.424 2.2 2.2 0 0 0 -.847.169 13.289 13.289 0 0 1 -4.407.983c-2.983.034-5.254-1.83-5.322-4.78v-4.137c.034-2.847 1.8-5.119 5.017-5.119a5.883 5.883 0 0 1 3.458.847 3.352 3.352 0 0 1 1.356 2.949v.441a.835.835 0 0 1 -.746.847h-5.9v2.61h7.627c1.559-.034 1.9-.61 1.966-1.9z" transform="translate(-130.817 -13.353)"/><path d="m84.821 40.3a13.935 13.935 0 0 0 7.593-2.068c.475-.339.475-.542.475-1.22v-9.8c-.034-4.949-2.678-6.949-7.424-7.017a14.535 14.535 0 0 0 -5.593 1.119 1.613 1.613 0 0 0 -1.119 1.559 1.351 1.351 0 0 0 1.525 1.356 2.74 2.74 0 0 0 .847-.136 13.192 13.192 0 0 1 4.237-.847 4.938 4.938 0 0 1 3.39.949 3.649 3.649 0 0 1 1.085 3.017v8.888l-.136.1a7.8 7.8 0 0 1 -4.542 1.22 5.38 5.38 0 0 1 -3.254-.881 3.081 3.081 0 0 1 -1.186-2.576 2.541 2.541 0 0 1 1.322-2.271 6.062 6.062 0 0 1 3.051-.678h1.661v-2.679h-1.864c-5.186.034-7.39 2.644-7.39 5.763-.034 3.525 2.271 6.169 7.322 6.202z" transform="translate(-51.229 -13.353)"/><path d="m318.937 19.016a7.727 7.727 0 0 0 -5.152-3.356 10.561 10.561 0 0 0 -1.763-.136l3.593-5.356a1.613 1.613 0 0 0 -.373-2.237 1.55 1.55 0 0 0 -2.2.407l-3.017 4.441-2.746 3.932a25.8 25.8 0 0 0 -1.729 2.542 8.582 8.582 0 0 0 -1.288 3.22 7.81 7.81 0 0 0 1.39 6.068 7.958 7.958 0 0 0 5.085 3.39h.034a7.892 7.892 0 0 0 6.068-1.424 8.164 8.164 0 0 0 3.322-5.322v-.034a8.376 8.376 0 0 0 -1.224-6.135zm-7.627 9.864a4.519 4.519 0 0 1 -3.119-2.068v-.034a5.11 5.11 0 0 1 -.814-3.864 5.047 5.047 0 0 1 2.1-3.356h.034a4.408 4.408 0 0 1 3.627-.847 4.48 4.48 0 0 1 3.152 2.068 4.983 4.983 0 0 1 .78 3.83 5.22 5.22 0 0 1 -2.031 3.391 4.651 4.651 0 0 1 -3.729.88z" transform="translate(-201.041 -5.05)"/></g></svg>