<svg enable-background="new 0 0 230 60" viewBox="0 0 230 60" xmlns="http://www.w3.org/2000/svg" xmlns:xlink="http://www.w3.org/1999/xlink"><linearGradient id="a" gradientTransform="matrix(1 0 0 -44 178 20841.002)" gradientUnits="userSpaceOnUse" x1="-11.9613" x2="-11.9613" y1="472.6017" y2="473.5318"><stop offset="0" stop-color="#efff62"/><stop offset=".5" stop-color="#86e7ca" stop-opacity=".99"/><stop offset="1" stop-color="#2362e0"/></linearGradient><g transform="translate(192 8)"><path clip-rule="evenodd" d="m-13.1 6.8v-7.1h.4.4v7.1c-.1 0-.3 0-.4 0-.1.1-.3.1-.4 0z" fill-rule="evenodd"/><path clip-rule="evenodd" d="m-6.3 3.5c0-.4-.1-.7-.2-.9s-.3-.3-.5-.3-.5.1-.7.2-.5.3-.7.6v3.7c-.1 0-.2 0-.4 0s-.3 0-.4 0v-5l.1-.1h.3c.2 0 .3 0 .3.1.1.1.1.2.1.4v.2c.4-.5 1-.7 1.5-.7s1 .3 1.2.8c.6-.6 1.2-.9 1.7-.9.4 0 .8.1 1 .4s.3.7.3 1.2v2.6c0 .4 0 .7.1.9 0 .2-.2.2-.4.2-.3 0-.4-.2-.4-.5v-2.9c0-.4-.1-.7-.2-.9s-.3-.3-.5-.3-.5.1-.7.2c-.3.1-.5.3-.7.6v3.7c-.1 0-.2 0-.4 0s-.3 0-.4 0z" fill-rule="evenodd"/><path d="m1 6.5v2.1c0 .2 0 .3-.1.4 0 0-.2.1-.3.1h-.3l-.1-.1v-7.2l.1-.1h.3c.2 0 .3 0 .3.1.1.1.1.3.1.5v.1c.4-.5.9-.7 1.5-.7s1 .2 1.4.7.5 1.1.5 2c0 .4-.1.8-.2 1.1s-.3.5-.5.7c-.2.3-.4.4-.6.6s-.5.1-.7.1c-.5 0-1-.1-1.4-.4zm0-3.4v2.7c.4.3.8.5 1.2.5s.7-.2.9-.5.4-.8.4-1.5c0-.3 0-.6-.1-.9 0-.3-.1-.5-.2-.6-.1-.2-.2-.3-.4-.4-.1-.1-.2-.1-.4-.1-.3 0-.6.1-.8.2s-.4.4-.6.6z"/><path clip-rule="evenodd" d="m6.4 2.1c.1-.2.2-.3.3-.4.4.1.6.5.8.9.2-.6.7-.9 1.4-.9h.5c0 .3-.1.5-.2.7-.1 0-.2 0-.4 0-.6 0-1 .3-1.3.9v3.5c-.1 0-.2 0-.4 0s-.3 0-.4 0v-3.6c0-.5-.1-.9-.3-1.1z" fill-rule="evenodd"/><path d="m14.4 6.4c-.4.4-.9.6-1.5.6-.3 0-.7-.1-.9-.2-.3-.1-.5-.3-.7-.5-.2-.3-.3-.6-.4-.9s-.1-.7-.1-1.1 0-.8.1-1.1.2-.6.4-.9.4-.4.7-.5.6-.2.9-.2.7.1.9.2.5.3.7.5.3.5.4.9.1.7.1 1.1c.1.9-.1 1.6-.6 2.1zm-1.5 0c.5 0 .8-.2 1-.6s.4-.9.4-1.5c0-.3 0-.5-.1-.8s-.1-.5-.2-.7-.3-.3-.4-.5c-.2-.1-.4-.2-.6-.2s-.4.1-.6.2-.3.3-.4.4c-.1.2-.2.4-.2.7-.1.3-.1.5-.1.8s0 .6.1.8.1.5.2.7.3.3.4.4c.1.2.3.3.5.3z"/><path clip-rule="evenodd" d="m18.7 6.2 1.4-4.5h.3s.2 0 .4.1c-.6 2-1.2 3.7-1.7 5.1-.1 0-.3.1-.5.1s-.3 0-.4-.1-.1-.2-.2-.4l-1.6-4.6c.2-.1.3-.1.5-.1s.3.1.4.3l.8 2.5c.2.7.4 1.2.5 1.7 0-.1.1-.1.1-.1z" fill-rule="evenodd"/><path d="m23.8 2.4v4.4c-.1 0-.3 0-.4 0-.2 0-.3 0-.4 0v-4c0-.2 0-.3-.1-.4s-.2-.1-.4-.1h-.1c0-.1 0-.2 0-.3s0-.2 0-.3h.3.2.1c.2 0 .4.1.5.2s.3.3.3.5zm-1.1-2.5c.1-.1.3-.1.5-.1s.4 0 .4.1c.1.1.1.2.1.4s0 .3-.1.4-.2.1-.4.1-.3 0-.4-.1-.2-.2-.2-.4c0-.1 0-.3.1-.4z"/><path clip-rule="evenodd" d="m30.5 3.3v2.6c0 .4 0 .7.1.9-.1.1-.3.2-.5.2-.3 0-.4-.2-.4-.5v-3c0-.4-.1-.7-.2-.9s-.3-.3-.6-.3-.6.1-.9.2-.6.3-.8.6v3.7c-.1 0-.2 0-.4 0s-.3 0-.4 0v-5l.1-.1h.3c.2 0 .3 0 .3.1.1.1.1.2.1.4v.1c.2-.2.5-.4.8-.5s.6-.2 1-.2c.5 0 .8.1 1 .4.4.4.5.8.5 1.3z" fill-rule="evenodd"/><path d="m36.4 2.2c.1-.2.3-.4.6-.5.2.1.3.2.3.4-.2.2-.3.6-.3 1.1v3.3c0 .5 0 .9-.1 1.2s-.2.6-.4.8-.4.4-.6.5c-.3.1-.5.1-.9.1-.7 0-1.3-.1-1.8-.4 0-.2.1-.4.2-.6.5.2 1 .3 1.4.3.3 0 .5 0 .7-.1s.3-.2.4-.3.2-.3.2-.5.1-.4.1-.7v-.6c-.5.5-1 .7-1.5.7-.6 0-1-.2-1.3-.7s-.4-1.1-.4-1.9c0-.4.1-.8.2-1.1s.3-.6.4-.8c.2-.2.4-.4.6-.5s.5-.2.8-.2c.5-.1 1 .1 1.4.5zm-.1 3.3v-2.7c-.2-.2-.4-.3-.6-.4s-.4-.1-.6-.1c-.4 0-.7.2-.9.5s-.4.9-.4 1.5.1 1.2.3 1.5.5.5.8.5.6-.1.8-.2c.2-.2.4-.4.6-.6z"/></g><g transform="translate(192 25)"><path d="m-13.1 5.5-.1-6.8.1-.1h2.1c.8 0 1.3.2 1.7.5s.5.8.5 1.3c0 .3 0 .6-.2.9s-.4.4-.8.6c.2.1.4.1.5.2.2.1.3.2.4.4.2.1.3.3.4.5s.1.4.1.7c0 .2 0 .5-.1.7s-.3.4-.5.6-.5.3-.8.4-.7.2-1.1.2zm.8-6.3v2.4h1.3c.3 0 .5 0 .7-.1s.3-.1.4-.3c.1-.1.2-.2.2-.4s.1-.3.1-.5c0-.8-.5-1.2-1.4-1.2-.3 0-.6 0-.8 0-.2.1-.4.1-.5.1zm0 5.7h1.5c.3 0 .5 0 .7-.1s.4-.2.5-.3c.1-.2.2-.3.3-.5s.1-.3.1-.5c0-.1 0-.3-.1-.5s-.1-.3-.3-.4c-.1-.1-.3-.2-.5-.3s-.5-.1-.8-.1h-1.4z"/><path clip-rule="evenodd" d="m-6 4v-2.5c0-.4 0-.6-.1-.9.1-.1.3-.1.5-.1.3 0 .4.2.4.5v2.8c0 .4.1.7.2.9s.3.3.6.3.6-.1.9-.2c.2-.3.5-.4.7-.7v-3.6h.2.2s.1 0 .2 0h.2v3.6c0 .5.1.9.3 1.1-.1.2-.2.3-.4.4-.3-.1-.6-.4-.7-.8-.2.2-.5.4-.8.6-.3.1-.7.2-1 .2-.5 0-.8-.1-1-.4-.3-.3-.4-.7-.4-1.2z" fill-rule="evenodd"/><path clip-rule="evenodd" d="m.2 5.1c0-.2.1-.4.3-.5.3.2.6.3.9.4h.7.4s.2-.1.3-.2c.2-.1.2-.2.3-.2.1-.1.1-.2.1-.3 0-.2-.1-.4-.2-.5s-.3-.3-.6-.4l-.6-.2c-.5-.2-.8-.3-1-.6-.2-.2-.4-.5-.4-.8 0-.2 0-.4.1-.6.2-.1.3-.3.5-.4s.4-.2.6-.3c.2 0 .4-.1.7-.1.5 0 1 .1 1.6.3 0 .2-.1.4-.2.6-.4-.1-.6-.2-.9-.2-.2 0-.4-.1-.6-.1-.3 0-.5.1-.7.2-.2.2-.2.3-.2.5s.1.3.2.5c.1.1.3.2.5.3l.6.2c.9.4 1.4.9 1.4 1.5 0 .5-.2.8-.6 1.1-.3.2-.8.3-1.4.3s-1.2-.2-1.8-.5z" fill-rule="evenodd"/><path d="m7.3 1.2v4.3c-.1 0-.3 0-.4 0-.2 0-.3 0-.4 0v-3.9c0-.2 0-.3-.1-.4s-.3-.1-.4-.1h-.1c0-.1 0-.2 0-.3s0-.2 0-.3h.3.2.1c.2 0 .4.1.5.2.2.1.3.3.3.5zm-1.1-2.4c.1-.1.3-.1.5-.1s.4 0 .5.1c0 .1.1.2.1.4s0 .3-.1.4c-.2 0-.3.1-.5.1s-.3 0-.4-.1c-.1 0-.2-.2-.2-.4s0-.3.1-.4z"/><path clip-rule="evenodd" d="m14 2v2.5c0 .4 0 .7.1.9-.1.1-.3.2-.5.2-.3 0-.4-.2-.4-.5v-2.8c0-.4-.1-.7-.2-.9s-.3-.3-.6-.3-.6.1-.9.2-.6.3-.8.6v3.6c-.1 0-.2 0-.4 0s-.3 0-.4 0v-4.9l.1-.1h.3c.2 0 .3 0 .3.1.1.1.1.2.1.4v.1c.2-.2.5-.4.8-.5s.7-.2 1-.2c.5 0 .8.1 1 .4.4.4.5.8.5 1.2z" fill-rule="evenodd"/><path d="m20.6 3.2h-3.3c0 1.1.5 1.7 1.4 1.7.5 0 1-.1 1.5-.4.2.1.2.3.3.5-.6.4-1.2.6-2 .6-.4 0-.7-.1-.9-.2s-.4-.3-.6-.5-.3-.5-.4-.8-.1-.7-.1-1c0-.4 0-.7.1-1.1.1-.3.2-.6.4-.8s.4-.4.7-.5.6-.2.9-.2.6.1.9.2.5.1.6.3c.2.2.3.4.4.7s.1.6.1.9v.3c.1.1 0 .2 0 .3zm-3.3-.5h2.5v-.2c0-.5-.1-.8-.3-1.1-.1-.3-.4-.4-.8-.4s-.7.2-.9.5c-.3.2-.4.7-.5 1.2z"/><g clip-rule="evenodd" fill-rule="evenodd"><path d="m22.4 5.1c0-.2.1-.4.3-.5.3.2.6.3.9.4h.6c.2 0 .3 0 .5-.1.1 0 .2-.1.3-.2s.2-.1.2-.2c.1-.1.1-.2.1-.3 0-.2-.1-.4-.2-.5s-.3-.3-.6-.3l-.6-.2c-.5-.2-.8-.4-1-.6s-.3-.5-.3-.8c0-.2 0-.4.1-.6s.2-.3.4-.4.4-.2.6-.3.5-.1.7-.1c.5 0 1 .1 1.6.3 0 .2-.1.4-.2.6-.3-.1-.5-.2-.7-.2s-.4-.1-.6-.1c-.3 0-.6.1-.7.2-.2.1-.2.3-.2.5s.1.3.2.5.3.2.6.3l.6.2c.9.3 1.3.8 1.3 1.5 0 .5-.2.8-.5 1.1-.4.3-.8.4-1.5.4-.8-.1-1.4-.3-1.9-.6z"/><path d="m27.9 5.1c0-.2.1-.4.3-.5.3.2.6.3.9.4h.7.4c.1 0 .2-.1.3-.2s.2-.1.2-.2c.1-.1.1-.2.1-.3 0-.2-.1-.4-.2-.5s-.3-.3-.6-.3l-.6-.2c-.5-.2-.8-.4-1-.6s-.3-.5-.3-.8c0-.2 0-.4.1-.6s.2-.3.4-.4.4-.2.6-.3.5-.1.7-.1c.5 0 1 .1 1.6.3 0 .2-.1.4-.2.6-.3-.1-.5-.2-.7-.2s-.4-.1-.6-.1c-.3 0-.6.1-.7.2-.3.1-.3.2-.3.4s.1.3.2.5.3.2.6.3l.6.2c.9.3 1.3.8 1.3 1.5 0 .5-.2.8-.5 1.1-.4.3-.8.4-1.5.4-.6-.1-1.2-.3-1.8-.6z"/></g></g><g transform="translate(192 41)"><path d="m-9.2 5c-.1.1-.2.2-.4.2-.1.1-.2.2-.4.2s-.3.1-.5.1-.3 0-.4 0-.4 0-.7 0c-.4 0-.8 0-1.5 0l-.1-.1v-7.2l.1-.1h2.1c.5 0 1 .1 1.4.3s.7.5.9.8.4.8.4 1.2c.1.5.1.9.1 1.5v1c0 .3-.1.6-.2.8s-.2.5-.3.7-.3.4-.5.6zm-3.1-.1h1.4c.4 0 .7-.1 1-.2.2-.2.4-.4.5-.7s.3-.6.3-.9c.1-.3.1-.6.1-1s0-.9 0-1.3-.1-.7-.3-1-.4-.5-.7-.7-.6-.2-1-.2h-1.4z"/><path d="m-4.6 1v4.5c-.1 0-.2 0-.4 0s-.3 0-.4 0v-4.1c0-.2 0-.3-.1-.4s-.2-.1-.4-.1h-.1c0-.1 0-.2 0-.3s0-.2 0-.3h.3.2.1c.2 0 .4.1.5.2s.3.3.3.5zm-1.1-2.6c.1-.1.3-.1.5-.1s.4 0 .4.1c.1.1.1.2.1.4s0 .3-.1.4-.2.1-.4.1-.3 0-.4-.1-.2-.2-.2-.4c0-.1 0-.3.1-.4z"/><path d="m1.2.7c.1-.2.3-.4.6-.5.1.1.2.2.3.4-.2.2-.3.6-.3 1.2v3.4c0 .5 0 .9-.1 1.3-.1.2-.3.5-.4.8-.2.2-.4.3-.6.4-.3.1-.6.2-.9.2-.7 0-1.3-.1-1.8-.4 0-.2.1-.5.2-.6.5.2.9.3 1.4.3.3 0 .5 0 .7-.1s.4-.2.5-.3.2-.3.2-.6c0-.2.1-.4.1-.7v-.6c-.5.5-1 .7-1.5.7-.6 0-1-.2-1.3-.7s-.5-1.2-.5-2c0-.4.1-.8.2-1.2s.2-.6.4-.9c.1-.2.4-.3.6-.5s.5-.2.7-.2c.6 0 1 .2 1.5.6zm-.2 3.4v-2.7c-.2-.2-.4-.4-.6-.4s-.4-.2-.6-.2c-.4 0-.7.2-.9.5s-.4.9-.4 1.6.1 1.2.3 1.5.5.5.7.5.6-.1.8-.2c.4-.1.6-.3.7-.6z"/><path d="m5.6 1v4.5c-.1 0-.3 0-.4 0-.2 0-.3 0-.4 0v-4.1c0-.2 0-.3-.1-.4s-.3-.1-.4-.1h-.1c0-.1 0-.2 0-.3s0-.2 0-.3h.3.2.1c.2 0 .4.1.5.2.2.1.3.3.3.5zm-1.1-2.6c.1 0 .2-.1.5-.1.2 0 .4 0 .4.1.1.1.1.2.1.4s0 .3-.1.4-.2.1-.4.1-.3 0-.4-.1c-.2 0-.2-.1-.2-.4 0-.1 0-.3.1-.4z"/><path clip-rule="evenodd" d="m10.5.3v.3s0 .2 0 .3h-1.3v3.6c0 .3.1.4.4.4h.8c.1.1.1.2.1.4s0 .2 0 .2c-.3 0-.7.1-1 .1-.7 0-1-.3-1-.9v-3.8h-.7c0-.1 0-.2 0-.3s0-.2 0-.3h.7v-1.1c0-.2 0-.3.1-.4s.2-.1.3-.1h.3l.1.1v1.6z" fill-rule="evenodd"/><path d="m15.8 5.2c-.1.2-.2.3-.4.4-.3-.1-.6-.4-.6-.7-.5.5-1.1.8-1.6.8-.3 0-.5 0-.7-.1s-.4-.2-.5-.3c0-.3-.1-.4-.2-.6s-.1-.4-.1-.6c0-.3 0-.5.1-.8s.2-.4.4-.5.4-.2.6-.3.5-.1.7-.1c.5 0 .9 0 1.3.1v-.6c0-.7-.3-1.1-.9-1.1-.5 0-1 .2-1.7.4-.2-.2-.3-.4-.3-.6.7-.3 1.4-.5 2-.5 1.1 0 1.6.6 1.6 1.8v2.2c0 .3 0 .5.1.6.1.3.1.4.2.5zm-1-1.1v-1c-.2 0-.3 0-.5-.1-.2 0-.4 0-.6 0-.4 0-.7.1-.9.3s-.3.4-.3.7.1.5.2.7c.2.2.4.3.6.3.3 0 .5-.1.8-.2.2-.2.5-.4.7-.7z"/><g clip-rule="evenodd" fill-rule="evenodd"><path d="m19.4 4.9h.4c0 .1 0 .1.1.2v.2.1.1c-.1 0-.2 0-.3.1-.1 0-.2 0-.3 0-.3 0-.5-.1-.7-.2s-.3-.4-.3-.7v-7l.1-.1h.3c.2 0 .3 0 .3.1 0 .2.1.3.1.5v6.3c0 .3.1.4.3.4z"/><path d="m23.4 4.9h.4c0 .1 0 .1.1.2v.2.1.1c-.1 0-.2 0-.3.1-.1 0-.2 0-.3 0-.3 0-.5-.1-.7-.2s-.3-.4-.3-.7v-7l.1-.1h.3c.2 0 .3 0 .3.1-.1.2 0 .3 0 .5v6.3c0 .3.1.4.4.4z"/><path d="m29 .3-1.4 5c-.3.9-.5 1.6-.8 1.9-.3.4-.7.6-1.3.6-.3 0-.6 0-.8-.1 0-.2 0-.4.2-.6.2.1.4.1.7.1.4 0 .7-.1.8-.4.2-.3.4-.7.5-1.2v-.1c-.2 0-.3-.1-.4-.1-.1-.1-.2-.2-.2-.4l-1.5-4.7c.2-.1.4-.1.5-.1.2 0 .3.1.4.4l.8 2.7c0 .1.2.6.5 1.7-.2 0-.1 0-.1 0l1.3-4.7h.4s.2-.1.4 0z"/></g></g><g clip-rule="evenodd" fill-rule="evenodd"><path d="m166 46.5c-.3 0-.5-.2-.5-.4v-40.1c0-.2.2-.4.5-.4s.5.2.5.4v40.1c0 .2-.2.4-.5.4z" fill="url(#a)"/><g transform="translate(0 3.457447)"><path d="m6.8 7c1.7-.1 2.8-.3 3.2-.6s.7-1.3.8-3c-.1-1.9-.5-2.9-1-3.1-.5-.2-1.5-.3-3-.5-1.8.1-3 .3-3.4.7s-.7 1.4-.7 2.9c0 1.1.2 2 .6 2.8.7.5 1.9.8 3.5.8z"/><path d="m6.2 11.8h-.8c-.8 0-1.6 0-2.3.1s-1.6.1-2.3.2c-.1.5-.2.9-.3 1.3 0 .4-.1.7-.1 1.1s0 .7.1 1.1c0 .4.1.8.3 1.2h1.2c1 0 1.7.3 2.1.8s.6 1.3.6 2.5v25c0 1.1-.1 2-.2 2.8s-.4 1.5-.7 2.1-.8 1.1-1.4 1.6-1.3.9-2.2 1.3c.2 1.6.8 3 1.9 4 1.5-.4 2.8-.8 4-1.3 1.1-.5 2.1-1.2 2.8-2.3.8-1 1.3-2.5 1.7-4.2.4-1.8.6-4.1.6-7.1v-24.6c0-1.8-.4-3.1-1.3-4.1s-2.1-1.5-3.7-1.5z"/></g><path d="m33.4 28.6-3.8-1.4c-1.4-.5-2.4-1.1-3-1.6s-.9-1.3-.9-2.3.4-1.8 1.2-2.5 1.9-1 3.3-1c2.6 0 5.4.7 8.4 2.1.6-.5 1.1-1.2 1.4-2.1.4-.9.5-1.8.5-2.6-3.4-1.5-6.7-2.3-10.1-2.3s-6.1.8-8.2 2.5-3.1 3.9-3.1 6.8c0 4 2.7 7 8 9l3.5 1.3c2.6 1 4 2.4 4 4.3 0 1.2-.5 2.1-1.5 2.8s-2.6 1.1-4.7 1.1-4.8-.9-8.2-2.8c-.5.5-1 1.2-1.4 2.1s-.7 1.7-.7 2.4c3.5 2.1 7.1 3.1 11 3.1s6.8-.8 9.1-2.5c2.2-1.7 3.3-4 3.3-6.9-.1-4.3-2.8-7.5-8.1-9.5z"/><path d="m56.1 15.6v-9.3l-.4-.4h-2.5c-1.3 0-2.2.3-2.7.9s-.8 1.7-.8 3.2v5.5l-4.7-.1c-.2.8-.3 1.6-.3 2.5s.1 1.6.3 2.4l4.7-.1v20.1c0 4.3 2.2 6.5 6.6 6.5 2.3 0 4.6-.1 7.1-.4.1-.3.1-.9.1-1.9s-.2-1.9-.5-2.8h-4.3c-1.7 0-2.6-.9-2.6-2.8v-18.8l7.7.1c.2-.7.3-1.5.3-2.4s-.1-1.7-.3-2.5z"/><path d="m120.8 27.7c2.2 0 3.3-1.2 3.3-3.6 0-1.2-.3-2.3-.8-3.5s-1.3-2.2-2.3-3c-1-.9-2.2-1.6-3.6-2.1s-3-.8-4.8-.8-3.4.4-5 1.1-3 1.7-4.2 3.1c-1.2 1.3-2.2 3-2.9 5s-1.1 4.3-1.1 6.8.3 4.7.8 6.8 1.3 3.8 2.4 5.3 2.4 2.6 4 3.4 3.5 1.2 5.8 1.2c4.4 0 8.2-1.6 11.3-4.7-.2-.7-.5-1.4-1.1-2.2-.5-.8-1.1-1.3-1.7-1.6-2.7 2.1-5.3 3.1-7.6 3.1-4.7 0-7.1-3.6-7.1-10.8 0-3.8.5-6.7 1.6-8.6s2.6-2.9 4.6-2.9c3.7 0 5.5 2.4 5.5 7.1v.7c.9.2 1.8.2 2.9.2z"/><path d="m154 40.1-2.1-5.2c-1.3-3.1-3.2-5-5.8-5.7.8-.6 1.4-1.4 2.1-2.5l6.9-10.9-.4-.5c-.8 0-2-.1-3.7-.1s-3 .9-4 2.8l-5.5 8.7c-.3.6-.8.9-1.5.9l-2.1.1v-23.2c0-1.5-.3-2.6-.8-3.2s-1.4-.9-2.7-.9h-2.5l-.4.4v45.9c.8.2 1.9.3 3.2.3s2.4-.1 3.2-.3v-13.5c1.3-.1 2.5-.1 3.5-.1s1.9.3 2.6.8 1.4 1.7 2.1 3.3l2.5 6.2c.5 1.3 1.1 2.2 1.6 2.8.6.6 1.4.8 2.5.8 1.7 0 3.2-.7 4.3-2-1.1-.7-2.1-2.4-3-4.9z"/><path d="m93.2 25.3c0-3.5-.9-6.2-2.7-7.9s-4.4-2.6-7.6-2.6c-4.4 0-8.8 1-13.1 2.9 0 2.1.7 3.7 1.9 4.7 4.2-1.6 7.5-2.5 9.9-2.5 3.5 0 5.2 1.9 5.2 5.7v12.8c-2.3 2.5-4.8 3.8-7.5 3.8-1.3 0-2.3-.4-3.1-1.3s-1.1-2.1-1.1-3.6c0-1.6.5-2.8 1.6-3.7.9-.8 2.2-1.3 3.8-1.4.2-.9.3-1.9.2-2.8s-.2-1.5-.3-1.8c-3.5.1-6.3.9-8.5 2.6-2.2 1.8-3.3 4.4-3.3 7.8 0 1.2.2 2.4.6 3.5s1 2.1 1.8 3 1.8 1.5 3 2.1c1.2.5 2.6.8 4.2.8 3.2 0 6.2-1.4 9.2-4.3.9 2.1 2.6 3.4 5.1 3.9 1.1-.7 2-1.8 2.5-3.3-1.2-1-1.8-2.8-1.8-5.4z"/></g></svg>