<?xml version="1.0" encoding="UTF-8"?>
<svg width="26px" height="26px" viewBox="0 0 26 26" version="1.1" xmlns="http://www.w3.org/2000/svg" xmlns:xlink="http://www.w3.org/1999/xlink">
    <title>LinkedIn</title>
    <g id="li-logo-icon" fill="#0073b1" fill-rule="nonzero">
        <path d="M24.1428571,0 L1.85133929,0 C0.829910714,0 0,0.841517857 0,1.87455357 L0,24.1254464 C0,25.1584821 0.829910714,26 1.85133929,26 L24.1428571,26 C25.1642857,26 26,25.1584821 26,24.1254464 L26,1.87455357 C26,0.841517857 25.1642857,0 24.1428571,0 Z M7.85803571,22.2857143 L4.00446429,22.2857143 L4.00446429,9.87767857 L7.86383929,9.87767857 L7.86383929,22.2857143 L7.85803571,22.2857143 Z M5.93125,8.18303571 C4.69508929,8.18303571 3.696875,7.17901786 3.696875,5.94866071 C3.696875,4.71830357 4.69508929,3.71428571 5.93125,3.71428571 C7.16160714,3.71428571 8.165625,4.71830357 8.165625,5.94866071 C8.165625,7.18482143 7.16741071,8.18303571 5.93125,8.18303571 L5.93125,8.18303571 Z M22.303125,22.2857143 L18.4495536,22.2857143 L18.4495536,16.25 C18.4495536,14.8107143 18.4205357,12.959375 16.4473214,12.959375 C14.4392857,12.959375 14.1316964,14.5263393 14.1316964,16.1455357 L14.1316964,22.2857143 L10.278125,22.2857143 L10.278125,9.87767857 L13.975,9.87767857 L13.975,11.5723214 L14.0272321,11.5723214 C14.54375,10.5973214 15.803125,9.57008929 17.6776786,9.57008929 C21.5776786,9.57008929 22.303125,12.1410714 22.303125,15.4839286 L22.303125,22.2857143 L22.303125,22.2857143 Z"></path>
    </g>
</svg>
