<svg id="mediahuis" xmlns="http://www.w3.org/2000/svg" viewBox="0 0 424.3 77.9"><style>.st2{fill:#d53d18}</style><path fill="#d8d9d8" d="M67.5 58.5L33.7 39 0 58.5v-39L33.7 39l33.8-19.5z"/><path fill="#f39200" d="M33.7 39L0 19.5 33.7 0z"/><path class="st2" d="M33.7 39V0l33.8 19.5z"/><path fill="#aaafb2" d="M33.7 77.9L0 58.5 33.7 39l33.8 19.5z"/><path class="st2" d="M128.4 47.3h.2l9.7-27.9h9.9v37.9h-7.6V31.4h-.2L131 57.3h-5.2l-9.4-26h-.2v25.9h-7.6V19.4h10l9.8 27.9zM182.2 40.7h-14.1v10.8h16.7v5.8h-24.3V19.4h24.3v5.9h-16.7v9.5h14.1v5.9zM195.5 57.3V19.4h13.2c4.6 0 8.5 1.5 11.5 4.4 3 3 4.5 6.8 4.5 11.4v6.3c0 4.7-1.5 8.5-4.5 11.4-3 2.9-6.8 4.4-11.5 4.4h-13.2zm7.6-32v26.2h5.6c2.5 0 4.5-.9 6-2.8s2.3-4.3 2.3-7.2v-6.3c0-2.9-.8-5.3-2.3-7.1-1.5-1.9-3.5-2.8-6-2.8h-5.6zM243.2 57.3h-7.6V19.4h7.6v37.9zM276.3 49.1H264l-2.6 8.2h-7.9l12.8-37.9h7.8l12.7 37.9h-7.9l-2.6-8.2zm-10.4-5.9h8.6l-4.2-13.4h-.2l-4.2 13.4zM323.9 57.3h-3.1V39.9h-21.5v17.4h-3.1V19.4h3.1v17.8h21.5V19.4h3.1v37.9zM365.5 19.4v25.2c0 4.2-1.3 7.4-3.8 9.8-2.6 2.3-5.8 3.5-9.8 3.5-4 0-7.2-1.2-9.7-3.5-2.5-2.4-3.8-5.6-3.8-9.8V19.4h3.1v25.2c0 3.3 1 5.9 2.9 7.8 1.9 1.9 4.4 2.9 7.4 2.9 3.1 0 5.6-1 7.6-2.9s3-4.5 3-7.8V19.4h3.1zM383.9 57.3h-3.1V19.4h3.1v37.9zM421.2 48.1c0-1.9-.8-3.6-2.3-4.8-1.5-1.3-4.2-2.5-7.9-3.6-4-1.1-7.1-2.5-9.2-4.2-2.1-1.7-3.2-3.9-3.2-6.8s1.2-5.3 3.5-7.1c2.4-1.9 5.4-2.8 9-2.8 3.9 0 7 1.1 9.3 3.2 2.3 2.1 3.5 4.8 3.4 8l-.1.2h-2.9c0-2.5-.9-4.6-2.7-6.2-1.8-1.6-4.2-2.5-7-2.5-3 0-5.3.7-6.9 2.1-1.7 1.4-2.5 3.1-2.5 5.1 0 1.9.8 3.5 2.3 4.8 1.5 1.2 4.2 2.4 8 3.5 4 1.2 7 2.6 9.1 4.3 2.1 1.7 3.2 4 3.2 6.8 0 3-1.2 5.3-3.7 7.1-2.5 1.8-5.6 2.7-9.3 2.7-3.7 0-7-1-9.8-2.9-2.8-1.9-4.1-4.7-4-8.3l.1-.2h2.9c0 2.9 1.1 5.1 3.3 6.6 2.2 1.4 4.7 2.1 7.6 2.1 2.9 0 5.3-.7 7.1-2 1.7-1.3 2.7-3 2.7-5.1z"/></svg>