<svg viewBox="0 0 424.3 77.9" xmlns="http://www.w3.org/2000/svg"><path d="m67.5 58.5-33.8-19.5-33.7 19.5v-39l33.7 19.5 33.8-19.5z" fill="#d8d9d8"/><path d="m33.7 39-33.7-19.5 33.7-19.5z" fill="#f39200"/><path d="m33.7 39v-39l33.8 19.5z" fill="#d53d18"/><path d="m33.7 77.9-33.7-19.4 33.7-19.5 33.8 19.5z" fill="#aaafb2"/><path d="m128.4 47.3h.2l9.7-27.9h9.9v37.9h-7.6v-25.9h-.2l-9.4 25.9h-5.2l-9.4-26h-.2v25.9h-7.6v-37.8h10zm53.8-6.6h-14.1v10.8h16.7v5.8h-24.3v-37.9h24.3v5.9h-16.7v9.5h14.1zm13.3 16.6v-37.9h13.2c4.6 0 8.5 1.5 11.5 4.4 3 3 4.5 6.8 4.5 11.4v6.3c0 4.7-1.5 8.5-4.5 11.4s-6.8 4.4-11.5 4.4zm7.6-32v26.2h5.6c2.5 0 4.5-.9 6-2.8s2.3-4.3 2.3-7.2v-6.3c0-2.9-.8-5.3-2.3-7.1-1.5-1.9-3.5-2.8-6-2.8zm40.1 32h-7.6v-37.9h7.6zm33.1-8.2h-12.3l-2.6 8.2h-7.9l12.8-37.9h7.8l12.7 37.9h-7.9zm-10.4-5.9h8.6l-4.2-13.4h-.2zm58 14.1h-3.1v-17.4h-21.5v17.4h-3.1v-37.9h3.1v17.8h21.5v-17.8h3.1zm41.6-37.9v25.2c0 4.2-1.3 7.4-3.8 9.8-2.6 2.3-5.8 3.5-9.8 3.5s-7.2-1.2-9.7-3.5c-2.5-2.4-3.8-5.6-3.8-9.8v-25.2h3.1v25.2c0 3.3 1 5.9 2.9 7.8s4.4 2.9 7.4 2.9c3.1 0 5.6-1 7.6-2.9s3-4.5 3-7.8v-25.2zm18.4 37.9h-3.1v-37.9h3.1zm37.3-9.2c0-1.9-.8-3.6-2.3-4.8-1.5-1.3-4.2-2.5-7.9-3.6-4-1.1-7.1-2.5-9.2-4.2s-3.2-3.9-3.2-6.8 1.2-5.3 3.5-7.1c2.4-1.9 5.4-2.8 9-2.8 3.9 0 7 1.1 9.3 3.2s3.5 4.8 3.4 8l-.1.2h-2.9c0-2.5-.9-4.6-2.7-6.2s-4.2-2.5-7-2.5c-3 0-5.3.7-6.9 2.1-1.7 1.4-2.5 3.1-2.5 5.1 0 1.9.8 3.5 2.3 4.8 1.5 1.2 4.2 2.4 8 3.5 4 1.2 7 2.6 9.1 4.3s3.2 4 3.2 6.8c0 3-1.2 5.3-3.7 7.1s-5.6 2.7-9.3 2.7-7-1-9.8-2.9-4.1-4.7-4-8.3l.1-.2h2.9c0 2.9 1.1 5.1 3.3 6.6 2.2 1.4 4.7 2.1 7.6 2.1s5.3-.7 7.1-2c1.7-1.3 2.7-3 2.7-5.1z" fill="#d53d18"/></svg>