<svg xmlns="http://www.w3.org/2000/svg" viewBox="0 0 370.54 96.38"><defs><style>.cls-1{fill:#112121;}.cls-2{fill:#00e0b5;}.cls-3{fill:#ff4931;}.cls-4{fill:#5c7aff;}</style></defs><title>Asset 2</title><g id="Layer_2" data-name="Layer 2"><g id="Layer_1-2" data-name="Layer 1"><path class="cls-1" d="M24.72,17h2.72v4.82h0A2.86,2.86,0,0,1,30,20.37c1.36,0,2.79.88,2.79,3.3V34H30.12V24.68c0-1-.48-1.6-1.33-1.6-1,0-1.35.67-1.35,1.86V34H24.72Z"/><path class="cls-1" d="M38.2,26.17h2.66V24.62c0-1-.51-1.54-1.33-1.54s-1.33.53-1.33,1.54Zm0,2.12v1.84a1.22,1.22,0,0,0,1.33,1.33c1,0,1.27-.77,1.33-1.36h2.71A4.16,4.16,0,0,1,42.48,33a4,4,0,0,1-2.95,1.19A3.86,3.86,0,0,1,36,32.23a5.84,5.84,0,0,1-.51-2.74V25.05A5.84,5.84,0,0,1,36,22.31a3.86,3.86,0,0,1,3.54-1.94,3.93,3.93,0,0,1,4,4.2v3.72Z"/><path class="cls-1" d="M21.4,23.11h.32V20.53h-2V17H17V30.85A3,3,0,0,0,20.28,34h1.44V31.46H21.4c-1.2,0-1.68-.08-1.68-1.33v-7Z"/><path class="cls-1" d="M0,96.38H370.54V0H0ZM5.67,5.67h359.2v85H5.67Z"/><rect class="cls-2" x="17.01" y="62.36" width="26.57" height="5.67"/><rect class="cls-3" x="17.01" y="51.02" width="26.57" height="5.67"/><rect class="cls-4" x="17.01" y="73.7" width="26.57" height="5.67"/><polygon class="cls-1" points="90.93 17.01 117.55 17.01 117.55 25.42 99.86 25.42 99.86 43.73 115.28 43.73 115.28 52.13 99.86 52.13 99.86 70.44 117.55 70.44 117.55 79.37 90.93 79.37 90.93 17.01"/><polygon class="cls-1" points="123.35 17.01 149.98 17.01 149.98 25.42 132.29 25.42 132.29 43.5 147.71 43.5 147.71 51.91 132.29 51.91 132.29 79.37 123.35 79.37 123.35 17.01"/><polygon class="cls-1" points="155.78 17.01 182.4 17.01 182.4 25.42 164.71 25.42 164.71 43.72 180.13 43.72 180.13 52.13 164.71 52.13 164.71 70.44 182.4 70.44 182.4 79.37 155.78 79.37 155.78 17.01"/><polygon class="cls-1" points="224.17 17.01 250.79 17.01 250.79 25.42 233.1 25.42 233.1 43.72 248.51 43.72 248.51 52.13 233.1 52.13 233.1 70.44 250.79 70.44 250.79 79.37 224.17 79.37 224.17 17.01"/><polygon class="cls-1" points="256.24 17.01 264.82 17.01 278.31 54.58 278.48 54.58 278.48 17.01 287.42 17.01 287.42 79.37 279.01 79.37 265.35 41.88 265.17 41.88 265.17 79.37 256.24 79.37 256.24 17.01"/><path class="cls-1" d="M322.34,65.44a14.4,14.4,0,0,1-14.18,14.45c-6.84,0-14.72-3.32-14.72-14.71V30.85c0-8.15,5.87-14.37,14.55-14.37,8.23,0,14.35,6.22,14.35,14.89v3.51h-8.92v-3c0-3.5-2.1-6.48-5.52-6.48-4.48,0-5.52,3.06-5.52,7.27V64.57c0,3.59,1.4,6.39,5.43,6.39,2.45,0,5.61-1.4,5.61-6.31V61.59h8.92Z"/><polygon class="cls-1" points="326.9 17.01 353.53 17.01 353.53 25.42 335.83 25.42 335.83 43.72 351.25 43.72 351.25 52.13 335.83 52.13 335.83 70.44 353.53 70.44 353.53 79.37 326.9 79.37 326.9 17.01"/><path class="cls-1" d="M85,34.69C85,22.6,79.87,17,69.28,17H54.91V79.37h8.93v-27h4.64c6.57,0,7.63,3.41,7.63,9.72V79.37H85V62.28c0-6.35-1.43-10.9-4.31-13.8C83.61,45.59,85,41,85,34.69Zm-21.2,8.86V24.8h4.64c6.57,0,7.63,3.41,7.63,9.72s-1,9-7.18,9Z"/><path class="cls-1" d="M218.62,34.69c0-12.09-5.17-17.68-15.76-17.68H188.49V79.37h8.94v-27h4.64c6.57,0,7.62,3.41,7.62,9.72V79.37h8.93V62.28c0-6.35-1.42-10.9-4.3-13.8C217.2,45.59,218.62,41,218.62,34.69Zm-21.19,8.86V24.8h4.64c6.57,0,7.62,3.41,7.62,9.72s-1,9-7.18,9Z"/></g></g></svg>