<svg enable-background="new 0 0 120 31.2" viewBox="0 0 120 31.2" xmlns="http://www.w3.org/2000/svg"><path d="m8 5.5h.9v1.6c.2-.3.5-.5.8-.5.4 0 .9.3.9 1.1v3.3h-.8v-3c0-.3-.2-.5-.4-.5-.4 0-.5.2-.5.6v2.9h-.9z" fill="#112121"/><path d="m12.4 8.5h.9v-.5c0-.3-.2-.5-.4-.5s-.5.1-.5.5zm0 .7v.6c0 .2.1.4.4.4h.1c.3 0 .4-.2.4-.4h.9c0 .3-.1.7-.4.9-.3.3-.6.4-1 .4-.5 0-.9-.2-1.1-.6-.1-.3-.2-.6-.2-.9v-1.5c0-.3 0-.6.2-.9.2-.4.7-.7 1.1-.6.7 0 1.3.5 1.3 1.2v.1 1.2z" fill="#112121"/><path d="m6.9 7.5h.1v-.9h-.6v-1.1h-.9v4.5c0 .5.4 1 .9 1h.1.5v-.8h-.1c-.4 0-.5 0-.5-.4v-2.3z" fill="#112121"/><path d="m0 31.2h120v-31.2h-120zm1.8-29.4h116.3v27.5h-116.3z" fill="#112121"/><path d="m5.5 20.2h8.6v1.8h-8.6z" fill="#00e0b5"/><path d="m5.5 16.5h8.6v1.8h-8.6z" fill="#ff4931"/><path d="m5.5 23.9h8.6v1.8h-8.6z" fill="#5c7aff"/><g fill="#112121"><path d="m29.4 5.5h8.6v2.7h-5.7v5.9h5v2.7h-5v5.9h5.7v2.9h-8.6z"/><path d="m39.9 5.5h8.6v2.7h-5.7v5.9h5v2.7h-5v8.9h-2.9z"/><path d="m50.4 5.5h8.6v2.7h-5.7v5.9h5v2.7h-5v5.9h5.7v2.9h-8.6z"/><path d="m72.6 5.5h8.6v2.7h-5.7v5.9h5v2.7h-5v5.9h5.7v2.9h-8.6z"/><path d="m83 5.5h2.8l4.4 12.2h.1v-12.2h2.9v20.2h-2.7l-4.4-12.1h-.1v12.1h-3z"/><path d="m104.4 21.2c0 2.6-2 4.6-4.6 4.7-2.2 0-4.8-1.1-4.8-4.8v-11.1c0-2.6 1.9-4.7 4.7-4.7 2.7 0 4.6 2 4.6 4.8v1.1h-2.9v-1c0-1.1-.7-2.1-1.8-2.1-1.5 0-1.8 1-1.8 2.4v10.3c0 1.2.5 2.1 1.8 2.1.8 0 1.8-.5 1.8-2v-1h2.9v1.3z"/><path d="m105.9 5.5h8.6v2.7h-5.7v5.9h5v2.7h-5v5.9h5.7v2.9h-8.6z"/><path d="m27.5 11.2c0-3.9-1.7-5.7-5.1-5.7h-4.7v20.2h2.9v-8.7h1.5c2.1 0 2.5 1.1 2.5 3.1v5.6h2.9v-5.5c0-2.1-.5-3.5-1.4-4.5 1-.9 1.4-2.4 1.4-4.5zm-6.8 2.9v-6.1h1.5c2.1 0 2.5 1.1 2.5 3.1s-.3 2.9-2.3 2.9z"/><path d="m70.8 11.2c0-3.9-1.7-5.7-5.1-5.7h-4.7v20.2h2.9v-8.7h1.5c2.1 0 2.5 1.1 2.5 3.1v5.6h2.9v-5.5c0-2.1-.5-3.5-1.4-4.5.9-.9 1.4-2.4 1.4-4.5zm-6.9 2.9v-6.1h1.5c2.1 0 2.5 1.1 2.5 3.1s-.3 2.9-2.3 2.9z"/></g></svg>