<svg viewBox="0 0 370.54 96.38" xmlns="http://www.w3.org/2000/svg"><path d="m24.72 17h2.72v4.82a2.86 2.86 0 0 1 2.56-1.45c1.36 0 2.79.88 2.79 3.3v10.33h-2.67v-9.32c0-1-.48-1.6-1.33-1.6-1 0-1.35.67-1.35 1.86v9.06h-2.72z" fill="#112121"/><path d="m38.2 26.17h2.66v-1.55c0-1-.51-1.54-1.33-1.54s-1.33.53-1.33 1.54zm0 2.12v1.84a1.22 1.22 0 0 0 1.33 1.33c1 0 1.27-.77 1.33-1.36h2.71a4.16 4.16 0 0 1 -1.09 2.9 4 4 0 0 1 -2.95 1.19 3.86 3.86 0 0 1 -3.53-1.96 5.84 5.84 0 0 1 -.51-2.74v-4.44a5.84 5.84 0 0 1 .51-2.74 3.86 3.86 0 0 1 3.54-1.94 3.93 3.93 0 0 1 4 4.2v3.72z" fill="#112121"/><path d="m21.4 23.11h.32v-2.58h-2v-3.53h-2.72v13.85a3 3 0 0 0 3.28 3.15h1.44v-2.54h-.32c-1.2 0-1.68-.08-1.68-1.33v-7z" fill="#112121"/><path d="m0 96.38h370.54v-96.38h-370.54zm5.67-90.71h359.2v85h-359.2z" fill="#112121"/><path d="m17.01 62.36h26.57v5.67h-26.57z" fill="#00e0b5"/><path d="m17.01 51.02h26.57v5.67h-26.57z" fill="#ff4931"/><path d="m17.01 73.7h26.57v5.67h-26.57z" fill="#5c7aff"/><g fill="#112121"><path d="m90.93 17.01h26.62v8.41h-17.69v18.31h15.42v8.4h-15.42v18.31h17.69v8.93h-26.62z"/><path d="m123.35 17.01h26.63v8.41h-17.69v18.08h15.42v8.41h-15.42v27.46h-8.94z"/><path d="m155.78 17.01h26.62v8.41h-17.69v18.3h15.42v8.41h-15.42v18.31h17.69v8.93h-26.62z"/><path d="m224.17 17.01h26.62v8.41h-17.69v18.3h15.41v8.41h-15.41v18.31h17.69v8.93h-26.62z"/><path d="m256.24 17.01h8.58l13.49 37.57h.17v-37.57h8.94v62.36h-8.41l-13.66-37.49h-.18v37.49h-8.93z"/><path d="m322.34 65.44a14.4 14.4 0 0 1 -14.18 14.45c-6.84 0-14.72-3.32-14.72-14.71v-34.33c0-8.15 5.87-14.37 14.55-14.37 8.23 0 14.35 6.22 14.35 14.89v3.51h-8.92v-3c0-3.5-2.1-6.48-5.52-6.48-4.48 0-5.52 3.06-5.52 7.27v31.9c0 3.59 1.4 6.39 5.43 6.39 2.45 0 5.61-1.4 5.61-6.31v-3.06h8.92z"/><path d="m326.9 17.01h26.63v8.41h-17.7v18.3h15.42v8.41h-15.42v18.31h17.7v8.93h-26.63z"/><path d="m85 34.69c0-12.09-5.13-17.69-15.72-17.69h-14.37v62.37h8.93v-27h4.64c6.57 0 7.63 3.41 7.63 9.72v17.28h8.89v-17.09c0-6.35-1.43-10.9-4.31-13.8 2.92-2.89 4.31-7.48 4.31-13.79zm-21.2 8.86v-18.75h4.64c6.57 0 7.63 3.41 7.63 9.72s-1 9-7.18 9z"/><path d="m218.62 34.69c0-12.09-5.17-17.68-15.76-17.68h-14.37v62.36h8.94v-27h4.64c6.57 0 7.62 3.41 7.62 9.72v17.28h8.93v-17.09c0-6.35-1.42-10.9-4.3-13.8 2.88-2.89 4.3-7.48 4.3-13.79zm-21.19 8.86v-18.75h4.64c6.57 0 7.62 3.41 7.62 9.72s-1 9-7.18 9z"/></g></svg>