<svg enable-background="new 0 0 60 60" viewBox="0 0 60 60" xmlns="http://www.w3.org/2000/svg"><path d="m58.3 11c-.6-4.9-4.3-8.7-9.2-9.3 0 0-7.8-1.2-19.1-1.2s-19.1 1.2-19.1 1.2c-4.9.6-8.6 4.4-9.2 9.3 0 0-1.2 8.7-1.2 19s1.2 19 1.2 19c.6 4.9 4.3 8.7 9.2 9.3 0 0 7.8 1.2 19.1 1.2s19.1-1.2 19.1-1.2c4.9-.6 8.7-4.4 9.2-9.3 0 0 1.2-8.7 1.2-19s-1.2-19-1.2-19m-7.8 32.8c-.4 3.5-3.1 6.3-6.6 6.7 0 0-5.6.9-13.9.9s-13.9-.9-13.9-.9c-3.5-.4-6.3-3.1-6.6-6.7 0 0-.9-6.3-.9-13.8s.9-13.8.9-13.8c.4-3.5 3.1-6.3 6.6-6.7 0 0 5.6-.9 13.9-.9s13.9.9 13.9.9c3.5.4 6.3 3.1 6.6 6.7 0 0 .9 6.3.9 13.8s-.9 13.8-.9 13.8" fill="#ffc421"/><g fill="#ffc410"><path d="m41.9 24.3v-3.1c0-.3-.4-.4-.4-.4-1.5-.4-3-.6-4.4-.7-1.4 0-2.8.1-4.1.4 0 0-.4.1-.4.4v3c0 .6.4.4.4.4 1.3-.1 2.6-.3 4-.2 1.5 0 3 .1 4.3.4.2.2.6.3.6-.2"/><path d="m27 22.5c0-3.8-4.6-3.8-4.6-3.8s-4.6 0-4.6 3.8 4.6 3.8 4.6 3.8 4.6 0 4.6-3.8"/><path d="m30 41.7c-5.9 0-10.8-3.4-12.4-4.7 0 0-.5-.5-.5-1v-1.6c0-.8.6-.4.6-.4 1.6 1 6.3 3.5 12.3 3.5s10.7-2.6 12.3-3.5c0 0 .6-.4.6.4v1.6c0 .4-.5 1-.5 1-1.6 1.3-6.5 4.7-12.4 4.7"/></g></svg>