<svg viewBox="0 0 430 226" xmlns="http://www.w3.org/2000/svg" xmlns:xlink="http://www.w3.org/1999/xlink"><clipPath id="a" transform="translate(5 5)"><rect height="216" rx="12" width="420"/></clipPath><clipPath id="b" transform="translate(5 5)"><path d="m-510-136h1440v420h-1440z"/></clipPath><clipPath id="c" transform="translate(5 5)"><path d="m39 101a3 3 0 1 1 3-3 3 3 0 0 1 -3 3zm19 12h-24l6-8 2 2 6-8zm-26-24v28h28v-28zm28 32h-28a4 4 0 0 1 -4-4v-28a4 4 0 0 1 4-4h28a4 4 0 0 1 4 4v28a4 4 0 0 1 -4 4z"/></clipPath><clipPath id="d" transform="translate(5 5)"><path d="m285 110-10 10h20z"/></clipPath><g clip-path="url(#a)"><g clip-path="url(#b)"><path d="m0 0h430v226h-430z" fill="#3498db"/></g></g><text fill="#fff" font-family="OpenSans-Regular, Open Sans" font-size="21" transform="translate(33 57)">Bingel oefeningen</text><text fill="#fff" font-family="OpenSans-Regular, Open Sans" font-size="21" transform="translate(33 188)">In vergelijking tot 20 mln. vorig jaar.</text><path d="m33 152.5h364" fill="none" stroke="#2980b9" stroke-linecap="square" stroke-miterlimit="10" stroke-width="2"/><text fill="#fff" font-family="OpenSans-Bold, Open Sans" font-size="48" font-weight="700" transform="translate(89 126)">28 mln.</text><g clip-path="url(#c)"><g clip-path="url(#b)"><path d="m28 85h46v46h-46z" fill="#2980b9"/></g></g><text fill="#f1c40f" font-family="OpenSans-Bold, Open Sans" font-size="21" font-weight="700" transform="translate(307 126)">+37%</text><g clip-path="url(#d)"><g clip-path="url(#b)"><path d="m275 110h30v20h-30z" fill="#f1c40f"/></g></g></svg>