<svg xmlns="http://www.w3.org/2000/svg" viewBox="0 0 216.1 250"><defs><style>.cls-1{fill:#2963eb;}.cls-2{fill:#092cea;}.cls-10,.cls-3,.cls-6,.cls-7,.cls-8,.cls-9{fill:#fff;}.cls-4{opacity:0.4;}.cls-5{fill:none;stroke:#fff;stroke-linecap:round;stroke-miterlimit:10;stroke-width:2px;}.cls-10,.cls-5,.cls-6{opacity:0.8;}.cls-6{font-size:9px;}.cls-10,.cls-6,.cls-9{font-family:OpenSans-SemiBold, Open Sans;font-weight:600;}.cls-7,.cls-9{font-size:13px;}.cls-7,.cls-8{font-family:OpenSans-Regular, Open Sans;}.cls-8{font-size:40px;}.cls-10{font-size:10px;}</style></defs><g id="Layer_2" data-name="Layer 2"><g id="BOX"><rect class="cls-1" x="0.1" width="216" height="250" rx="6.25"/><path class="cls-2" d="M209.85,250H172.1V0h37.75a6.27,6.27,0,0,1,6.25,6.25v237.5A6.27,6.27,0,0,1,209.85,250Z"/><circle class="cls-3" cx="172.1" cy="145" r="3"/><g class="cls-4"><path class="cls-3" d="M172.1,142a3,3,0,1,1-3,3,3,3,0,0,1,3-3m0-3a6,6,0,1,0,6,6,6,6,0,0,0-6-6Z"/></g><path class="cls-5" d="M1,192.5c4.08,1.21,8.65,1.66,12.1-.5,8-5,5-30.59,24-32,27-2,35,59,52,54s18-80,28-81-.86,38.23,18,42c10,2,18-30,37-30"/><text class="cls-6" transform="translate(164.13 228.68)">DEC</text><text class="cls-6" transform="translate(21.08 228.73)">AUG</text><text class="cls-7" transform="translate(21.1 32.16)">HCP bezoeken</text><text class="cls-8" transform="translate(21.09 85.25)">150k</text><text class="cls-9" transform="translate(188.74 32.16)">...</text><text class="cls-6" transform="translate(58.37 228.67)">SEP</text><text class="cls-6" transform="translate(92.69 228.67)">OKT</text><text class="cls-6" transform="translate(127.32 228.67)">NOV</text><text class="cls-10" transform="translate(21.08 108.71)">Vorig jaar 48k</text></g></g></svg>