<svg viewBox="0 0 430 226" xmlns="http://www.w3.org/2000/svg" xmlns:xlink="http://www.w3.org/1999/xlink"><clipPath id="a" transform="translate(5 5)"><rect height="216" rx="12" width="420"/></clipPath><clipPath id="b" transform="translate(5 5)"><path d="m-50-136h1440v420h-1440z"/></clipPath><clipPath id="c" transform="translate(5 5)"><path d="m45 88.79a5.69 5.69 0 1 0 5.67 5.68 5.67 5.67 0 0 0 -5.67-5.68zm0 15.21a9.48 9.48 0 1 1 9.44-9.48 9.45 9.45 0 0 1 -9.44 9.48zm-13.22 17h-3.78v-1.89a13.26 13.26 0 0 1 13.22-13.27h7.56a13.26 13.26 0 0 1 13.22 13.27v1.89h-3.78v-1.89a9.47 9.47 0 0 0 -9.44-9.48h-7.56a9.47 9.47 0 0 0 -9.44 9.48z"/></clipPath><clipPath id="d" transform="translate(5 5)"><path d="m236 110-10 10h20z"/></clipPath><g clip-path="url(#a)"><g clip-path="url(#b)"><path d="m0 0h430v226h-430z" fill="#1abc9c"/></g></g><text fill="#fff" font-family="OpenSans-Regular, Open Sans" font-size="21" transform="translate(33 57)">Unieke gebruikers</text><text fill="#fff" font-family="OpenSans-Regular, Open Sans" font-size="21" transform="translate(33 188)">In vergelijking tot 387 k vorig jaar.</text><path d="m33 152.5h364" fill="none" stroke="#16a085" stroke-linecap="square" stroke-miterlimit="10" stroke-width="2"/><text fill="#fff" font-family="OpenSans-Bold, Open Sans" font-size="48" font-weight="700" transform="translate(87 126)">604 k</text><g clip-path="url(#c)"><g clip-path="url(#b)"><path d="m28 85h44v46h-44z" fill="#16a085"/></g></g><text fill="#f1c40f" font-family="OpenSans-Bold, Open Sans" font-size="21" font-weight="700" transform="translate(258 126)">+56%</text><g clip-path="url(#d)"><g clip-path="url(#b)"><path d="m226 110h30v20h-30z" fill="#f1c40f"/></g></g></svg>