<svg xmlns="http://www.w3.org/2000/svg" viewBox="0 0 810 300"><defs><style>.cls-1{fill:#e64533;}.cls-2,.cls-6{font-size:14px;}.cls-2,.cls-4{fill:#fff;}.cls-2{font-family:OpenSans-Bold, Open Sans;font-weight:700;}.cls-3{opacity:0.1;}.cls-5{fill:#3498db;}.cls-6{fill:#252733;font-family:OpenSans-Regular, Open Sans;}.cls-7{fill:#d3d4d6;}.cls-8{fill:none;stroke:#d3d4d6;stroke-miterlimit:10;stroke-width:2px;}.cls-9{fill:#2ecc71;}</style></defs><g id="Layer_2" data-name="Layer 2"><g id="Layer_1-2" data-name="Layer 1"><rect class="cls-1" width="810" height="28"/><text class="cls-2" transform="translate(9.99 18.98)">ZONDER CDN</text><g class="cls-3"><rect class="cls-4" y="30" width="810" height="28"/></g><g class="cls-3"><rect class="cls-5" y="58" width="810" height="28"/></g><g class="cls-3"><rect class="cls-4" y="86" width="810" height="28"/></g><g class="cls-3"><rect class="cls-5" y="114" width="810" height="28"/></g><text class="cls-6" transform="translate(45 47.1)">50-cent</text><text class="cls-6" transform="translate(45 76.1)">50-euro</text><text class="cls-6" transform="translate(45 104.12)">5-euro</text><text class="cls-6" transform="translate(45 132.12)">10-euro</text><path class="cls-7" d="M808,30V142H2V30H808m2-2H0V144H810V28Z"/><line class="cls-8" x1="208" y1="28" x2="208" y2="144"/><line class="cls-8" x1="338" y1="28" x2="338" y2="144"/><text class="cls-6" transform="translate(225.5 47.1)">GET</text><text class="cls-6" transform="translate(225.5 76.1)">GET</text><text class="cls-6" transform="translate(225.51 104.12)">GET</text><text class="cls-6" transform="translate(225.51 132.12)">GET</text><line class="cls-8" x1="468" y1="28" x2="468" y2="144"/><text class="cls-6" transform="translate(358 47.1)">200</text><text class="cls-6" transform="translate(358 76.1)">200</text><text class="cls-6" transform="translate(358.01 104.12)">200</text><text class="cls-6" transform="translate(358.01 132.12)">200</text><line class="cls-8" x1="678" y1="28" x2="678" y2="144"/><text class="cls-6" transform="translate(616.18 47.1)">324 KB</text><text class="cls-6" transform="translate(616.18 76.1)">270 KB</text><text class="cls-6" transform="translate(616.2 104.12)">268 KB</text><text class="cls-6" transform="translate(612.47 132.12)">41.7 KB</text><text class="cls-6" transform="translate(746.65 47.1)">378 ms</text><text class="cls-6" transform="translate(746.65 76.1)">772 ms</text><text class="cls-6" transform="translate(746.66 104.12)">369 ms</text><text class="cls-6" transform="translate(746.66 132.12)">278 ms</text><g class="cls-3"><rect class="cls-4" y="186" width="810" height="28"/></g><g class="cls-3"><rect class="cls-5" y="214" width="810" height="28"/></g><g class="cls-3"><rect class="cls-4" y="242" width="810" height="28"/></g><g class="cls-3"><rect class="cls-5" y="270" width="810" height="28"/></g><text class="cls-6" transform="translate(45 203.1)">50-cent</text><text class="cls-6" transform="translate(45 232.1)">50-euro</text><text class="cls-6" transform="translate(45.01 260.12)">5-euro</text><text class="cls-6" transform="translate(45.01 288.12)">10-euro</text><path class="cls-7" d="M808,186V298H2V186H808m2-2H0V300H810V184Z"/><line class="cls-8" x1="208" y1="184" x2="208" y2="300"/><line class="cls-8" x1="338" y1="184" x2="338" y2="300"/><text class="cls-6" transform="translate(225.5 203.1)">GET</text><text class="cls-6" transform="translate(225.5 232.1)">GET</text><text class="cls-6" transform="translate(225.51 260.12)">GET</text><text class="cls-6" transform="translate(225.51 288.12)">GET</text><line class="cls-8" x1="468" y1="184" x2="468" y2="300"/><text class="cls-6" transform="translate(358 203.1)">200</text><text class="cls-6" transform="translate(358 232.1)">200</text><text class="cls-6" transform="translate(358.01 260.12)">200</text><text class="cls-6" transform="translate(358.01 288.12)">200</text><line class="cls-8" x1="678" y1="184" x2="678" y2="300"/><text class="cls-6" transform="translate(620.46 203.1)">5.7 KB</text><text class="cls-6" transform="translate(620.46 232.1)">5.1 KB</text><text class="cls-6" transform="translate(620.48 260.12)">5.3 KB</text><text class="cls-6" transform="translate(620.48 288.12)">5.2 KB</text><text class="cls-6" transform="translate(754.65 203.1)">18 ms</text><text class="cls-6" transform="translate(754.65 232.1)">18 ms</text><text class="cls-6" transform="translate(754.67 260.12)">20 ms</text><text class="cls-6" transform="translate(754.67 288.12)">19 ms</text><rect class="cls-9" y="157" width="810" height="28"/><text class="cls-2" transform="translate(9.99 175.98)">MET CDN</text><path class="cls-5" d="M26,52H12a2,2,0,0,1-2-2V36a2,2,0,0,1,2-2H26a2,2,0,0,1,2,2V50A2,2,0,0,1,26,52ZM12,36V50H26V36ZM25,48H13l3-4,1,1,3-4Zm-9.5-6A1.5,1.5,0,1,1,17,40.5,1.5,1.5,0,0,1,15.5,42Z"/><path class="cls-5" d="M26,81H12a2,2,0,0,1-2-2V65a2,2,0,0,1,2-2H26a2,2,0,0,1,2,2V79A2,2,0,0,1,26,81ZM12,65V79H26V65ZM25,77H13l3-4,1,1,3-4Zm-9.5-6A1.5,1.5,0,1,1,17,69.5,1.5,1.5,0,0,1,15.5,71Z"/><path class="cls-5" d="M26,109H12a2,2,0,0,1-2-2V93a2,2,0,0,1,2-2H26a2,2,0,0,1,2,2v14A2,2,0,0,1,26,109ZM12,93v14H26V93Zm13,12H13l3-4,1,1,3-4Zm-9.5-6A1.5,1.5,0,1,1,17,97.5,1.5,1.5,0,0,1,15.5,99Z"/><path class="cls-5" d="M26,137H12a2,2,0,0,1-2-2V121a2,2,0,0,1,2-2H26a2,2,0,0,1,2,2v14A2,2,0,0,1,26,137ZM12,121v14H26V121Zm13,12H13l3-4,1,1,3-4Zm-9.5-6a1.5,1.5,0,1,1,1.5-1.5A1.5,1.5,0,0,1,15.5,127Z"/><path class="cls-5" d="M26,208H12a2,2,0,0,1-2-2V192a2,2,0,0,1,2-2H26a2,2,0,0,1,2,2v14A2,2,0,0,1,26,208ZM12,192v14H26V192Zm13,12H13l3-4,1,1,3-4Zm-9.5-6a1.5,1.5,0,1,1,1.5-1.5A1.5,1.5,0,0,1,15.5,198Z"/><path class="cls-5" d="M26,237H12a2,2,0,0,1-2-2V221a2,2,0,0,1,2-2H26a2,2,0,0,1,2,2v14A2,2,0,0,1,26,237ZM12,221v14H26V221Zm13,12H13l3-4,1,1,3-4Zm-9.5-6a1.5,1.5,0,1,1,1.5-1.5A1.5,1.5,0,0,1,15.5,227Z"/><path class="cls-5" d="M26,265H12a2,2,0,0,1-2-2V249a2,2,0,0,1,2-2H26a2,2,0,0,1,2,2v14A2,2,0,0,1,26,265ZM12,249v14H26V249Zm13,12H13l3-4,1,1,3-4Zm-9.5-6a1.5,1.5,0,1,1,1.5-1.5A1.5,1.5,0,0,1,15.5,255Z"/><path class="cls-5" d="M26,293H12a2,2,0,0,1-2-2V277a2,2,0,0,1,2-2H26a2,2,0,0,1,2,2v14A2,2,0,0,1,26,293ZM12,277v14H26V277Zm13,12H13l3-4,1,1,3-4Zm-9.5-6a1.5,1.5,0,1,1,1.5-1.5A1.5,1.5,0,0,1,15.5,283Z"/></g></g></svg>