<svg viewBox="0 0 430 226" xmlns="http://www.w3.org/2000/svg" xmlns:xlink="http://www.w3.org/1999/xlink"><clipPath id="a" transform="translate(5 5)"><rect height="216" rx="12" width="420"/></clipPath><clipPath id="b" transform="translate(5 5)"><path d="m-970-136h1440v420h-1440z"/></clipPath><clipPath id="c" transform="translate(5 5)"><path d="m46 111.24-7.41-7.41 2.82-2.83 4.59 4.59 8.59-8.59 2.82 2.83zm-14-18.24v24h32v-24zm32 28h-32a4 4 0 0 1 -4-4v-28a4 4 0 0 1 4-4h32a4 4 0 0 1 4 4v28a4 4 0 0 1 -4 4z"/></clipPath><clipPath id="d" transform="translate(5 5)"><path d="m290 110-10 10h20z"/></clipPath><g clip-path="url(#a)"><g clip-path="url(#b)"><path d="m0 0h430v226h-430z" fill="#e67e22"/></g></g><text fill="#fff" font-family="OpenSans-Regular, Open Sans" font-size="21" transform="translate(33 57)">Bingel taken</text><text fill="#fff" font-family="OpenSans-Regular, Open Sans" font-size="21" transform="translate(33 188)">In vergelijking tot 7 mln. vorig jaar.</text><path d="m33 152.5h364" fill="none" stroke="#d35400" stroke-linecap="square" stroke-miterlimit="10" stroke-width="2"/><text fill="#fff" font-family="OpenSans-Bold, Open Sans" font-size="48" font-weight="700" transform="translate(93 126)">11 mln.</text><g clip-path="url(#c)"><g clip-path="url(#b)"><path d="m28 85h50v46h-50z" fill="#d35400"/></g></g><text fill="#f1c40f" font-family="OpenSans-Bold, Open Sans" font-size="21" font-weight="700" transform="translate(312 126)">+47%</text><g clip-path="url(#d)"><g clip-path="url(#b)"><path d="m280 110h30v20h-30z" fill="#f1c40f"/></g></g></svg>